<svg width="683" height="131" viewBox="0 0 683 131" fill="none" xmlns="http://www.w3.org/2000/svg">
<path d="M20.5732 23.2372C26.3904 21.5572 32.1746 20.9593 36.6262 21.249C41.0603 21.4666 44.1022 22.5758 44.0777 22.5158C44.098 22.5747 41.5516 23.06 37.6411 24.2985C33.7138 25.4782 28.4146 27.3677 22.5373 28.8728C16.6557 30.3785 11.1633 30.6601 6.99594 30.3514C2.85234 30.0824 -0.0159854 29.23 0.000113053 29.2808C-0.0187851 29.2295 2.33299 28.8434 6.01464 27.7491C9.71728 26.7069 14.7512 24.9183 20.5732 23.2372Z" fill="#C3DAEA"/>
<path d="M23.6544 11.8362C28.3832 15.4455 33.0804 18.3259 37.042 20.0746C40.9309 21.8648 44.1268 22.4817 44.0764 22.5164C44.1233 22.4812 42.4791 20.8335 39.9531 17.9883C37.3759 15.1887 33.7811 11.2036 28.7254 7.54123C23.6803 3.86728 17.7526 1.73712 13 0.824117C8.2692 -0.13275 4.70303 0.0513638 4.74853 0C4.69814 0.0496324 7.27109 0.948786 10.8344 2.99987C14.4419 5.00826 18.9369 8.21588 23.6544 11.8362Z" fill="#C3DAEA"/>
<path d="M48.8458 31.1704C55.0696 29.6554 61.0065 29.4009 65.4126 30.049C69.8172 30.6164 72.6219 32.0822 72.6107 32.0124C72.6163 32.0805 69.932 32.4447 65.6897 33.5706C61.4467 34.6302 55.6429 36.4066 49.3687 37.7374C43.0903 39.0683 37.5419 39.0562 33.4907 38.4369C29.4521 37.8673 26.8511 36.69 26.8525 36.7488C26.8476 36.6882 29.2729 36.3899 33.2086 35.3678C37.1521 34.4075 42.6157 32.6853 48.8458 31.1704Z" fill="#C3DAEA"/>
<path d="M54.6051 18.2491C58.5282 22.8309 62.5472 26.4719 66.1134 28.7464C69.5941 31.0618 72.6696 31.9759 72.6108 32.0123C72.6647 31.9736 71.4083 30.0114 69.5318 26.592C67.5937 23.221 64.8843 18.3836 60.5818 13.6974C56.2919 9.00074 50.7603 5.92757 46.1898 4.37396C41.6458 2.76957 38.0656 2.60567 38.1202 2.55142C38.06 2.60336 40.4755 3.95441 43.642 6.73382C46.8589 9.46534 50.6959 13.6575 54.6051 18.2491Z" fill="#C3DAEA"/>
<path d="M75.2931 42.004C81.9887 40.7263 88.09 40.8498 92.4296 41.8603C96.786 42.7832 99.305 44.578 99.3099 44.5001C99.2994 44.5751 96.4633 44.7904 91.8487 45.7438C87.2501 46.6245 80.8737 48.1971 74.1418 49.281C67.4035 50.3642 61.7795 50.041 57.8536 49.1263C53.9242 48.2687 51.627 46.8063 51.6123 46.8721C51.6235 46.8051 54.1426 46.6066 58.3842 45.6994C62.6181 44.862 68.5906 43.2806 75.2931 42.004Z" fill="#C3DAEA"/>
<path d="M84.2456 27.9753C87.165 33.4158 90.37 37.7234 93.4602 40.4728C96.451 43.2597 99.3788 44.4624 99.3102 44.4994C99.3746 44.459 98.5662 42.2353 97.461 38.3334C96.283 34.4806 94.6431 28.9148 91.3023 23.3052C87.9769 17.6875 83.0074 13.7169 78.7189 11.544C74.4633 9.31462 70.9027 8.8004 70.9685 8.74442C70.8964 8.79751 73.0704 10.5814 75.6903 14.0355C78.3724 17.4405 81.3436 22.5272 84.2456 27.9753Z" fill="#C3DAEA"/>
<path d="M99.6061 55.526C106.819 54.579 113.082 55.1267 117.328 56.5083C121.612 57.7982 123.799 59.8931 123.823 59.8094C123.794 59.8897 120.802 59.9197 115.79 60.6266C110.812 61.2569 103.82 62.5162 96.588 63.2595C89.3506 64.0011 83.6392 63.3403 79.8477 62.137C76.0365 60.9972 74.0739 59.2912 74.041 59.361C74.0704 59.2895 76.6994 59.211 81.2846 58.4775C85.844 57.8172 92.3856 56.4714 99.6061 55.526Z" fill="#C3DAEA"/>
<path d="M112.182 40.8896C113.915 47.0538 116.184 51.9201 118.725 55.0897C121.15 58.2904 123.903 59.7736 123.822 59.8094C123.898 59.7696 123.59 57.3445 123.366 53.0663C123.054 48.8354 122.65 42.6873 120.464 36.2767C118.296 29.8603 114.053 25.0557 110.143 22.2925C106.276 19.4663 102.773 18.5995 102.851 18.5429C102.767 18.5948 104.615 20.7839 106.548 24.8439C108.557 28.8538 110.468 34.7202 112.182 40.8896Z" fill="#C3DAEA"/>
<path d="M121.481 71.5291C129.232 71.0241 135.639 72.0555 139.759 73.821C143.938 75.4937 145.749 77.8584 145.794 77.7718C145.745 77.8537 142.603 77.6592 137.186 78.0321C131.824 78.3276 124.197 79.1437 116.449 79.4358C108.696 79.7255 102.898 78.686 99.2544 77.1969C95.5734 75.7748 93.9734 73.8678 93.9209 73.9376C93.9699 73.8649 96.7171 73.933 101.671 73.4424C106.577 73.0286 113.723 72.0301 121.481 71.5291Z" fill="#C3DAEA"/>
<path d="M138.014 56.8615C138.401 63.593 139.628 68.9008 141.55 72.4293C143.344 75.9803 145.887 77.7382 145.794 77.7711C145.882 77.7336 146.12 75.1741 146.865 70.6379C147.508 66.1456 148.48 59.5803 147.626 52.5129C146.791 45.442 143.43 39.8797 139.999 36.5612C136.62 33.1753 133.215 31.9512 133.307 31.8958C133.208 31.9448 134.651 34.5032 135.767 39.0844C136.971 43.6165 137.647 50.1282 138.014 56.8615Z" fill="#C3DAEA"/>
<path d="M42.8799 22.1943C87.5132 34.0623 127.083 56.8885 156 88" stroke="#C6C6C5" stroke-width="0.76897" stroke-miterlimit="10" stroke-linecap="round" stroke-linejoin="round"/>
<path d="M278.606 124.508C271.732 120.333 264.665 116.476 257.431 112.942C254.443 111.481 250.978 111.098 247.966 111.898C246.028 112.416 244.117 112.988 242.267 113.614C232.762 116.785 223.805 121.383 217.533 127.998C214.337 131.299 208.706 132.015 204.881 129.457C201.089 126.908 200.1 122.079 202.977 118.56C206.01 114.834 212.843 112.698 217.8 111.233C224.792 109.123 232.338 107.996 240.09 107.699C241.176 107.655 242.264 107.63 243.35 107.622C244.017 107.617 244.15 106.894 243.526 106.631C239.429 104.909 235.286 103.286 231.102 101.763C227.944 100.611 224.422 100.584 221.526 101.713C219.954 102.323 218.413 102.974 216.92 103.654C208.488 107.483 200.676 112.549 195.611 119.245C192.965 122.692 187.783 123.74 183.786 121.683C179.796 119.622 178.27 115.108 180.628 111.489C183.077 107.717 189.488 105.091 194.035 103.315C200.279 100.833 207.113 99.1898 214.192 98.255C215.01 98.1483 215.828 98.0503 216.651 97.9652C217.312 97.8946 217.36 97.1604 216.71 96.9627C212.392 95.6524 208.036 94.4441 203.648 93.3396C200.286 92.4916 196.701 92.873 193.913 94.3449C192.748 94.9578 191.605 95.5946 190.504 96.2437C183.532 100.346 177.405 105.321 173.3 111.418C170.117 116.012 163.36 118.7 158.659 113.887C153.971 109.193 158.406 104.414 163.076 101.252C169.93 96.5662 178.409 93.3938 187.307 91.3895C187.855 91.2676 188.403 91.1475 188.957 91.0343C189.606 90.9031 189.561 90.1707 188.89 90.0389C184.395 89.1577 179.872 88.3827 175.324 87.7144C171.837 87.2007 168.268 87.9407 165.665 89.7199C164.84 90.2803 164.03 90.8559 163.243 91.4396C157.132 95.9871 152.33 101.128 149.043 107.188C146.406 111.909 139.532 114.324 134.994 109.935C130.464 105.633 134.582 100.983 138.77 97.6975C144.587 93.0847 151.897 89.647 159.657 87.1528C159.934 87.0648 160.219 86.9785 160.499 86.8916C161.137 86.6945 161.004 85.9719 160.319 85.9078C155.697 85.4722 151.056 85.1462 146.402 84.9298C142.773 84.759 139.224 85.899 136.827 88.0002C136.332 88.43 135.851 88.865 135.378 89.3018C130.631 93.7064 126.661 98.623 124.518 104.099C122.63 108.741 117.102 112.47 111.615 108.961C99.874 101.866 123.883 88.2638 131.485 85.5958C131.494 85.5929 131.501 85.59 131.51 85.5865C132.125 85.3281 131.905 84.6219 131.205 84.6295C129.496 84.6458 127.786 84.6767 126.074 84.7222C120.342 84.8931 116.801 85.5987 111.476 87.035C107.284 88.2078 102.722 90.5194 92.6553 92.3948C84.83 93.8889 78.6643 91.4128 78.0641 88.5384C77.4639 85.6868 82.5515 80.9842 90.9974 80.2197C101.762 79.2977 106.807 80.9888 111.171 81.4816C116.732 82.1645 120.298 82.5196 126.087 82.4007C127.814 82.3698 129.541 82.3534 131.265 82.3523C131.971 82.3534 132.239 81.6467 131.628 81.3924C131.62 81.3895 131.612 81.3866 131.604 81.3836C125.12 78.0422 96.5752 68.5664 108.677 59.7316C115 55.2902 122.388 58.5513 124.494 63.104C127.052 68.4469 131.346 73.2014 135.901 77.701C136.356 78.1466 136.814 78.5938 137.282 79.037C139.558 81.2023 142.947 82.5115 146.604 82.6829C151.301 82.901 155.984 83.2305 160.649 83.6702C161.34 83.7361 161.689 83.0614 161.116 82.7477C160.866 82.61 160.609 82.4724 160.358 82.336C153.383 78.4679 146.429 74.314 140.508 69.4371C136.344 65.9632 131.52 61.3219 137.509 57.0811C143.707 52.7559 152.304 55.9294 154.163 60.9871C156.621 67.4147 160.58 73.192 165.293 78.9006C165.902 79.6342 166.524 80.3678 167.153 81.0956C169.144 83.399 172.281 84.9765 175.794 85.4949C180.383 86.1691 184.948 86.9516 189.485 87.841C190.161 87.9739 190.587 87.3359 190.062 86.9721C189.615 86.6612 189.172 86.3487 188.729 86.0367C181.536 80.9346 174.37 75.5299 168.487 69.4208C164.581 65.3112 160.48 59.7648 167.846 56.2391C175.498 52.662 182.991 57.4439 184.262 62.7751C186.049 69.7998 190.019 76.4851 194.298 82.9337C194.976 83.9525 195.679 84.9823 196.392 86.0046C198.106 88.4556 200.993 90.3176 204.38 91.172C208.809 92.287 213.205 93.5058 217.563 94.8284C218.218 95.0272 218.712 94.4312 218.236 94.0125C217.642 93.4958 217.053 92.9739 216.46 92.4502C211.355 87.9034 206.35 83.2154 201.793 78.2673C198.518 74.6639 193.302 69.7357 192.581 65.4016C191.886 61.2367 196.11 57.6993 202.175 57.7366C208.236 57.7687 213.549 61.4169 213.891 65.6396C214.653 73.8067 218.614 82.0065 222.646 89.7712C223.367 91.1463 224.112 92.5331 224.876 93.9099C226.287 96.4495 228.907 98.5104 232.088 99.6715C236.311 101.209 240.493 102.847 244.628 104.585C245.256 104.849 245.816 104.308 245.391 103.843C244.701 103.085 244.009 102.321 243.321 101.55C238.399 96.0629 233.593 90.4483 229.276 84.6114C226.258 80.4733 221.441 74.8896 221.104 70.2424C220.781 65.8437 225.5 62.5249 231.8 63.0702C238.138 63.6166 243.386 68.146 243.347 72.6001C243.354 81.456 246.682 90.6425 250.095 99.3916C250.761 101.1 251.465 102.82 252.183 104.53C253.312 107.185 255.65 109.483 258.661 110.955C265.962 114.522 273.095 118.414 280.033 122.627C279.557 123.254 279.081 123.881 278.606 124.508Z" fill="#EDE8DD"/>
<path d="M662.427 23.2373C656.61 21.5573 650.825 20.9594 646.374 21.2491C641.94 21.4667 638.898 22.5759 638.922 22.5159C638.902 22.5747 641.448 23.0601 645.359 24.2986C649.286 25.4783 654.585 27.3677 660.463 28.8729C666.344 30.3786 671.837 30.6602 676.004 30.3515C680.148 30.0825 683.016 29.2301 683 29.2809C683.019 29.2295 680.667 28.8435 676.985 27.7492C673.283 26.707 668.249 24.9184 662.427 23.2373Z" fill="#C3DAEA"/>
<path d="M659.345 11.8362C654.617 15.4455 649.919 18.3259 645.958 20.0746C642.069 21.8648 638.873 22.4817 638.923 22.5164C638.877 22.4812 640.521 20.8335 643.047 17.9883C645.624 15.1887 649.219 11.2036 654.274 7.54123C659.319 3.86728 665.247 1.73712 670 0.824117C674.731 -0.13275 678.297 0.0513638 678.251 0C678.302 0.0496324 675.729 0.948786 672.165 2.99987C668.558 5.00826 664.063 8.21588 659.345 11.8362Z" fill="#C3DAEA"/>
<path d="M634.154 31.1704C627.93 29.6554 621.994 29.4009 617.588 30.049C613.183 30.6163 610.378 32.0822 610.389 32.0124C610.384 32.0805 613.068 32.4446 617.31 33.5706C621.553 34.6302 627.357 36.4066 633.631 37.7374C639.91 39.0683 645.458 39.0561 649.509 38.4369C653.548 37.8673 656.149 36.6899 656.147 36.7488C656.152 36.6882 653.727 36.3898 649.791 35.3678C645.848 34.4074 640.384 32.6853 634.154 31.1704Z" fill="#C3DAEA"/>
<path d="M628.395 18.2491C624.472 22.8309 620.453 26.472 616.887 28.7464C613.406 31.0618 610.33 31.976 610.389 32.0123C610.335 31.9737 611.592 30.0115 613.468 26.592C615.406 23.221 618.116 18.3836 622.418 13.6974C626.708 9.00077 632.24 5.9276 636.81 4.37399C641.354 2.7696 644.934 2.6057 644.88 2.55145C644.94 2.60339 642.524 3.95444 639.358 6.73385C636.141 9.46537 632.304 13.6576 628.395 18.2491Z" fill="#C3DAEA"/>
<path d="M607.707 42.0041C601.011 40.7264 594.91 40.8499 590.57 41.8604C586.214 42.7832 583.695 44.5781 583.69 44.5002C583.701 44.5752 586.537 44.7905 591.151 45.7439C595.75 46.6246 602.126 48.1972 608.858 49.2811C615.597 50.3643 621.22 50.0411 625.146 49.1264C629.076 48.2688 631.373 46.8064 631.388 46.8721C631.376 46.8052 628.857 46.6067 624.616 45.6994C620.382 44.862 614.409 43.2807 607.707 42.0041Z" fill="#C3DAEA"/>
<path d="M598.754 27.9752C595.835 33.4157 592.63 37.7233 589.54 40.4728C586.549 43.2597 583.621 44.4624 583.69 44.4993C583.625 44.4589 584.434 42.2353 585.539 38.3334C586.717 34.4805 588.357 28.9147 591.698 23.3051C595.023 17.6874 599.993 13.7168 604.281 11.544C608.537 9.31456 612.097 8.80033 612.031 8.74435C612.104 8.79745 609.93 10.5813 607.31 14.0354C604.628 17.4404 601.656 22.5272 598.754 27.9752Z" fill="#C3DAEA"/>
<path d="M583.394 55.526C576.181 54.5789 569.918 55.1266 565.672 56.5082C561.388 57.7981 559.201 59.893 559.177 59.8093C559.206 59.8896 562.198 59.9196 567.21 60.6266C572.188 61.2568 579.18 62.5161 586.412 63.2594C593.649 64.001 599.361 63.3402 603.152 62.1369C606.963 60.9971 608.926 59.2911 608.959 59.3609C608.93 59.2894 606.301 59.2109 601.715 58.4774C597.156 57.8171 590.614 56.4713 583.394 55.526Z" fill="#C3DAEA"/>
<path d="M570.818 40.8895C569.085 47.0537 566.816 51.92 564.276 55.0896C561.85 58.2903 559.097 59.7735 559.178 59.8093C559.102 59.7694 559.41 57.3444 559.634 53.0662C559.946 48.8353 560.35 42.6872 562.536 36.2766C564.704 29.8601 568.947 25.0556 572.857 22.2923C576.724 19.4662 580.227 18.5993 580.149 18.5428C580.233 18.5947 578.385 20.7837 576.452 24.8438C574.443 28.8536 572.532 34.7201 570.818 40.8895Z" fill="#C3DAEA"/>
<path d="M561.519 71.5291C553.768 71.024 547.361 72.0555 543.241 73.821C539.062 75.4937 537.251 77.8583 537.206 77.7718C537.255 77.8537 540.397 77.6592 545.814 78.032C551.176 78.3276 558.804 79.1437 566.551 79.4357C574.304 79.7255 580.102 78.686 583.746 77.1969C587.427 75.7747 589.027 73.8678 589.079 73.9376C589.03 73.8649 586.283 73.933 581.329 73.4424C576.423 73.0286 569.277 72.0301 561.519 71.5291Z" fill="#C3DAEA"/>
<path d="M544.988 56.8614C544.6 63.5929 543.373 68.9007 541.451 72.4292C539.658 75.9802 537.115 77.7381 537.208 77.771C537.12 77.7335 536.882 75.174 536.137 70.6378C535.494 66.1455 534.522 59.5802 535.375 52.5128C536.21 45.4419 539.571 39.8796 543.003 36.5611C546.381 33.1752 549.786 31.9511 549.694 31.8957C549.793 31.9447 548.35 34.5031 547.234 39.0843C546.03 43.6164 545.354 50.1281 544.988 56.8614Z" fill="#C3DAEA"/>
<path d="M640.12 22.1943C595.487 34.0623 555.917 56.8885 527 88" stroke="#C6C6C5" stroke-width="0.76897" stroke-miterlimit="10" stroke-linecap="round" stroke-linejoin="round"/>
<path d="M403.416 124.508C410.289 120.333 417.355 116.476 424.588 112.942C427.576 111.481 431.041 111.098 434.053 111.898C435.991 112.416 437.902 112.988 439.752 113.614C449.258 116.785 458.217 121.383 464.49 127.998C467.687 131.299 473.318 132.015 477.142 129.457C480.934 126.908 481.922 122.079 479.044 118.56C476.01 114.834 469.176 112.698 464.219 111.233C457.227 109.123 449.68 107.996 441.928 107.699C440.842 107.655 439.754 107.63 438.668 107.622C438.001 107.617 437.868 106.894 438.492 106.631C442.588 104.909 446.731 103.286 450.915 101.763C454.072 100.611 457.594 100.584 460.491 101.713C462.063 102.323 463.604 102.974 465.097 103.654C473.53 107.483 481.343 112.549 486.41 119.245C489.057 122.692 494.239 123.74 498.235 121.683C502.226 119.622 503.75 115.108 501.391 111.489C498.941 107.717 492.53 105.091 487.982 103.315C481.737 100.833 474.903 99.1898 467.824 98.255C467.005 98.1483 466.187 98.0503 465.365 97.9652C464.703 97.8946 464.655 97.1604 465.305 96.9627C469.623 95.6524 473.979 94.4441 478.366 93.3396C481.728 92.4917 485.314 92.873 488.102 94.3449C489.267 94.9578 490.41 95.5946 491.511 96.2437C498.484 100.346 504.612 105.321 508.719 111.418C511.903 116.012 518.661 118.7 523.361 113.887C528.047 109.193 523.611 104.414 518.941 101.252C512.085 96.5662 503.606 93.3938 494.707 91.3895C494.159 91.2676 493.611 91.1475 493.057 91.0343C492.408 90.9031 492.453 90.1707 493.124 90.0389C497.619 89.1577 502.142 88.3827 506.689 87.7144C510.175 87.2007 513.745 87.9407 516.349 89.7199C517.174 90.2803 517.984 90.8559 518.771 91.4396C524.883 95.9871 529.686 101.128 532.975 107.188C535.613 111.909 542.488 114.324 547.025 109.935C551.554 105.633 547.435 100.983 543.245 97.6975C537.428 93.0847 530.116 89.647 522.356 87.1528C522.078 87.0648 521.794 86.9785 521.514 86.8916C520.875 86.6945 521.008 85.972 521.694 85.9078C526.315 85.4722 530.956 85.1462 535.61 84.9298C539.24 84.759 542.788 85.899 545.186 88.0002C545.681 88.43 546.163 88.865 546.635 89.3018C551.384 93.7064 555.355 98.623 557.499 104.099C559.388 108.741 564.918 112.47 570.403 108.961C582.143 101.866 558.131 88.2638 550.527 85.5958C550.519 85.5929 550.511 85.59 550.503 85.5865C549.888 85.3281 550.107 84.6219 550.807 84.6295C552.517 84.6458 554.227 84.6767 555.938 84.7222C561.67 84.8931 565.211 85.5987 570.537 87.035C574.729 88.2078 579.292 90.5194 589.359 92.3949C597.185 93.8889 603.35 91.4128 603.949 88.5384C604.549 85.6868 599.46 80.9842 591.014 80.2197C580.249 79.2977 575.204 80.9889 570.841 81.4816C565.28 82.1645 561.714 82.5197 555.925 82.4007C554.198 82.3698 552.471 82.3534 550.746 82.3523C550.041 82.3534 549.773 81.6467 550.384 81.3924C550.391 81.3895 550.4 81.3866 550.407 81.3837C556.89 78.0422 585.433 68.5664 573.329 59.7316C567.004 55.2902 559.618 58.5513 557.513 63.104C554.957 68.4469 550.664 73.2014 546.11 77.701C545.655 78.1466 545.197 78.5938 544.729 79.037C542.454 81.2023 539.065 82.5115 535.408 82.6829C530.711 82.901 526.028 83.2305 521.363 83.6702C520.672 83.7361 520.323 83.0614 520.896 82.7477C521.146 82.61 521.403 82.4724 521.654 82.336C528.627 78.4679 535.581 74.314 541.5 69.4371C545.663 65.9632 550.486 61.3219 544.496 57.0811C538.297 52.7559 529.701 55.9294 527.843 60.9871C525.387 67.4147 521.429 73.192 516.717 78.9006C516.109 79.6342 515.487 80.3678 514.858 81.0956C512.868 83.3991 509.731 84.9765 506.219 85.4949C501.63 86.1691 497.065 86.9516 492.528 87.841C491.852 87.9739 491.426 87.3359 491.95 86.9721C492.398 86.6612 492.841 86.3487 493.284 86.0367C500.476 80.9346 507.64 75.5299 513.522 69.4208C517.427 65.3112 521.526 59.7648 514.159 56.2391C506.506 52.662 499.014 57.4439 497.744 62.7751C495.96 69.7998 491.991 76.4851 487.714 82.9337C487.036 83.9525 486.333 84.9823 485.62 86.0046C483.908 88.4556 481.02 90.3176 477.634 91.172C473.206 92.287 468.81 93.5058 464.452 94.8284C463.797 95.0272 463.303 94.4312 463.778 94.0125C464.372 93.4958 464.962 92.9739 465.554 92.4503C470.658 87.9034 475.662 83.2154 480.218 78.2673C483.492 74.6639 488.706 69.7357 489.426 65.4016C490.12 61.2367 485.895 57.6993 479.83 57.7366C473.769 57.7687 468.457 61.4169 468.116 65.6396C467.356 73.8067 463.397 82.0065 459.367 89.7712C458.647 91.1463 457.902 92.5331 457.139 93.9099C455.728 96.4495 453.109 98.5104 449.928 99.6715C445.705 101.209 441.524 102.847 437.389 104.585C436.761 104.849 436.202 104.308 436.625 103.843C437.316 103.085 438.007 102.321 438.695 101.55C443.616 96.0629 448.42 90.4483 452.736 84.6114C455.753 80.4733 460.569 74.8896 460.904 70.2424C461.226 65.8437 456.506 62.5249 450.207 63.0702C443.869 63.6166 438.622 68.146 438.662 72.6001C438.657 81.456 435.331 90.6425 431.921 99.3916C431.256 101.1 430.552 102.82 429.834 104.53C428.706 107.185 426.368 109.483 423.357 110.955C416.057 114.522 408.926 118.414 401.989 122.628C402.464 123.254 402.941 123.881 403.416 124.508Z" fill="#EDE8DD"/>
</svg>
