<!-- Generated by IcoMoon.io -->
<svg version="1.1" xmlns="http://www.w3.org/2000/svg" width="32" height="32" viewBox="0 0 32 32">
<path d="M17.37 2.667c1.5 0.004 2.261 0.012 2.919 0.031l0.259 0.009c0.299 0.011 0.593 0.024 0.949 0.040 1.419 0.067 2.387 0.291 3.236 0.62 0.88 0.339 1.621 0.797 2.363 1.537 0.678 0.666 1.203 1.473 1.537 2.363 0.329 0.849 0.553 1.817 0.62 3.237 0.016 0.355 0.029 0.649 0.040 0.949l0.008 0.259c0.020 0.656 0.028 1.417 0.031 2.917l0.001 0.995v1.747c0.003 0.973-0.007 1.945-0.031 2.917l-0.008 0.259c-0.011 0.3-0.024 0.595-0.040 0.949-0.067 1.42-0.293 2.387-0.621 3.237-0.334 0.89-0.859 1.696-1.537 2.363-0.666 0.678-1.473 1.203-2.363 1.537-0.849 0.329-1.817 0.553-3.236 0.62l-0.949 0.040-0.259 0.008c-0.657 0.019-1.419 0.028-2.919 0.031l-2.74 0.001c-0.973 0.003-1.946-0.007-2.919-0.031l-0.259-0.008c-0.316-0.012-0.633-0.026-0.949-0.041-1.419-0.067-2.387-0.291-3.237-0.62-0.89-0.334-1.695-0.859-2.361-1.537-0.679-0.666-1.204-1.473-1.539-2.363-0.329-0.849-0.553-1.817-0.62-3.237l-0.040-0.949-0.007-0.259c-0.025-0.972-0.036-1.945-0.033-2.917v-2.741c-0.004-0.972 0.006-1.945 0.029-2.917l0.009-0.259c0.011-0.3 0.024-0.595 0.040-0.949 0.067-1.42 0.291-2.387 0.62-3.237 0.336-0.89 0.862-1.697 1.541-2.363 0.666-0.678 1.471-1.203 2.36-1.537 0.851-0.329 1.817-0.553 3.237-0.62 0.355-0.016 0.651-0.029 0.949-0.040l0.259-0.008c0.972-0.024 1.945-0.034 2.917-0.031l2.741-0.001zM16 9.333c-1.768 0-3.464 0.702-4.714 1.953s-1.953 2.946-1.953 4.714 0.702 3.464 1.953 4.714c1.25 1.25 2.946 1.953 4.714 1.953s3.464-0.702 4.714-1.953c1.25-1.25 1.953-2.946 1.953-4.714s-0.702-3.464-1.953-4.714c-1.25-1.25-2.946-1.953-4.714-1.953zM16 12c0.525-0 1.045 0.103 1.531 0.304s0.926 0.495 1.298 0.867c0.372 0.371 0.666 0.812 0.867 1.297s0.305 1.005 0.305 1.531c0 0.525-0.103 1.046-0.304 1.531s-0.495 0.926-0.867 1.298c-0.371 0.372-0.812 0.666-1.297 0.867s-1.006 0.305-1.531 0.305c-1.061 0-2.078-0.422-2.828-1.172s-1.172-1.768-1.172-2.828c0-1.061 0.421-2.078 1.172-2.828s1.768-1.172 2.828-1.172zM23.001 7.333c-0.442 0-0.866 0.176-1.178 0.488s-0.488 0.737-0.488 1.179c0 0.442 0.176 0.866 0.488 1.178s0.736 0.488 1.178 0.488c0.442 0 0.866-0.176 1.178-0.488s0.488-0.736 0.488-1.178c0-0.442-0.176-0.866-0.488-1.178s-0.736-0.488-1.178-0.488z"></path>
</svg>
