<!-- Generated by IcoMoon.io -->
<svg version="1.1" xmlns="http://www.w3.org/2000/svg" width="32" height="32" viewBox="0 0 32 32">
<path d="M24.4 7.613c-0.123-0.124-0.27-0.222-0.431-0.289s-0.334-0.101-0.509-0.101c-0.175 0-0.348 0.034-0.509 0.101s-0.308 0.165-0.431 0.289l-6.52 6.507-6.52-6.52c-0.123-0.123-0.27-0.221-0.431-0.288s-0.334-0.101-0.509-0.101c-0.175 0-0.347 0.034-0.509 0.101s-0.308 0.165-0.431 0.288c-0.123 0.123-0.221 0.27-0.288 0.431s-0.101 0.334-0.101 0.509c0 0.175 0.034 0.347 0.101 0.509s0.165 0.308 0.288 0.431l6.52 6.52-6.52 6.52c-0.123 0.123-0.221 0.27-0.288 0.431s-0.101 0.334-0.101 0.509c0 0.175 0.034 0.347 0.101 0.509s0.165 0.308 0.288 0.431c0.123 0.123 0.27 0.221 0.431 0.288s0.334 0.101 0.509 0.101c0.175 0 0.347-0.034 0.509-0.101s0.308-0.165 0.431-0.288l6.52-6.52 6.52 6.52c0.123 0.123 0.27 0.221 0.431 0.288s0.334 0.101 0.509 0.101c0.175 0 0.347-0.034 0.509-0.101s0.308-0.165 0.431-0.288c0.123-0.123 0.221-0.27 0.288-0.431s0.101-0.334 0.101-0.509c0-0.175-0.034-0.347-0.101-0.509s-0.165-0.308-0.288-0.431l-6.52-6.52 6.52-6.52c0.507-0.507 0.507-1.36 0-1.867z"></path>
</svg>
