<svg width="376" height="9" viewBox="0 0 376 9" fill="none" xmlns="http://www.w3.org/2000/svg">
<path d="M0.5 7.9999C0.5 7.9999 13.4843 0.939447 22.5 0.999898C31.3299 1.0591 35.172 8.19341 44 7.9999C52.2731 7.81855 55.7252 0.933925 64 0.999898C72.0908 1.0644 77.2154 2.90401 83.5 7.9999" stroke="#538FE9" stroke-width="2"/>
<path d="M83 8.00039C83 8.00039 95.9843 0.939936 105 1.00039C113.83 1.05959 117.672 8.1939 126.5 8.00039C134.773 7.81903 138.225 0.934414 146.5 1.00039C154.591 1.06489 159.715 2.9045 166 8.00039" stroke="#538FE9" stroke-width="2"/>
<path d="M166 8.00039C166 8.00039 178.984 0.939936 188 1.00039C196.83 1.05959 200.672 8.1939 209.5 8.00039C217.773 7.81903 221.225 0.934414 229.5 1.00039C237.591 1.06489 242.715 2.9045 249 8.00039" stroke="#538FE9" stroke-width="2"/>
<path d="M249 8.00039C249 8.00039 261.984 0.939936 271 1.00039C279.83 1.05959 283.672 8.1939 292.5 8.00039C300.773 7.81903 304.225 0.934414 312.5 1.00039C320.591 1.06489 325.715 2.9045 332 8.00039" stroke="#538FE9" stroke-width="2"/>
<path d="M332 8.00039C332 8.00039 344.984 0.939936 354 1.00039C362.83 1.05959 366.672 8.1939 375.5 8.00039" stroke="#538FE9" stroke-width="2"/>
</svg>

