<svg width="196" height="196" viewBox="0 0 196 196" fill="none" xmlns="http://www.w3.org/2000/svg">
<g clip-path="url(#clip0_696_790)">
<path d="M77.5116 92.717L78.4696 91.6719L31.8755 67.9829L77.5116 92.717Z" fill="#EDEDED"/>
<path d="M32.5725 40.4183C32.529 40.3748 32.4855 40.3312 32.3984 40.2877C32.5725 40.1135 32.6596 39.9393 32.7467 39.7651C32.8338 39.591 32.7903 39.4603 32.6596 39.3297C32.6161 39.2861 32.529 39.2426 32.4854 39.199C32.3984 39.1555 32.3548 39.1555 32.2677 39.112C30.9178 38.7636 29.5679 38.4588 28.1744 38.1539C28.7405 39.4603 29.3501 40.7667 29.9598 42.0295C30.0033 42.1166 30.0469 42.1602 30.0904 42.2037C30.134 42.2473 30.134 42.2908 30.134 42.2908C30.2646 42.3779 30.3952 42.4214 30.5259 42.3343C30.6565 42.2473 30.7872 42.1166 30.9613 41.8989C31.0049 41.9424 31.0484 41.986 31.1355 42.0295C30.5694 42.6827 30.0033 43.3794 29.4808 44.0762C29.4372 44.0326 29.3501 43.9891 29.3066 43.9455C29.4372 43.7714 29.5243 43.5536 29.5679 43.2488C29.6114 42.944 29.5679 42.7263 29.4372 42.465C28.4792 40.4619 27.5648 38.4588 26.6938 36.4121C28.9582 36.8911 31.1791 37.4137 33.3999 38.0233C33.6612 38.1104 33.8789 38.1104 34.0966 38.0669C34.3144 38.0233 34.5321 37.9362 34.7498 37.762C34.7934 37.8056 34.8369 37.8491 34.924 37.8927C34.0966 38.7636 33.3128 39.591 32.5725 40.4183Z" fill="#EDEDED"/>
<path d="M43.0234 29.4882C43.1105 29.6188 43.2411 29.6623 43.3282 29.7059C43.4153 29.7494 43.546 29.7494 43.633 29.7059C43.7201 29.6623 43.8508 29.6188 43.9379 29.5753C44.025 29.5317 44.1556 29.4446 44.2427 29.4011C44.2862 29.4446 44.3298 29.5317 44.3733 29.5753C43.5024 30.2284 42.6315 30.9252 41.7606 31.6219C41.717 31.5784 41.6735 31.4913 41.6299 31.4477C41.717 31.3606 41.8041 31.2735 41.8912 31.1429C41.9783 31.0558 42.0654 30.9687 42.1089 30.8816C42.1525 30.7945 42.196 30.7074 42.196 30.6203C42.196 30.5333 42.1525 30.4026 42.0218 30.272C40.9332 29.0092 39.8881 27.7028 38.7995 26.4399C38.6253 26.2222 38.4075 26.1351 38.1463 26.2222C37.885 26.3093 37.6237 26.4399 37.2318 26.6577C37.1883 26.6141 37.1447 26.527 37.0576 26.4835C38.8865 24.9594 40.8026 23.5224 42.7621 22.1289C43.154 22.5644 43.5895 22.9998 43.9814 23.4353C43.8943 23.4788 43.8072 23.5659 43.7201 23.6095C43.5024 23.4353 43.2847 23.3046 43.1105 23.2176C42.9363 23.1305 42.7621 23.1305 42.5879 23.1305C42.4138 23.174 42.196 23.2176 42.0218 23.3482C41.8041 23.4788 41.5864 23.653 41.2816 23.8272C40.6719 24.2627 40.1058 24.6981 39.4962 25.1771C40.0187 25.8739 42.5009 28.835 43.0234 29.4882Z" fill="#EDEDED"/>
<path d="M53.126 23.3479C52.255 23.8705 51.4277 24.3931 50.5568 24.9591C50.339 24.5237 50.1213 24.1318 49.9036 23.6963C50.0778 23.5221 50.2084 23.3044 50.2955 23.0867C50.3826 22.8689 50.4261 22.6077 50.4261 22.3028C50.4261 22.0416 50.3826 21.7803 50.339 21.4755C50.2955 21.1707 50.1648 20.9529 50.0342 20.6917C49.9036 20.4304 49.7294 20.2126 49.5117 20.0385C49.2939 19.8643 49.0762 19.6901 48.8149 19.603C48.5536 19.5159 48.2488 19.5159 47.944 19.5159C47.6392 19.5159 47.2908 19.6901 46.9424 19.9514C46.5941 20.1691 46.3328 20.4304 46.1586 20.7352C45.9844 20.9965 45.8538 21.3013 45.8103 21.6061C45.7667 21.9109 45.7667 22.1722 45.8538 22.477C45.9409 22.7819 46.0715 23.0431 46.2022 23.3044C46.3328 23.4786 46.507 23.6963 46.6812 23.8705C46.8554 24.0447 47.0731 24.1753 47.3344 24.306C47.5956 24.4366 47.8134 24.4801 48.0746 24.5237C48.3359 24.5672 48.5972 24.5237 48.8149 24.4801C49.0762 24.8721 49.3375 25.264 49.5987 25.6559C48.7714 26.222 47.9876 26.7881 47.2037 27.3542C46.9425 26.9187 46.6376 26.5268 46.3764 26.0913C46.4634 26.0478 46.507 26.0042 46.5941 25.9607C46.7247 26.0913 46.8989 26.1784 47.0731 26.2655C47.2473 26.3526 47.4215 26.3091 47.5521 26.222C47.944 25.9172 48.3795 25.6559 48.7714 25.3511C48.6843 25.264 48.6407 25.1333 48.5972 25.0462C48.2924 25.1769 47.9876 25.264 47.6392 25.264C47.2908 25.264 46.986 25.264 46.6812 25.1769C46.3764 25.0898 46.1151 24.9591 45.8538 24.785C45.5925 24.6108 45.3748 24.3931 45.2006 24.1318C45.0264 23.827 44.8522 23.5221 44.8087 23.1302C44.7216 22.7819 44.7652 22.3899 44.8522 21.998C44.9393 21.6061 45.1571 21.2142 45.4619 20.8223C45.7667 20.4304 46.1586 20.0385 46.6812 19.6901C47.2037 19.3417 47.7263 19.0805 48.2053 18.9934C48.6843 18.9063 49.0762 18.8627 49.4681 18.9498C49.8165 19.0369 50.1648 19.1675 50.4261 19.4288C50.6874 19.6465 50.9487 19.9514 51.1229 20.2562C51.2535 20.5175 51.3841 20.7787 51.4277 21.0836C51.4712 21.3884 51.4712 21.6932 51.4277 21.998C51.3841 22.3028 51.297 22.6077 51.1229 22.956C50.9922 23.2609 50.7745 23.5657 50.5132 23.827C50.5568 23.914 50.6439 24.0447 50.6874 24.1318C51.1229 23.827 51.5583 23.5657 51.9938 23.3044C52.168 23.2173 52.255 23.0431 52.255 22.8689C52.255 22.6948 52.2115 22.477 52.168 22.3028C52.255 22.2593 52.2986 22.2158 52.3857 22.1722C52.6034 22.477 52.8647 22.9125 53.126 23.3479Z" fill="#EDEDED"/>
<path d="M63.5332 17.9919C63.4897 17.9048 63.4897 17.8613 63.4461 17.7742C63.838 17.6 64.0993 17.4258 64.1864 17.2516C64.2735 17.0774 64.2735 16.9032 64.1864 16.7291C63.5768 15.292 62.9236 13.855 62.2704 12.3745C62.1833 12.1567 62.0962 11.9826 61.9656 11.8955C61.8785 11.7648 61.7478 11.7213 61.6607 11.6777C61.5301 11.6342 61.3995 11.6342 61.2688 11.6777C61.1382 11.7213 60.964 11.7648 60.7463 11.8519C60.7027 11.7648 60.6592 11.7213 60.6592 11.6342C61.7914 11.1552 62.9671 10.6762 64.1428 10.2407C64.1864 10.3278 64.1864 10.4149 64.2299 10.4585C63.9687 10.5891 63.7945 10.6762 63.6638 10.8068C63.5332 10.9375 63.4461 10.981 63.4026 11.1116C63.359 11.2423 63.359 11.3294 63.359 11.46C63.359 11.5906 63.4461 11.7213 63.5332 11.939C64.1429 13.4196 64.7525 14.8566 65.3621 16.3371C65.5363 16.7291 65.9718 16.8161 66.6685 16.5549C66.7121 16.642 66.7121 16.6855 66.7556 16.7726C65.667 17.0774 64.5783 17.5129 63.5332 17.9919Z" fill="#EDEDED"/>
<path d="M75.3782 7.88921C75.2911 7.58439 75.1604 7.4102 74.9427 7.27957C74.725 7.19247 74.4637 7.19247 74.1153 7.27957C74.0718 7.19247 74.0718 7.10538 74.0718 7.06184C75.204 6.75702 76.3362 6.49574 77.4684 6.23447C77.4684 6.32156 77.5119 6.40865 77.5119 6.49574C77.0764 6.58283 76.8152 6.75702 76.7716 6.9312C76.7281 7.23602 76.7281 7.45375 76.8152 7.67148C76.9894 8.28112 77.12 8.93431 77.2942 9.54395C78.4699 9.28268 79.6456 9.0214 80.8214 8.80367C80.6907 8.15048 80.5601 7.54084 80.4295 6.88765C80.3859 6.58283 80.2117 6.3651 79.9505 6.23447C79.6892 6.10383 79.4279 6.10383 79.1666 6.14737C79.1666 6.06028 79.1231 5.97319 79.1231 5.8861C80.2553 5.66837 81.3875 5.45064 82.5632 5.23291C82.5632 5.32 82.6068 5.40709 82.6068 5.49419C82.2584 5.53773 81.9971 5.66837 81.91 5.8861C81.8229 6.10383 81.7794 6.3651 81.8665 6.75702C82.1278 8.15048 82.389 9.54395 82.6503 10.9374C82.6939 11.0681 82.6939 11.1987 82.7374 11.3293C82.7809 11.46 82.8245 11.5471 82.9116 11.6342C82.9987 11.7212 83.0858 11.7648 83.26 11.8083C83.3906 11.8519 83.5648 11.8519 83.826 11.8083C83.826 11.8954 83.8696 11.939 83.8696 12.0261C82.781 12.2003 81.6923 12.418 80.6037 12.6357C80.6037 12.5486 80.5601 12.5051 80.5601 12.418C80.7778 12.3744 80.952 12.2873 81.0827 12.2438C81.2133 12.2003 81.3004 12.0696 81.3439 11.9825C81.3875 11.8954 81.431 11.7648 81.3875 11.6342C81.3875 11.5035 81.3439 11.3293 81.3004 11.1551C81.1698 10.5455 81.0391 9.93586 80.9085 9.32622C79.7327 9.54395 78.557 9.80523 77.3813 10.0665C77.5554 10.7632 77.7296 11.46 77.9038 12.2003C77.9474 12.3309 77.9909 12.4615 78.0345 12.5486C78.078 12.6357 78.1215 12.7228 78.2086 12.7228C78.2957 12.7663 78.3828 12.7663 78.557 12.7663C78.6876 12.7663 78.9054 12.7663 79.1231 12.7228C79.1231 12.8099 79.1666 12.8534 79.1666 12.9405C78.078 13.1583 77.0329 13.4195 75.9443 13.7244C75.9007 13.6373 75.9007 13.5937 75.9007 13.5066C76.1184 13.4195 76.2926 13.376 76.3797 13.2889C76.5103 13.2018 76.5974 13.1147 76.641 13.0276C76.6845 12.9405 76.7281 12.8534 76.6845 12.7228C76.641 12.5922 76.641 12.5051 76.5974 12.3309C76.2055 10.8939 75.7701 9.41331 75.3782 7.88921Z" fill="#EDEDED"/>
<path d="M41.2378 31.7959C40.9765 31.9701 40.7588 32.0572 40.541 32.0572C40.3233 32.0572 40.1056 32.0137 39.8443 31.9266C37.7105 31.0992 35.5768 30.3154 33.356 29.6187C34.0091 31.7524 34.7494 33.8426 35.4897 35.8893C35.6203 36.1505 35.6203 36.3683 35.5768 36.6731C35.4897 36.9344 35.4026 37.1521 35.2284 37.3263C35.272 37.3698 35.3155 37.4134 35.3591 37.4569C35.9687 36.8473 36.5784 36.2376 37.2315 35.628C37.188 35.5844 37.1444 35.5409 37.1009 35.4973C36.9267 35.6715 36.7525 35.8022 36.6219 35.8457C36.4913 35.9328 36.3606 35.8893 36.23 35.7586C36.23 35.7586 36.1864 35.7151 36.1864 35.6715C36.1429 35.628 36.1429 35.5844 36.0993 35.4973C35.9687 35.1054 35.8381 34.7135 35.7074 34.3216L37.6235 32.4927C37.9718 32.6233 38.3202 32.754 38.6686 32.841C38.7556 32.8846 38.7992 32.9281 38.8863 32.9281C38.9734 32.9717 39.0169 33.0152 39.0605 33.0588C39.1911 33.1894 39.1911 33.3636 39.104 33.4942C39.0169 33.6684 38.8863 33.7991 38.7121 33.9732C38.7556 34.0168 38.7992 34.0603 38.8427 34.1474C39.6701 33.4071 40.4975 32.6669 41.3684 31.9701C41.3249 31.9266 41.2813 31.8395 41.2378 31.7959ZM36.8396 32.1879L35.4462 33.5813C35.1849 32.8846 34.9236 32.1879 34.7059 31.4476C35.4462 31.6653 36.1429 31.9266 36.8396 32.1879Z" fill="#EDEDED"/>
<path d="M62.8369 17.9921C62.5756 18.0792 62.3143 18.0792 62.1402 18.0357C61.9224 17.9486 61.7482 17.8615 61.5305 17.6437C61.487 17.6002 61.4434 17.5566 61.3563 17.4696C61.2692 17.3825 61.1821 17.2954 61.0515 17.2083L60.2241 16.4245L59.4839 16.8599L59.3097 16.947L54.8244 14.6826L54.868 15.031C54.9115 16.3809 55.0422 18.9937 55.0857 19.4291L54.9986 19.4727L54.3019 19.8646L54.4761 21.6064C54.5196 21.8241 54.4761 22.0854 54.389 22.2596C54.3019 22.4773 54.1713 22.608 53.9971 22.6951C54.0406 22.7386 54.0406 22.8257 54.0842 22.8692C54.6503 22.5209 55.2164 22.1725 55.7825 21.8241C55.7389 21.7806 55.7389 21.6935 55.6954 21.65C55.5212 21.7371 55.3905 21.8241 55.2599 21.8241C55.1728 21.8241 55.0857 21.7806 54.9986 21.65C54.9986 21.65 54.9986 21.6064 54.9986 21.5629C54.9986 21.5193 54.9551 21.4322 54.9551 21.3887C54.9551 21.1274 54.9115 20.8661 54.9115 20.6049V20.4742C55.2599 20.2565 58.8742 18.1227 59.658 17.6873C59.7887 17.8179 59.9193 17.905 60.0499 18.0357C60.0935 18.0357 60.0935 18.0792 60.137 18.1227C60.1806 18.2098 60.2677 18.2534 60.3112 18.2969C60.3548 18.3405 60.3983 18.4276 60.4419 18.5147C60.529 18.7324 60.529 18.863 60.3983 19.0372C60.2677 19.1678 60.0935 19.2985 59.9193 19.4291C59.9629 19.5162 60.0064 19.6033 60.0064 19.6468C60.9644 19.1243 61.9224 18.6017 62.924 18.1227C62.8804 18.1227 62.8369 18.0792 62.8369 17.9921ZM57.2195 18.2534L56.5663 18.6453L55.826 19.0808L55.6083 19.2114C55.6083 18.9501 55.5212 16.9035 55.4776 16.4245C55.5212 16.468 55.5647 16.468 55.6518 16.5115L58.0468 17.7744L57.2195 18.2534Z" fill="#EDEDED"/>
<path d="M74.2458 13.7679C74.1151 13.7679 73.9845 13.7244 73.8974 13.6809C73.8103 13.6373 73.7232 13.5502 73.6797 13.4196C73.6361 13.2889 73.5926 13.2018 73.5055 13.0712L72.1991 9.15208L71.8072 7.97634L71.7636 7.8457L70.8056 8.15052L70.675 8.58598L69.0202 14.0728L67.8445 10.502C67.801 10.3278 67.7574 10.1536 67.7139 10.023C67.6703 9.89236 67.6703 9.76172 67.7139 9.67463C67.7574 9.58754 67.801 9.4569 67.9316 9.41335C68.0187 9.32626 68.1929 9.23917 68.4106 9.19563L68.3235 8.9779L65.3188 9.97945L65.4059 10.1972C65.6237 10.1536 65.7979 10.1101 65.9285 10.1536C66.0591 10.1972 66.1898 10.1972 66.2769 10.2407C66.364 10.2843 66.451 10.3714 66.4946 10.502C66.5381 10.6326 66.5817 10.7197 66.6688 10.8504L68.4106 16.0759H68.4542L69.4993 15.7275L69.5428 15.5533L71.1975 10.0665L72.3297 13.4196C72.3733 13.5938 72.4168 13.7679 72.4604 13.8986C72.5039 14.0292 72.5039 14.1599 72.4604 14.2469C72.4168 14.334 72.3733 14.4647 72.2426 14.5082C72.1556 14.5953 71.9814 14.6824 71.7636 14.726L71.8507 14.9437L74.8554 13.9421L74.7683 13.7244C74.5506 13.7679 74.3764 13.7679 74.2458 13.7679Z" fill="#EDEDED"/>
<path d="M69.4559 7.6281C69.3688 7.75874 69.2382 7.88937 69.064 7.93292C68.8898 7.97646 68.7156 7.97646 68.5414 7.93292C68.3672 7.88937 68.2802 7.75874 68.2366 7.58455C68.1931 7.41037 68.1931 7.27973 68.2802 7.10555C68.3672 6.93136 68.4979 6.84427 68.6721 6.80073C68.8463 6.75718 69.0204 6.75718 69.1946 6.80073C69.3688 6.88782 69.4559 6.97491 69.4994 7.14909C69.543 7.32328 69.543 7.49746 69.4559 7.6281Z" fill="#EDEDED"/>
<path d="M91.7947 10.6326C91.6205 10.502 91.4463 10.3278 91.3157 10.1536C90.14 8.23762 88.8771 6.36515 87.5708 4.49268C86.8305 6.58288 86.1338 8.67308 85.5241 10.8068C85.4806 11.0681 85.3499 11.2858 85.1322 11.46C84.9145 11.6342 84.6967 11.7213 84.479 11.7648C84.479 11.8519 84.5226 11.8955 84.5226 11.9826C85.3499 11.8519 86.2208 11.7213 87.0918 11.5907C87.0918 11.5036 87.0918 11.46 87.0482 11.3729C86.7869 11.4165 86.6128 11.4165 86.4386 11.3729C86.3079 11.3294 86.2208 11.2423 86.1773 11.1116C86.1773 11.1116 86.1773 11.0681 86.1773 11.0246C86.1773 10.981 86.2208 10.8939 86.2208 10.8068C86.3515 10.4149 86.4821 9.97946 86.6128 9.58754L89.269 9.32627C89.4432 9.58754 89.661 9.89236 89.8351 10.1536C89.8787 10.2407 89.8787 10.2843 89.9222 10.3714C89.9658 10.4585 89.9658 10.502 89.9658 10.5891C89.9658 10.7633 89.9222 10.9375 89.7481 10.981C89.5739 11.0681 89.3561 11.1116 89.1384 11.1116C89.1384 11.1987 89.1384 11.2423 89.182 11.3294C90.2706 11.1987 91.3593 11.1116 92.4914 11.0246C92.4914 10.9375 92.4914 10.8939 92.4914 10.8068C92.1866 10.8068 91.9689 10.7633 91.7947 10.6326ZM88.8336 8.67308L86.8305 8.84726C87.0482 8.15053 87.2659 7.4538 87.5272 6.71352C87.9627 7.3667 88.3981 8.01989 88.8336 8.67308Z" fill="#EDEDED"/>
<path d="M107.384 11.5906C106.339 11.46 105.294 11.3293 104.292 11.2422C104.336 10.7632 104.423 10.2407 104.51 9.76168C104.771 9.71813 104.989 9.63104 105.207 9.5004C105.425 9.36977 105.599 9.15204 105.773 8.93431C105.947 8.71658 106.078 8.4553 106.165 8.19403C106.252 7.93275 106.339 7.62793 106.383 7.32311C106.426 7.01829 106.383 6.71347 106.339 6.40865C106.295 6.10382 106.165 5.84255 105.991 5.58127C105.816 5.32 105.599 5.10227 105.294 4.97163C104.989 4.79745 104.641 4.71036 104.205 4.66681C103.77 4.62326 103.421 4.66681 103.073 4.79745C102.768 4.92809 102.507 5.05872 102.289 5.27645C102.071 5.49418 101.941 5.75546 101.81 6.06028C101.723 6.3651 101.636 6.66992 101.636 7.01829C101.636 7.27956 101.636 7.54084 101.723 7.80211C101.81 8.06339 101.897 8.32466 101.984 8.58594C102.071 8.84721 102.289 9.06494 102.463 9.23913C102.638 9.41331 102.899 9.58749 103.117 9.67459C103.117 10.1536 103.117 10.6761 103.117 11.1987C102.115 11.1116 101.113 11.0681 100.068 11.0245C100.068 10.502 100.112 9.93586 100.112 9.41331C100.199 9.41331 100.286 9.41331 100.373 9.41331C100.417 9.63104 100.46 9.80522 100.591 9.97941C100.722 10.1536 100.852 10.2407 101.026 10.2407C101.549 10.2407 102.071 10.2842 102.594 10.3278C102.594 10.1971 102.594 10.0665 102.638 9.93586C102.289 9.84877 101.984 9.71813 101.68 9.5004C101.375 9.28267 101.157 9.06494 100.939 8.76012C100.722 8.49885 100.591 8.19403 100.46 7.84566C100.33 7.49729 100.286 7.19247 100.286 6.88765C100.286 6.49574 100.373 6.14737 100.547 5.799C100.722 5.45064 100.939 5.14581 101.244 4.88454C101.549 4.62326 101.984 4.40553 102.463 4.2749C102.942 4.14426 103.508 4.10071 104.205 4.14426C104.858 4.18781 105.468 4.31844 105.904 4.53617C106.383 4.7539 106.731 5.01518 106.992 5.32C107.253 5.62482 107.428 5.97319 107.515 6.3651C107.602 6.75701 107.645 7.14893 107.602 7.49729C107.558 7.80211 107.471 8.10694 107.341 8.41176C107.21 8.71658 107.036 8.93431 106.818 9.19558C106.6 9.41331 106.339 9.63104 105.991 9.80522C105.686 9.97941 105.337 10.0665 104.945 10.1536C104.945 10.2842 104.902 10.4149 104.902 10.5455C105.425 10.589 105.991 10.6326 106.513 10.7197C106.731 10.7632 106.862 10.6761 106.992 10.502C107.079 10.3278 107.21 10.1536 107.253 9.97941C107.341 9.97941 107.428 9.97941 107.515 10.023C107.471 10.502 107.428 11.0245 107.384 11.5906Z" fill="#EDEDED"/>
<path d="M114.787 8.45553C114.613 8.67326 114.439 8.80389 114.221 8.93453C114.003 9.06517 113.742 9.15226 113.481 9.19581C113.219 9.23935 112.915 9.2829 112.61 9.2829C112.305 9.2829 112 9.23935 111.652 9.23935C111.303 9.19581 110.911 9.15226 110.52 9.10872C110.432 9.71836 110.345 10.328 110.215 10.9376C110.171 11.1554 110.171 11.286 110.215 11.4166C110.258 11.5037 110.302 11.6344 110.389 11.6779C110.432 11.6779 110.476 11.7215 110.52 11.765C110.607 11.8086 110.65 11.8086 110.737 11.8521C110.824 11.8521 110.911 11.8957 110.955 11.8957C111.042 11.8957 111.086 11.9392 111.086 11.9392C111.086 12.0263 111.042 12.0698 111.042 12.1569C109.997 11.9827 108.908 11.8521 107.863 11.7215C107.863 11.6344 107.907 11.5908 107.907 11.5037C108.168 11.5037 108.386 11.4602 108.647 11.4602C108.734 11.4166 108.821 11.3731 108.908 11.286C108.995 11.1989 109.039 11.0247 109.039 10.8506C109.257 9.2829 109.518 7.71525 109.736 6.1476C109.779 5.88632 109.736 5.66859 109.605 5.49441C109.474 5.32022 109.213 5.18959 108.778 5.14604C108.778 5.05895 108.821 4.97186 108.821 4.88477C109.866 5.0154 110.911 5.14604 111.957 5.32022C112.653 5.40732 113.176 5.5815 113.611 5.79923C114.047 6.01696 114.352 6.23469 114.569 6.45242C114.787 6.71369 114.918 6.93142 115.005 7.1927C115.048 7.45397 115.048 7.6717 115.005 7.88943C115.048 8.02007 114.961 8.2378 114.787 8.45553ZM113.916 7.45397C113.96 7.1927 113.916 6.97497 113.786 6.75724C113.655 6.53951 113.481 6.36533 113.263 6.19114C113.045 6.01696 112.784 5.88632 112.523 5.79923C112.261 5.71214 112 5.62505 111.782 5.5815C111.608 5.53795 111.434 5.53795 111.303 5.53795C111.173 5.53795 111.086 5.5815 111.086 5.62505C110.911 6.58305 110.781 7.54106 110.607 8.54262C111.086 8.62971 111.521 8.67326 111.869 8.67326C112.218 8.67326 112.566 8.67326 112.828 8.58616C113.089 8.49907 113.307 8.41198 113.481 8.19425C113.655 7.97652 113.829 7.84589 113.916 7.45397Z" fill="#EDEDED"/>
<path d="M117.051 12.3309C117.008 12.5051 117.008 12.5922 117.051 12.7228C117.095 12.8099 117.138 12.897 117.226 12.9406C117.313 12.9841 117.4 13.0712 117.53 13.1148C117.661 13.1583 117.748 13.2018 117.879 13.2454C117.879 13.3325 117.835 13.376 117.835 13.4631C116.747 13.2018 115.701 12.9841 114.613 12.7664C114.613 12.6793 114.656 12.6358 114.656 12.5487C114.787 12.5487 114.918 12.5487 115.048 12.5487C115.179 12.5487 115.266 12.5487 115.397 12.5487C115.484 12.5487 115.571 12.5051 115.658 12.418C115.745 12.3745 115.789 12.2438 115.832 12.0697C116.224 10.4585 116.572 8.80372 116.964 7.19252C117.008 6.93124 116.964 6.71351 116.747 6.58288C116.529 6.45224 116.268 6.3216 115.832 6.19096C115.832 6.10387 115.876 6.01678 115.876 5.92969C118.227 6.40869 120.535 6.93124 122.843 7.54089C122.756 8.15053 122.625 8.71662 122.495 9.32627C122.408 9.28272 122.32 9.28272 122.233 9.23917C122.233 8.93435 122.233 8.71662 122.19 8.54244C122.146 8.36826 122.059 8.19407 121.928 8.10698C121.798 7.97634 121.624 7.88925 121.406 7.80216C121.188 7.71507 120.883 7.62798 120.579 7.54089C119.882 7.3667 119.142 7.19252 118.401 7.01833C118.184 7.75861 117.269 11.5036 117.051 12.3309Z" fill="#EDEDED"/>
<path d="M131.509 11.5908C131.639 11.286 131.639 11.0683 131.509 10.8505C131.378 10.6764 131.16 10.5022 130.855 10.3715C130.899 10.2844 130.899 10.1974 130.942 10.1538C132.031 10.5457 133.12 10.9812 134.165 11.4166C134.121 11.5037 134.078 11.5473 134.078 11.6344C133.642 11.4602 133.381 11.4166 133.207 11.5473C132.989 11.765 132.858 11.9827 132.771 12.1569C132.51 12.7666 132.249 13.3327 131.988 13.9423C133.12 14.3778 134.208 14.8568 135.297 15.3793C135.558 14.8132 135.863 14.2036 136.168 13.6375C136.299 13.3762 136.299 13.1149 136.168 12.8537C136.037 12.6359 135.863 12.4182 135.602 12.3311C135.645 12.244 135.689 12.2005 135.689 12.1134C136.734 12.5924 137.823 13.0714 138.868 13.5939C138.824 13.681 138.781 13.7246 138.737 13.8117C138.389 13.6375 138.127 13.6375 137.91 13.7246C137.692 13.8117 137.474 14.0729 137.344 14.3778C136.69 15.6406 136.037 16.947 135.384 18.2098C135.341 18.3404 135.253 18.4711 135.21 18.6017C135.166 18.7323 135.166 18.8194 135.21 18.9501C135.21 19.0372 135.297 19.1678 135.384 19.2549C135.471 19.342 135.602 19.4726 135.82 19.6033C135.776 19.6904 135.732 19.7339 135.732 19.821C134.731 19.342 133.729 18.863 132.728 18.4275C132.771 18.3404 132.771 18.2969 132.815 18.2098C133.033 18.2969 133.207 18.3404 133.337 18.3404C133.468 18.3404 133.599 18.3404 133.686 18.2969C133.773 18.2533 133.904 18.1663 133.947 18.0356C134.034 17.905 134.121 17.7743 134.208 17.6002C134.47 17.0341 134.731 16.468 135.036 15.9019C133.947 15.4229 132.858 14.9439 131.726 14.5084C131.421 15.1616 131.16 15.8583 130.855 16.5115C130.812 16.6421 130.768 16.7728 130.725 16.8599C130.681 16.947 130.725 17.0341 130.768 17.1211C130.812 17.2082 130.899 17.2953 130.986 17.3824C131.117 17.4695 131.247 17.5566 131.465 17.6872C131.421 17.7743 131.421 17.8179 131.378 17.905C130.376 17.4695 129.331 17.0776 128.286 16.6857C128.33 16.5986 128.33 16.5551 128.373 16.468C128.591 16.5551 128.765 16.5551 128.896 16.5986C129.026 16.5986 129.157 16.5986 129.244 16.5551C129.331 16.5115 129.418 16.468 129.462 16.3373C129.505 16.2502 129.593 16.1196 129.636 15.989C130.289 14.4648 130.899 13.0278 131.509 11.5908Z" fill="#EDEDED"/>
<path d="M136.429 20.0824C136.473 19.9953 136.516 19.9518 136.516 19.8647C136.908 20.0824 137.213 20.1695 137.387 20.126C137.561 20.0824 137.692 19.9953 137.823 19.7776C138.563 18.3842 139.347 16.9907 140.087 15.5972C140.218 15.3795 140.261 15.2053 140.305 15.0747C140.348 14.944 140.348 14.8134 140.261 14.6828C140.218 14.5957 140.131 14.465 140 14.3779C139.869 14.2908 139.739 14.2037 139.521 14.1167C139.564 14.0296 139.608 13.986 139.652 13.8989C140.784 14.465 141.872 15.0311 142.961 15.6408C142.918 15.7279 142.874 15.7714 142.83 15.8585C142.569 15.7714 142.351 15.6843 142.221 15.6408C142.047 15.5972 141.916 15.5972 141.829 15.5972C141.698 15.6408 141.611 15.6843 141.524 15.7714C141.437 15.8585 141.35 15.9891 141.263 16.2069C140.479 17.6003 139.695 18.9502 138.911 20.3437C138.694 20.7356 138.911 21.084 139.564 21.4759C139.521 21.563 139.477 21.6065 139.434 21.6936C138.476 21.1275 137.474 20.605 136.429 20.0824Z" fill="#EDEDED"/>
<path d="M141.481 20.2999C141.437 20.4741 141.394 20.6483 141.35 20.8225C141.307 20.9966 141.307 21.1708 141.35 21.3015C141.394 21.4756 141.437 21.6063 141.568 21.7369C141.699 21.8676 141.829 21.9982 142.047 22.1288C142.787 22.6078 143.527 23.0868 144.268 23.5658C144.137 22.2595 143.963 20.9095 143.745 19.6032C144.877 19.3419 146.01 19.0806 147.142 18.8629C146.489 18.4274 145.792 17.992 145.139 17.5565C144.877 17.3823 144.66 17.2952 144.485 17.2081C144.311 17.1211 144.137 17.0775 143.963 17.034C143.789 17.034 143.658 17.034 143.527 17.1211C143.397 17.1646 143.266 17.2952 143.092 17.4259C143.005 17.3823 142.918 17.3388 142.831 17.2952C143.136 16.8598 143.44 16.3808 143.745 15.9453C145.661 17.0775 147.49 18.2968 149.319 19.5596C147.882 19.8209 146.445 20.1257 145.008 20.4305C145.226 22.0853 145.356 23.6965 145.443 25.3512C143.789 24.1755 142.09 23.0868 140.349 21.9982C140.653 21.3885 140.958 20.7354 141.22 20.1257C141.307 20.2128 141.394 20.2564 141.481 20.2999Z" fill="#EDEDED"/>
<path d="M164.386 31.6657C164.124 31.4044 163.863 31.2302 163.602 31.1431C163.384 31.0996 163.123 31.1431 162.905 31.4044C161.817 32.5366 160.684 33.6688 159.596 34.7574C159.378 34.9752 159.247 35.1929 159.247 35.4106C159.247 35.6283 159.378 35.8896 159.683 36.1509C159.639 36.1944 159.552 36.2815 159.509 36.3251C157.549 34.4526 155.502 32.6672 153.369 30.9689C153.412 30.8818 153.456 30.8383 153.543 30.7948C153.761 30.9689 153.978 31.0996 154.196 31.1431C154.414 31.1867 154.631 31.0996 154.806 30.8818C155.894 29.619 156.939 28.3562 158.028 27.0934C158.246 26.8321 158.289 26.6143 158.202 26.3966C158.115 26.1789 157.941 25.9612 157.68 25.787C157.723 25.7434 157.767 25.6563 157.81 25.6128C158.768 26.3966 159.726 27.1804 160.641 27.9643C160.597 28.0078 160.554 28.0514 160.467 28.1385C160.162 27.8772 159.901 27.7465 159.683 27.703C159.465 27.6594 159.247 27.7465 159.03 28.0078C157.81 29.4013 156.591 30.7512 155.415 32.1447C156.286 32.885 157.157 33.6252 158.028 34.4091C159.291 33.0591 160.554 31.7528 161.817 30.4028C161.947 30.2722 162.034 30.1416 162.078 30.0545C162.121 29.9238 162.121 29.8367 162.078 29.7496C162.034 29.6626 161.991 29.5755 161.904 29.4884C161.817 29.4013 161.729 29.3142 161.642 29.2271C161.642 29.1836 161.599 29.1836 161.555 29.14C161.599 29.0965 161.642 29.0529 161.729 28.9658C162.644 29.7932 163.558 30.6206 164.429 31.4915C164.473 31.535 164.429 31.6221 164.386 31.6657Z" fill="#EDEDED"/>
<path d="M160.075 36.7603C160.118 36.7167 160.162 36.6732 160.249 36.5861C160.554 36.8909 160.815 37.0651 160.989 37.1086C161.163 37.1522 161.338 37.0651 161.468 36.9344C162.6 35.8458 163.776 34.7571 164.908 33.6685C165.082 33.4943 165.213 33.3637 165.3 33.233C165.387 33.1024 165.387 32.9718 165.387 32.8847C165.387 32.754 165.344 32.6234 165.213 32.5363C165.126 32.4057 164.995 32.275 164.865 32.1444C164.908 32.1008 164.995 32.0138 165.039 31.9702C165.953 32.8847 166.824 33.7991 167.652 34.7136C167.608 34.7571 167.521 34.8007 167.478 34.8878C167.26 34.7136 167.086 34.583 166.955 34.4523C166.824 34.3652 166.694 34.3217 166.563 34.2781C166.432 34.2781 166.345 34.2781 166.215 34.3652C166.084 34.4523 165.997 34.5394 165.823 34.6701C164.647 35.7587 163.471 36.8038 162.296 37.8925C161.991 38.1973 162.078 38.6327 162.6 39.1988C162.557 39.2424 162.513 39.2859 162.426 39.3295C161.729 38.4585 160.902 37.6312 160.075 36.7603Z" fill="#EDEDED"/>
<path d="M127.154 15.6404C127.067 15.4662 126.98 15.2485 126.936 14.9872C126.675 12.7664 126.37 10.5455 125.978 8.32471C124.367 9.9359 122.843 11.5471 121.362 13.2454C121.188 13.4631 120.97 13.5938 120.709 13.6808C120.448 13.7679 120.187 13.7679 119.969 13.6808C119.969 13.7679 119.925 13.8115 119.925 13.8986C120.753 14.1163 121.58 14.334 122.407 14.5953C122.407 14.5082 122.451 14.4647 122.451 14.3776C122.19 14.2905 122.015 14.2469 121.885 14.1599C121.754 14.0728 121.711 13.9421 121.798 13.8115C121.798 13.8115 121.798 13.7679 121.841 13.7244C121.885 13.6808 121.928 13.6373 121.972 13.5502C122.19 13.3325 122.407 13.0712 122.625 12.8535L125.456 13.7244C125.499 13.9857 125.543 14.2034 125.586 14.4647C125.586 14.5518 125.586 14.5953 125.586 14.6824C125.586 14.7695 125.586 14.813 125.543 14.9001C125.499 15.0743 125.369 15.1614 125.151 15.1614C124.977 15.1614 124.759 15.1179 124.541 15.0308C124.541 15.1179 124.498 15.1614 124.454 15.2485C125.499 15.5969 126.544 15.9452 127.589 16.3371C127.633 16.2501 127.633 16.2065 127.676 16.1194C127.459 15.9888 127.241 15.8581 127.154 15.6404ZM124.977 10.4149C125.107 11.2858 125.238 12.1132 125.369 12.9841L123.191 12.3309C123.801 11.6777 124.367 11.0246 124.977 10.4149Z" fill="#EDEDED"/>
<path d="M152.498 29.7058C152.454 29.4881 152.454 29.2704 152.498 29.0091C152.933 26.8318 153.282 24.611 153.543 22.3901C151.54 23.4352 149.58 24.5239 147.664 25.6996C147.447 25.8738 147.185 25.9174 146.924 25.9174C146.663 25.9174 146.402 25.8303 146.227 25.6996C146.184 25.7432 146.14 25.8303 146.097 25.8738C146.837 26.3093 147.534 26.7883 148.274 27.2673C148.318 27.2237 148.361 27.1366 148.405 27.0931C148.187 26.9625 148.056 26.8318 147.969 26.7012C147.882 26.5705 147.882 26.4834 147.969 26.3093C147.969 26.3093 148.013 26.2657 148.056 26.2222C148.1 26.1786 148.143 26.1351 148.23 26.0915C148.492 25.9174 148.797 25.7867 149.058 25.6125L151.496 27.2673C151.453 27.485 151.409 27.7463 151.409 28.0076C151.366 28.0946 151.366 28.1382 151.366 28.2253C151.366 28.3124 151.322 28.3559 151.279 28.3995C151.148 28.5737 151.017 28.6172 150.843 28.5301C150.669 28.4866 150.495 28.3995 150.277 28.2253C150.234 28.2688 150.19 28.3559 150.146 28.3995C151.061 29.0527 151.932 29.7058 152.803 30.359C152.846 30.3155 152.89 30.2719 152.933 30.1848C152.672 30.0978 152.541 29.88 152.498 29.7058ZM151.975 24.0449C151.845 24.9158 151.714 25.7432 151.583 26.6141L149.711 25.3513C150.451 24.8723 151.192 24.4368 151.975 24.0449Z" fill="#EDEDED"/>
<path d="M43.8941 175.454C43.9377 175.41 43.9812 175.323 44.0248 175.28C44.2425 175.454 44.4602 175.541 44.6344 175.628C44.8086 175.715 44.9828 175.628 45.1134 175.497C45.157 175.454 45.2005 175.367 45.2005 175.28C45.2005 175.192 45.2441 175.149 45.2441 175.062C45.3747 173.668 45.5053 172.275 45.6795 170.881C44.4167 171.535 43.1103 172.231 41.7604 172.841C41.6733 172.885 41.6298 172.928 41.5862 172.972C41.5427 173.015 41.4991 173.015 41.4991 173.015C41.412 173.146 41.412 173.276 41.4991 173.407C41.5862 173.538 41.7604 173.668 42.0217 173.843C41.9781 173.886 41.9346 173.973 41.891 174.017C41.1072 173.451 40.3234 172.841 39.5396 172.231C39.5831 172.188 39.6266 172.101 39.6702 172.057C39.8444 172.188 40.1056 172.318 40.4105 172.362C40.7153 172.406 40.9766 172.362 41.2378 172.231C43.2845 171.273 45.2876 170.228 47.2907 169.183C46.9859 171.404 46.7246 173.712 46.5504 175.976C46.5504 176.238 46.594 176.455 46.6375 176.673C46.7246 176.891 46.8988 177.108 47.1601 177.326C47.1165 177.37 47.073 177.457 47.0294 177.5C45.9408 176.891 44.8957 176.194 43.8941 175.454Z" fill="#EDEDED"/>
<path d="M58.6997 182.944C58.6561 183.075 58.6126 183.205 58.6561 183.336C58.6997 183.423 58.7432 183.554 58.8303 183.597C58.9174 183.641 59.0045 183.771 59.1351 183.815C59.2658 183.858 59.3529 183.946 59.4835 184.033C59.4399 184.12 59.4399 184.163 59.3964 184.25C58.3078 183.771 57.1756 183.249 56.0869 182.683C56.1305 182.639 56.1305 182.552 56.174 182.465C56.3046 182.509 56.4353 182.552 56.5659 182.596C56.6966 182.639 56.8272 182.683 56.9143 182.683C57.0014 182.683 57.132 182.683 57.2191 182.639C57.3062 182.596 57.3933 182.509 57.4804 182.378C58.1771 180.854 58.9174 179.373 59.6577 177.893C59.7883 177.631 59.7448 177.414 59.6141 177.239C59.4399 177.065 59.2222 176.848 58.8739 176.63C58.9174 176.543 58.9609 176.499 59.0045 176.412C61.0076 177.414 63.0543 178.328 65.1009 179.199C64.9267 179.765 64.7525 180.331 64.6219 180.941C64.5348 180.897 64.4477 180.854 64.3606 180.854C64.4042 180.549 64.4042 180.331 64.4042 180.157C64.3606 179.983 64.3171 179.809 64.1865 179.678C64.0558 179.547 63.9252 179.417 63.7074 179.33C63.4897 179.243 63.272 179.112 62.9672 178.981C62.314 178.72 61.7043 178.415 61.0511 178.11C60.6592 178.676 59.048 182.16 58.6997 182.944Z" fill="#EDEDED"/>
<path d="M71.5021 188.736C70.3263 188.387 69.1506 187.995 67.9748 187.603C68.149 187.124 68.3667 186.689 68.5409 186.21C68.8022 186.253 69.107 186.21 69.3683 186.123C69.6296 186.036 69.8908 185.905 70.1086 185.731C70.3263 185.557 70.544 185.339 70.7182 185.078C70.8924 184.816 71.023 184.555 71.1101 184.294C71.1972 183.989 71.2408 183.684 71.2408 183.379C71.2408 183.075 71.1972 182.77 71.0666 182.509C70.936 182.204 70.7618 181.986 70.5005 181.725C70.2392 181.507 69.9344 181.289 69.4989 181.159C69.107 181.028 68.7151 180.941 68.3667 180.984C68.0184 180.984 67.7136 181.072 67.4523 181.202C67.191 181.333 66.9297 181.551 66.7555 181.768C66.5378 182.03 66.4072 182.291 66.2765 182.596C66.1895 182.813 66.1459 183.075 66.1024 183.379C66.0588 183.641 66.1024 183.946 66.1459 184.25C66.1895 184.512 66.3201 184.816 66.4943 185.078C66.6685 185.339 66.8426 185.557 67.1039 185.731C66.9733 186.21 66.8426 186.689 66.712 187.168C65.5798 186.776 64.4476 186.341 63.3154 185.862C63.4896 185.339 63.7073 184.86 63.9251 184.337C64.0122 184.381 64.0993 184.425 64.1863 184.425C64.1428 184.642 64.1863 184.86 64.2299 185.034C64.2734 185.208 64.4041 185.383 64.6218 185.47C65.1879 185.687 65.754 185.905 66.3201 186.123C66.3636 185.992 66.4072 185.862 66.4507 185.731C66.1024 185.513 65.7975 185.295 65.5363 184.991C65.275 184.686 65.1008 184.381 64.9702 184.033C64.8395 183.684 64.796 183.336 64.7524 182.988C64.7089 182.639 64.796 182.334 64.9266 182.03C65.0573 181.681 65.275 181.376 65.5363 181.072C65.7975 180.767 66.1459 180.593 66.5814 180.462C66.9733 180.331 67.4523 180.244 67.9748 180.288C68.4974 180.331 69.0635 180.418 69.7167 180.636C70.3699 180.854 70.8924 181.115 71.2843 181.42C71.6762 181.725 71.9811 182.073 72.1988 182.421C72.4165 182.77 72.5471 183.162 72.5471 183.554C72.5471 183.946 72.5471 184.337 72.4165 184.686C72.3294 184.991 72.1988 185.252 71.9811 185.513C71.8069 185.774 71.5456 185.992 71.2408 186.166C70.936 186.341 70.6311 186.471 70.2392 186.558C69.8473 186.645 69.4554 186.645 68.9764 186.602C68.9328 186.732 68.8893 186.863 68.8458 186.994C69.4554 187.211 70.065 187.386 70.6311 187.56C70.8489 187.647 71.0666 187.603 71.1972 187.473C71.3279 187.342 71.4585 187.168 71.5891 186.994C71.6762 187.037 71.8069 187.037 71.894 187.081C71.8069 187.69 71.6762 188.213 71.5021 188.736Z" fill="#EDEDED"/>
<path d="M83.042 191.348C83.042 191.261 83.0855 191.218 83.0855 191.131C83.5645 191.218 83.8694 191.218 84.0435 191.131C84.2177 191.044 84.3048 190.913 84.3484 190.695C84.6096 189.128 84.8274 187.603 85.0886 186.036C85.1322 185.818 85.1322 185.6 85.1322 185.47C85.1322 185.339 85.0886 185.208 85.0016 185.121C84.9145 185.034 84.8274 184.947 84.6967 184.904C84.5661 184.86 84.3919 184.817 84.2177 184.773C84.2177 184.686 84.2613 184.599 84.2613 184.512C85.3935 184.729 86.5257 184.904 87.6579 185.034C87.6579 185.121 87.6143 185.208 87.6143 185.296C87.353 185.296 87.1788 185.296 87.0047 185.296C86.8305 185.296 86.7434 185.339 86.6563 185.426C86.5692 185.47 86.4821 185.6 86.4821 185.687C86.4386 185.818 86.395 185.949 86.395 186.166C86.1773 187.734 85.9596 189.302 85.7418 190.869C85.6983 191.305 86.0467 191.566 86.8305 191.697C86.8305 191.784 86.8305 191.827 86.7869 191.915C85.4806 191.784 84.2177 191.566 83.042 191.348Z" fill="#EDEDED"/>
<path d="M97.9782 186.993C97.9782 186.688 97.8911 186.471 97.7169 186.297C97.5427 186.166 97.325 186.079 96.9766 186.079C96.9766 185.992 96.9766 185.905 96.9766 185.818C98.0217 185.861 99.0668 185.861 100.112 185.861C100.112 185.948 100.112 186.035 100.112 186.122C99.72 186.122 99.4587 186.209 99.3716 186.384C99.2845 186.645 99.241 186.906 99.241 187.08C99.241 187.734 99.241 188.387 99.241 189.04C100.417 189.04 101.592 189.04 102.768 188.996C102.725 188.343 102.725 187.69 102.681 187.037C102.681 186.732 102.55 186.514 102.333 186.34C102.115 186.166 101.897 186.122 101.636 186.122C101.636 186.035 101.636 185.948 101.636 185.861C102.681 185.818 103.726 185.774 104.771 185.73C104.771 185.818 104.771 185.905 104.771 185.992C104.423 185.992 104.205 186.122 104.075 186.297C103.944 186.471 103.9 186.776 103.9 187.167C103.987 188.605 104.075 189.998 104.162 191.435C104.162 191.566 104.205 191.696 104.205 191.827C104.249 191.958 104.292 192.045 104.379 192.132C104.467 192.219 104.554 192.306 104.728 192.349C104.858 192.393 105.076 192.437 105.294 192.437C105.294 192.524 105.294 192.567 105.294 192.654C104.118 192.741 102.942 192.785 101.81 192.785C101.81 192.698 101.81 192.654 101.81 192.567C102.071 192.567 102.246 192.524 102.376 192.48C102.507 192.437 102.638 192.349 102.681 192.262C102.768 192.175 102.812 192.045 102.812 191.914C102.812 191.783 102.812 191.609 102.812 191.391C102.768 190.782 102.768 190.129 102.725 189.519C101.549 189.563 100.373 189.563 99.1974 189.563C99.1974 190.303 99.1974 191 99.1974 191.74C99.1974 191.87 99.1974 192.001 99.241 192.088C99.241 192.175 99.2845 192.262 99.3716 192.306C99.4587 192.349 99.5458 192.393 99.6765 192.437C99.8071 192.48 100.025 192.48 100.243 192.524C100.243 192.611 100.243 192.654 100.243 192.741C99.0668 192.741 97.8911 192.741 96.7153 192.698C96.7153 192.611 96.7153 192.567 96.7153 192.48C96.9766 192.48 97.1508 192.437 97.2814 192.393C97.4121 192.349 97.5427 192.306 97.5862 192.219C97.6298 192.132 97.7169 192.045 97.7169 191.958C97.7169 191.87 97.7604 191.74 97.7604 191.566C97.9346 190.085 97.9346 188.561 97.9782 186.993Z" fill="#EDEDED"/>
<path d="M55.0417 182.291C54.824 182.116 54.6934 181.899 54.6063 181.681C54.5192 181.463 54.5192 181.246 54.5192 180.984C54.7369 178.72 54.8676 176.412 54.9111 174.104C53.0822 175.367 51.2532 176.63 49.5114 177.936C49.3372 178.11 49.076 178.197 48.7711 178.197C48.4663 178.197 48.2486 178.154 48.0744 178.067C48.0309 178.11 47.9873 178.197 47.9873 178.241C48.7711 178.676 49.5114 179.068 50.2517 179.504C50.2952 179.46 50.3388 179.373 50.3388 179.33C50.1211 179.199 49.9469 179.068 49.8598 178.981C49.7727 178.894 49.7291 178.763 49.8162 178.589C49.8162 178.589 49.8598 178.546 49.9033 178.502C49.9469 178.459 49.9904 178.415 50.034 178.371C50.3823 178.11 50.7307 177.892 51.0355 177.631L53.3435 178.938C53.2999 179.33 53.2999 179.678 53.2999 180.07C53.2999 180.157 53.2564 180.244 53.2564 180.288C53.2564 180.375 53.2128 180.418 53.1693 180.505C53.0822 180.679 52.908 180.723 52.7338 180.679C52.5596 180.636 52.3854 180.549 52.1677 180.418C52.1242 180.462 52.0806 180.549 52.0806 180.592C53.0386 181.158 53.9531 181.768 54.8676 182.378C54.9982 182.421 55.0417 182.378 55.0417 182.291ZM53.4305 178.241L51.6887 177.239C52.2983 176.804 52.908 176.368 53.5176 175.933C53.5176 176.717 53.4741 177.457 53.4305 178.241Z" fill="#EDEDED"/>
<path d="M82.0405 190.869C81.7792 190.739 81.605 190.608 81.4744 190.434C81.3873 190.26 81.3002 189.998 81.2567 189.737C81.2567 189.65 81.2567 189.606 81.2131 189.519C81.2131 189.389 81.1696 189.258 81.1696 189.127L81.0825 188.039L80.2551 187.865L80.0809 187.821L78.252 183.162L78.0343 183.466C77.1634 184.512 75.5522 186.558 75.2909 186.907H75.2038L74.42 186.732L73.3749 188.126C73.2442 188.344 73.07 188.474 72.8523 188.561C72.6346 188.648 72.4604 188.692 72.2862 188.648C72.2862 188.692 72.2427 188.779 72.2427 188.823C72.8959 188.91 73.5491 189.04 74.2022 189.171C74.2458 189.127 74.2458 189.04 74.2458 188.997C74.0716 188.953 73.8974 188.91 73.8103 188.866C73.7232 188.823 73.6797 188.692 73.7232 188.561C73.7232 188.561 73.7232 188.518 73.7668 188.474C73.8103 188.431 73.8103 188.387 73.8539 188.3C74.0281 188.082 74.1587 187.908 74.3329 187.69L74.42 187.603C74.8119 187.647 78.9487 188.474 79.8197 188.692C79.8632 188.866 79.8632 189.04 79.8632 189.214C79.8632 189.258 79.8632 189.302 79.8632 189.302C79.8632 189.389 79.8632 189.476 79.8632 189.563C79.8632 189.65 79.8632 189.737 79.8197 189.781C79.7761 189.998 79.6455 190.085 79.4277 190.129C79.2536 190.129 79.0358 190.129 78.8181 190.085C78.7746 190.173 78.7746 190.26 78.731 190.303C79.8197 190.521 80.8648 190.782 81.9099 191.087C81.997 191.043 81.997 190.956 82.0405 190.869ZM74.1151 187.386C74.1587 187.386 74.1587 187.386 74.1151 187.386V187.386ZM77.6859 187.342L76.9456 187.211L76.1183 187.037L75.857 186.994C76.0312 186.776 77.294 185.208 77.6424 184.816C77.6424 184.86 77.6859 184.903 77.7295 184.991L78.6875 187.516L77.6859 187.342Z" fill="#EDEDED"/>
<path d="M95.3221 192.568C95.1915 192.524 95.1044 192.437 95.0608 192.35C95.0173 192.263 94.9737 192.132 94.9737 192.045C94.9737 191.914 94.9737 191.784 94.9737 191.653L95.3221 187.516L95.4092 186.297V186.166L94.4076 186.079L94.1028 186.428L90.4014 190.782L90.7498 187.037C90.7498 186.863 90.7933 186.689 90.8369 186.558C90.8804 186.428 90.924 186.34 91.0111 186.253C91.0981 186.166 91.1852 186.123 91.3159 186.079C91.4465 186.036 91.6207 186.036 91.8384 186.036V185.818L88.7031 185.557V185.774C88.9209 185.818 89.095 185.861 89.2257 185.905C89.3563 185.949 89.4434 186.036 89.4869 186.123C89.5305 186.21 89.574 186.34 89.574 186.428C89.574 186.515 89.574 186.689 89.574 186.819L89.095 192.306H89.1386L90.2272 192.393L90.3579 192.219L94.0593 187.821L93.7544 191.348C93.7544 191.566 93.7109 191.697 93.7109 191.827C93.7109 191.958 93.6238 192.045 93.5367 192.132C93.4496 192.219 93.3625 192.263 93.2319 192.306C93.1013 192.35 92.9271 192.35 92.7093 192.35V192.568L95.8447 192.829V192.611C95.6269 192.698 95.4527 192.611 95.3221 192.568Z" fill="#EDEDED"/>
<path d="M93.3622 185.034C93.2315 185.121 93.0574 185.165 92.8832 185.165C92.709 185.165 92.5348 185.077 92.4042 184.947C92.2735 184.816 92.23 184.686 92.23 184.511C92.23 184.337 92.3171 184.207 92.4477 184.119C92.5783 184.032 92.7525 183.989 92.9267 183.989C93.1009 183.989 93.2751 184.076 93.4057 184.207C93.5364 184.337 93.5799 184.468 93.5799 184.642C93.5799 184.816 93.4928 184.947 93.3622 185.034Z" fill="#EDEDED"/>
<path d="M122.146 189.65C122.016 189.606 121.929 189.563 121.842 189.519C121.754 189.432 121.711 189.345 121.667 189.258C121.624 189.127 121.58 189.04 121.58 188.866L120.753 184.816L120.492 183.597L120.448 183.466L119.49 183.684L119.316 184.076L117.008 189.301L116.268 185.644C116.224 185.469 116.224 185.295 116.181 185.165C116.181 185.034 116.181 184.903 116.224 184.816C116.268 184.729 116.355 184.642 116.485 184.555C116.572 184.468 116.747 184.424 116.964 184.381L116.921 184.163L113.829 184.816L113.873 185.034C114.09 184.99 114.265 184.99 114.395 185.034C114.526 185.077 114.656 185.121 114.7 185.165C114.787 185.252 114.831 185.339 114.874 185.426C114.918 185.513 114.961 185.644 114.961 185.818L116.05 191.217H116.093L117.139 191L117.226 190.826L119.534 185.557L120.23 189.04C120.274 189.214 120.274 189.389 120.317 189.519C120.361 189.65 120.317 189.78 120.274 189.868C120.23 189.955 120.143 190.042 120.013 190.129C119.882 190.216 119.751 190.259 119.534 190.303L119.577 190.521L122.669 189.868L122.625 189.65C122.451 189.693 122.277 189.693 122.146 189.65Z" fill="#EDEDED"/>
<path d="M118.096 182.987C118.009 183.118 117.835 183.205 117.661 183.248C117.487 183.292 117.312 183.248 117.138 183.161C116.964 183.074 116.877 182.944 116.877 182.769C116.877 182.595 116.877 182.465 117.008 182.334C117.095 182.203 117.269 182.116 117.443 182.073C117.617 182.029 117.791 182.073 117.922 182.16C118.053 182.247 118.14 182.378 118.183 182.552C118.227 182.726 118.227 182.857 118.096 182.987Z" fill="#EDEDED"/>
<path d="M113.263 191.348C113.132 191.304 113.045 191.261 112.958 191.174C112.871 191.087 112.827 191 112.784 190.869C112.74 190.738 112.74 190.608 112.697 190.477L112.261 186.34L112.13 185.121V184.99L111.129 185.077L110.911 185.469L108.124 190.477L107.732 186.776C107.689 186.601 107.689 186.427 107.689 186.297C107.689 186.166 107.732 186.035 107.776 185.948C107.819 185.861 107.907 185.774 108.037 185.731C108.168 185.687 108.298 185.643 108.56 185.6L108.516 185.382L105.381 185.731L105.424 185.948C105.642 185.948 105.816 185.948 105.947 185.992C106.078 186.035 106.165 186.079 106.252 186.166C106.339 186.253 106.382 186.34 106.426 186.471C106.47 186.601 106.47 186.732 106.513 186.863L107.123 192.349H107.166L108.255 192.219L108.342 192.045L111.129 187.037L111.521 190.564C111.564 190.738 111.564 190.912 111.564 191.043C111.564 191.174 111.521 191.304 111.477 191.391C111.434 191.479 111.347 191.566 111.216 191.609C111.085 191.653 110.911 191.696 110.693 191.74L110.737 191.958L113.872 191.609V191.391C113.567 191.435 113.393 191.391 113.263 191.348Z" fill="#EDEDED"/>
<path d="M150.712 176.107C149.667 176.804 148.622 177.501 147.577 178.198C147.316 177.762 147.098 177.327 146.837 176.891C147.055 176.673 147.185 176.456 147.272 176.194C147.359 175.933 147.403 175.672 147.403 175.367C147.403 175.106 147.359 174.801 147.272 174.496C147.185 174.235 147.055 173.93 146.88 173.712C146.706 173.451 146.488 173.233 146.227 173.059C145.966 172.885 145.705 172.711 145.4 172.667C145.095 172.58 144.79 172.58 144.442 172.624C144.093 172.667 143.745 172.841 143.353 173.059C143.005 173.277 142.7 173.538 142.482 173.843C142.265 174.148 142.134 174.409 142.09 174.714C142.047 175.019 142.047 175.324 142.134 175.628C142.221 175.933 142.352 176.238 142.526 176.499C142.656 176.717 142.831 176.891 143.048 177.109C143.266 177.327 143.484 177.457 143.745 177.588C144.006 177.719 144.268 177.806 144.572 177.849C144.877 177.893 145.182 177.849 145.487 177.762C145.792 178.154 146.097 178.589 146.401 178.981C145.356 179.635 144.311 180.244 143.266 180.81C143.005 180.331 142.7 179.896 142.439 179.417C142.526 179.373 142.613 179.33 142.7 179.286C142.831 179.417 143.005 179.547 143.223 179.635C143.397 179.722 143.614 179.722 143.832 179.591C144.355 179.286 144.877 178.981 145.4 178.677C145.313 178.589 145.269 178.459 145.182 178.328C144.79 178.502 144.398 178.546 144.006 178.589C143.614 178.589 143.266 178.546 142.918 178.415C142.569 178.285 142.265 178.154 142.003 177.936C141.742 177.719 141.524 177.501 141.35 177.196C141.132 176.848 141.045 176.499 141.002 176.107C140.958 175.715 141.002 175.324 141.132 174.932C141.263 174.54 141.524 174.148 141.829 173.756C142.134 173.364 142.613 172.972 143.179 172.624C143.745 172.275 144.311 172.014 144.79 171.883C145.269 171.753 145.748 171.709 146.184 171.796C146.619 171.84 146.967 171.97 147.316 172.188C147.664 172.406 147.925 172.667 148.143 172.972C148.317 173.233 148.448 173.495 148.535 173.799C148.622 174.104 148.622 174.453 148.622 174.757C148.622 175.062 148.492 175.454 148.317 175.803C148.143 176.151 147.882 176.499 147.577 176.804C147.664 176.891 147.708 177.022 147.795 177.152C148.317 176.804 148.84 176.456 149.362 176.107C149.58 175.977 149.667 175.803 149.667 175.585C149.667 175.367 149.624 175.193 149.537 174.975C149.624 174.932 149.711 174.844 149.798 174.801C150.103 175.236 150.408 175.672 150.712 176.107Z" fill="#EDEDED"/>
<path d="M148.753 170.359C148.578 170.098 148.361 169.967 148.143 169.967C147.925 169.967 147.664 170.054 147.403 170.228C147.359 170.185 147.316 170.098 147.272 170.011C148.143 169.401 149.014 168.748 149.885 168.095C149.928 168.138 149.972 168.225 150.059 168.269C149.711 168.53 149.58 168.748 149.58 168.922C149.667 169.183 149.798 169.401 149.928 169.575C150.32 170.098 150.756 170.62 151.148 171.099C152.106 170.359 153.107 169.619 154.022 168.835C153.586 168.356 153.151 167.833 152.759 167.354C152.541 167.137 152.323 167.006 152.062 167.006C151.801 167.006 151.539 167.093 151.365 167.267C151.322 167.224 151.278 167.137 151.191 167.093C152.062 166.396 152.889 165.7 153.717 165.003C153.76 165.046 153.847 165.134 153.891 165.177C153.63 165.395 153.499 165.613 153.499 165.874C153.499 166.092 153.673 166.353 153.891 166.658C154.849 167.746 155.807 168.791 156.765 169.88C156.852 170.011 156.983 170.098 157.07 170.141C157.157 170.228 157.288 170.272 157.418 170.272C157.549 170.272 157.679 170.272 157.81 170.228C157.941 170.185 158.158 170.054 158.333 169.924C158.376 169.967 158.42 170.054 158.507 170.098C157.592 170.882 156.634 171.665 155.676 172.449C155.633 172.406 155.589 172.319 155.546 172.275C155.72 172.101 155.894 171.97 155.981 171.84C156.068 171.709 156.112 171.578 156.112 171.491C156.112 171.361 156.068 171.274 156.025 171.143C155.938 171.012 155.851 170.882 155.72 170.751C155.328 170.272 154.893 169.793 154.501 169.314C153.543 170.098 152.585 170.838 151.583 171.578C152.018 172.144 152.497 172.711 152.933 173.32C153.02 173.451 153.107 173.538 153.194 173.581C153.281 173.625 153.368 173.669 153.455 173.669C153.543 173.669 153.673 173.625 153.804 173.581C153.934 173.538 154.109 173.407 154.326 173.277C154.37 173.32 154.413 173.407 154.457 173.451C153.499 174.191 152.497 174.888 151.539 175.585C151.496 175.541 151.452 175.454 151.409 175.41C151.627 175.236 151.757 175.106 151.844 175.018C151.931 174.888 151.975 174.801 152.018 174.67C152.018 174.583 152.018 174.452 151.975 174.365C151.931 174.278 151.844 174.148 151.757 174.06C150.669 172.841 149.711 171.578 148.753 170.359Z" fill="#EDEDED"/>
<path d="M140.697 177.936C140.653 177.588 140.523 177.283 140.349 177.022C140.174 176.717 139.913 176.499 139.565 176.282C139.26 176.064 138.912 175.933 138.52 175.846C138.128 175.759 137.736 175.759 137.344 175.803C136.952 175.846 136.56 175.977 136.168 176.194C135.776 176.412 135.471 176.63 135.21 176.848C134.949 177.065 134.775 177.327 134.601 177.544C134.426 177.762 134.339 177.98 134.296 178.198C134.296 178.241 134.296 178.241 134.296 178.285C134.078 178.198 133.86 178.154 133.599 178.154C133.294 178.154 132.989 178.154 132.641 178.198C132.293 178.241 131.901 178.372 131.509 178.546C131.117 178.72 130.768 178.938 130.464 179.243C130.202 179.504 129.985 179.809 129.81 180.157C129.636 180.505 129.593 180.81 129.549 181.202C129.506 181.594 129.593 181.899 129.767 182.204C129.898 182.465 130.115 182.726 130.377 182.988C130.681 183.249 130.986 183.423 131.378 183.554C131.77 183.684 132.205 183.771 132.641 183.771C133.076 183.771 133.555 183.684 134.034 183.467C134.078 183.467 134.078 183.423 134.121 183.423C134.383 183.336 134.601 183.162 134.818 182.944C135.036 182.726 135.21 182.465 135.384 182.16C135.733 182.77 136.038 183.38 136.342 183.989L138.128 183.292C137.736 182.639 137.387 181.943 136.996 181.289C137.344 181.333 137.692 181.333 137.997 181.333C138.302 181.289 138.607 181.202 138.824 181.115C138.868 181.115 138.868 181.072 138.912 181.072C139.347 180.854 139.695 180.549 139.957 180.201C140.218 179.852 140.392 179.504 140.479 179.112C140.697 178.633 140.74 178.285 140.697 177.936ZM139.303 179.896C139.129 180.157 138.868 180.375 138.52 180.593C138.215 180.767 137.91 180.81 137.605 180.81C137.3 180.81 136.952 180.68 136.647 180.505C136.517 180.288 136.386 180.026 136.255 179.765C135.863 179.983 134.818 180.593 134.688 180.636C134.818 180.897 134.949 181.115 135.08 181.376C135.08 181.725 134.992 182.03 134.818 182.291C134.644 182.552 134.383 182.726 134.078 182.857C133.686 183.031 133.338 183.075 133.033 183.075C132.728 183.031 132.423 182.944 132.162 182.813C131.901 182.683 131.683 182.465 131.509 182.247C131.335 182.03 131.16 181.812 131.073 181.551C130.943 181.246 130.856 180.984 130.856 180.723C130.856 180.462 130.856 180.201 130.943 179.983C131.03 179.765 131.117 179.591 131.291 179.417C131.465 179.243 131.639 179.112 131.814 179.025C132.249 178.851 132.597 178.764 132.859 178.807C133.12 178.851 133.425 178.938 133.686 179.068C133.817 179.025 133.991 178.894 134.209 178.807C134.513 178.633 134.818 178.459 135.08 178.328C135.297 178.198 135.471 178.11 135.559 178.067C135.602 177.762 135.646 177.501 135.82 177.283C135.994 177.065 136.212 176.804 136.604 176.63C136.778 176.543 136.996 176.456 137.257 176.456C137.518 176.456 137.736 176.456 137.954 176.543C138.171 176.63 138.389 176.717 138.65 176.891C138.868 177.065 139.086 177.283 139.216 177.544C139.347 177.762 139.478 178.023 139.565 178.285C139.652 178.546 139.695 178.851 139.652 179.112C139.565 179.373 139.434 179.635 139.303 179.896Z" fill="#EDEDED"/>
<path d="M192.255 89.9732C192.168 89.0152 192.124 88.0572 191.994 87.0992L191.95 86.6637L185.201 87.4476L184.809 84.53L184.286 81.656L186.681 81.177L187.291 84.6171L191.558 83.9639L191.341 82.7011C190.992 80.7415 190.644 78.6948 190.165 76.6917L189.947 75.7773L183.328 77.3449L183.067 76.1256L182.631 74.5144C182.501 74.1225 182.414 73.7742 182.327 73.3822C182.152 72.8597 182.022 72.2936 181.848 71.7275L184.199 70.9872C184.373 71.5533 184.547 72.163 184.722 72.7291C184.852 73.121 184.939 73.5129 185.07 73.9483L185.201 74.3838L189.381 73.2516L189.25 72.8162C189.12 72.4242 189.033 72.0323 188.902 71.5969C188.684 70.813 188.467 70.0292 188.205 69.2889L186.899 65.3698L180.498 67.6777L180.324 67.2423C179.67 65.5875 179.017 63.8892 178.277 62.2345L180.498 61.2329L180.715 61.6684C181.064 62.4522 181.412 63.2361 181.717 64.0199L181.891 64.4553L185.897 62.8006L185.723 62.3651C185.418 61.4942 185.026 60.6669 184.635 59.8395L184.243 58.9686C183.851 58.0541 183.372 57.0525 182.849 56.0074L182.414 55.1801L176.317 58.2283C176.23 58.0106 176.1 57.7928 175.969 57.5751C175.664 56.9219 175.316 56.2687 174.924 55.6591L173.487 53.1334L175.577 51.8706L177.319 54.9188L181.107 52.8286L179.061 49.2578C178.625 48.5611 178.19 47.8644 177.754 47.1676L176.883 45.7742L171.222 49.5191C170.874 48.953 170.482 48.4305 170.09 47.9079C169.916 47.6466 169.698 47.3854 169.524 47.1241L168.523 45.7306C168.305 45.4258 168.087 45.1645 167.869 44.8597L167.652 44.5984C167.652 44.5113 167.695 44.4678 167.782 44.4242C169.219 43.2485 170.613 42.1163 172.05 40.9406C172.224 40.8099 172.355 40.8099 172.485 40.897C172.616 40.9841 172.79 41.1583 172.964 41.376C173.051 41.3325 173.095 41.2454 173.182 41.2018C172.572 40.418 171.919 39.6342 171.266 38.8504C171.048 38.5455 170.787 38.2843 170.482 38.023C170.177 37.7617 169.916 37.5875 169.611 37.4569C169.306 37.3263 169.002 37.2827 168.697 37.2827C168.392 37.3263 168.087 37.4569 167.782 37.7182C167.565 37.8924 167.434 38.1101 167.347 38.3714C167.26 38.6326 167.216 38.8504 167.216 39.1116C167.216 39.3729 167.26 39.5906 167.347 39.8519C167.434 40.0697 167.521 40.2874 167.652 40.4616C167.129 40.418 164.647 40.2874 164.168 40.2438C163.994 40.2003 163.82 40.1567 163.645 40.1132C163.515 40.0261 163.341 39.8955 163.166 39.7213C163.079 39.8084 163.036 39.8519 162.949 39.8955C163.558 40.5487 164.124 41.2018 164.691 41.855C164.778 41.8115 164.821 41.7244 164.908 41.6808C164.691 41.4196 164.647 41.2454 164.734 41.1583C164.778 41.1148 164.865 41.1148 164.952 41.1148C165.126 41.1148 167.565 41.2889 168.348 41.376C168.523 41.5938 168.697 41.7679 168.827 41.9857C168.218 42.5082 167.608 43.0308 166.998 43.5533C166.868 43.6404 166.781 43.684 166.65 43.6404C166.52 43.5969 166.389 43.4662 166.171 43.2485L165.649 42.6389L164.995 43.1614C164.995 43.1614 167.521 46.079 167.739 46.3403L168.697 47.7337C168.871 47.995 169.089 48.2563 169.263 48.5176C169.698 49.1707 170.177 49.8239 170.613 50.4771L170.874 50.869L176.535 47.1241L176.927 47.7337C177.362 48.4305 177.798 49.1272 178.233 49.8239L179.801 52.5673L177.624 53.7431L175.882 50.6948L172.18 52.9157L174.096 56.2252C174.445 56.8348 174.793 57.488 175.098 58.1412C175.272 58.4896 175.446 58.8379 175.664 59.1863L175.882 59.5782L181.935 56.53C182.457 57.5315 182.893 58.5331 183.328 59.4476L183.72 60.3185C184.025 60.9717 184.33 61.6684 184.591 62.3651L182.327 63.2796C182.065 62.6264 181.761 61.9732 181.456 61.32L180.89 60.0572L176.927 61.8426L177.145 62.278C177.972 64.0199 178.669 65.8488 179.366 67.6342L179.845 68.9406L186.202 66.6326L187.204 69.6373C187.465 70.3776 187.683 71.1614 187.901 71.9017C187.988 72.163 188.031 72.4242 188.118 72.6855L185.723 73.3387C185.636 73.0774 185.593 72.8597 185.505 72.5984C185.288 71.8581 185.114 71.1179 184.852 70.3776L184.722 69.9421L180.585 71.2485L180.759 71.684C180.977 72.3371 181.194 73.0339 181.369 73.7306C181.456 74.1225 181.586 74.5144 181.673 74.8628L182.109 76.474L182.588 78.5642L189.207 76.9966C189.686 78.9561 190.034 81.0028 190.383 82.9623L190.426 83.2672L187.988 83.6591L187.378 80.1754L183.154 81.0028L183.807 84.7477L184.286 88.5798L191.036 87.7959C191.123 88.5798 191.21 89.3636 191.254 90.1474L191.384 91.7586C191.428 92.5424 191.515 93.3263 191.515 94.1101L189.076 94.1972C189.076 93.4133 188.989 92.6731 188.946 91.9328L188.859 90.67L184.547 91.0183L184.591 91.4973C184.765 93.1521 184.809 94.8504 184.809 96.4616C184.809 97.0277 184.852 97.5938 184.852 98.1599V98.5953H191.602L191.558 99.684C191.515 101.426 191.471 103.211 191.341 104.997L188.859 104.822C188.859 104.648 188.902 104.474 188.902 104.3C188.946 103.472 189.033 102.602 189.033 101.731V101.295L184.722 101.121V101.6C184.722 102.384 184.678 103.211 184.591 103.995C184.547 104.3 184.547 104.648 184.504 104.953L184.46 105.432C184.373 106.39 184.33 107.348 184.199 108.306L184.112 108.785L190.862 109.569L190.775 110.309C190.687 111.137 190.557 111.92 190.47 112.704L189.904 115.839L187.509 115.36L188.118 111.877L183.851 111.224L183.198 114.969C183.067 115.665 182.936 116.362 182.762 117.059C182.675 117.451 182.588 117.843 182.501 118.234L182.414 118.67L188.989 120.238L188.684 121.588L188.205 123.329C188.075 123.721 187.988 124.157 187.857 124.549C187.683 125.158 187.509 125.768 187.334 126.378L184.983 125.637C185.157 125.028 185.331 124.462 185.505 123.852C185.593 123.46 185.723 123.068 185.854 122.676L185.985 122.241L181.804 121.065L181.673 121.5C181.151 123.416 180.498 125.332 179.888 127.205L179.496 128.381L185.854 130.689L185.723 131.037C185.026 132.866 184.286 134.738 183.459 136.524L181.194 135.479C181.282 135.304 181.369 135.087 181.456 134.913C181.804 134.172 182.152 133.432 182.414 132.648L182.588 132.213L178.582 130.558L178.408 130.993C178.146 131.69 177.841 132.387 177.537 133.084C177.406 133.388 177.232 133.737 177.101 134.042L176.404 135.566C176.23 135.871 176.1 136.219 175.925 136.524L175.446 137.482L181.499 140.53C181.369 140.791 181.238 141.053 181.107 141.27C180.759 141.967 180.411 142.664 180.019 143.36L178.451 146.104L176.361 144.841L178.103 141.793L174.314 139.703L172.398 143.012L170.308 146.278L175.969 150.023C175.621 150.589 175.185 151.155 174.837 151.678C174.619 151.983 174.401 152.331 174.184 152.636L173.138 154.116L172.311 155.205L170.352 153.681L171.179 152.636L172.485 150.807L168.958 148.281L167.739 150.023L166.694 151.329C166.432 151.634 166.215 151.983 165.953 152.287C165.518 152.853 165.082 153.42 164.603 153.942L164.299 154.29L169.481 158.645L167.39 161.084L165.3 163.261C165.213 163.217 165.17 163.174 165.082 163.13C164.995 163.087 164.865 163 164.734 162.913L163.776 162.346L163.123 162.913L162.992 163.043L158.159 161.737L158.246 162.085C158.594 163.392 159.247 165.917 159.334 166.353L159.247 166.396L158.638 166.919L159.16 168.617C159.247 168.835 159.247 169.053 159.204 169.27C159.16 169.488 159.03 169.662 158.943 169.793C158.986 169.836 159.03 169.88 159.073 169.923C159.552 169.444 160.031 169.009 160.554 168.53C160.51 168.486 160.467 168.443 160.423 168.356C160.292 168.486 160.162 168.574 160.031 168.617C159.944 168.661 159.813 168.617 159.726 168.486C159.726 168.486 159.726 168.443 159.683 168.399C159.683 168.356 159.639 168.312 159.596 168.225C159.552 167.964 159.465 167.746 159.378 167.485V167.354C159.639 167.049 162.775 164.262 163.471 163.653C163.645 163.74 163.776 163.827 163.907 163.914C163.95 163.914 163.95 163.958 163.994 163.958C164.081 164.001 164.124 164.045 164.212 164.132C164.299 164.175 164.342 164.219 164.386 164.306C164.516 164.48 164.516 164.654 164.429 164.829C164.342 165.003 164.212 165.177 163.994 165.308C164.037 165.351 164.081 165.438 164.124 165.525C164.603 165.133 167.913 161.606 167.913 161.606L170.047 159.168L170.656 158.471L165.474 154.116C165.866 153.681 166.215 153.202 166.563 152.766C166.824 152.462 167.042 152.157 167.303 151.852L168.348 150.502L169.045 149.5L171.048 150.937L170.308 151.983L168.958 153.724L172.355 156.381L173.792 154.552L174.837 153.071C175.054 152.766 175.272 152.462 175.49 152.157C175.969 151.504 176.448 150.807 176.927 150.067L177.145 149.675L171.484 145.93L173.051 143.448L174.532 140.922L176.709 142.098L174.967 145.146L178.669 147.367L180.715 143.796C181.107 143.099 181.499 142.359 181.848 141.662C181.978 141.401 182.109 141.14 182.24 140.922L182.675 140.095L176.622 137.046L176.666 136.916C176.84 136.567 177.014 136.262 177.145 135.914L177.841 134.39C177.972 134.085 178.103 133.737 178.277 133.432C178.538 132.866 178.799 132.3 179.017 131.734L181.282 132.648C181.064 133.258 180.759 133.867 180.498 134.434C180.324 134.782 180.193 135.087 180.062 135.435L179.888 135.871L183.807 137.656L184.025 137.221C184.939 135.261 185.767 133.214 186.507 131.255L186.986 129.992L180.585 127.64L180.672 127.336C181.282 125.594 181.848 123.852 182.37 122.023L184.722 122.676C184.635 122.937 184.591 123.155 184.504 123.416C184.286 124.113 184.112 124.853 183.851 125.594L183.677 126.029L187.813 127.336L187.988 126.9C188.249 126.116 188.467 125.332 188.684 124.592C188.815 124.2 188.902 123.765 189.033 123.373L189.512 121.588L189.817 120.194L190.034 119.28L183.415 117.712C183.459 117.494 183.502 117.233 183.589 117.015C183.764 116.318 183.938 115.578 184.025 114.881L184.547 112.007L186.986 112.399L186.376 115.839L190.6 116.667L191.341 112.574C191.471 111.746 191.558 110.962 191.689 110.135L191.907 108.48L185.157 107.696C185.244 106.869 185.331 106.042 185.375 105.258L185.418 104.779C185.418 104.474 185.462 104.126 185.505 103.821C185.549 103.168 185.593 102.514 185.636 101.861L188.075 101.948C188.075 102.645 187.988 103.298 187.944 103.995C187.901 104.343 187.901 104.648 187.857 104.997L187.813 105.476L192.124 105.824L192.168 105.388C192.342 103.429 192.386 101.469 192.429 99.5533L192.473 98.4647V97.5938V97.5502H185.68C185.68 97.1583 185.68 96.7228 185.636 96.2874C185.593 94.8068 185.549 93.2392 185.418 91.7151L187.857 91.5409L187.901 91.8892C187.988 92.7602 188.031 93.6746 188.031 94.5891V95.0681L192.342 94.8939V94.4585C192.342 93.5004 192.255 92.5424 192.168 91.5844L192.255 89.9732ZM168.74 40.9406C168.392 40.5487 168.218 40.1567 168.174 39.7213C168.131 39.2858 168.261 38.9375 168.653 38.5891C169.002 38.2843 169.35 38.1972 169.785 38.2843C170.221 38.3714 170.613 38.6762 171.005 39.1552C171.179 39.3294 171.353 39.5471 171.484 39.7213C170.743 40.3309 170.003 40.9406 169.306 41.5938C169.045 41.376 168.871 41.1583 168.74 40.9406ZM161.207 164.611L160.641 165.133L160.031 165.7L159.813 165.874C159.77 165.612 159.247 163.653 159.117 163.174C159.16 163.174 159.204 163.217 159.291 163.217L161.904 163.958L161.207 164.611Z" fill="#EDEDED"/>
<path d="M162.426 152.636L162.731 152.288L163.036 151.939C166.998 147.236 170.526 141.837 173.53 135.915L173.748 135.479C174.183 134.608 174.619 133.737 174.967 132.866C175.185 132.387 175.403 131.952 175.62 131.473C176.099 130.384 176.535 129.252 176.97 128.163L177.449 126.901C178.364 124.288 179.365 121.196 180.106 117.93L180.193 117.495L180.28 117.059C181.673 111.006 182.414 104.779 182.457 98.5086V98.0296V97.5506C182.414 91.28 181.673 85.0529 180.28 79.0001L180.193 78.6081C180.193 78.5646 180.193 78.5646 180.193 78.521L180.106 78.0856C179.322 74.8197 178.32 71.7279 177.406 69.1151L176.927 67.8523C176.491 66.7637 176.056 65.6315 175.577 64.5428C175.359 64.0638 175.141 63.6284 174.924 63.1494C174.532 62.2784 174.14 61.4075 173.661 60.5366L173.443 60.1011C170.439 54.1789 166.911 48.7792 162.949 44.0763L162.687 43.7279C162.687 43.7279 162.687 43.6843 162.644 43.6843L162.339 43.336C158.246 38.5459 153.673 34.2349 148.753 30.4899L148.361 30.2287L147.969 29.9674C142.918 26.266 137.474 23.1307 131.813 20.605L131.421 20.4308C131.421 20.4308 131.421 20.4308 131.378 20.4308L130.942 20.2567C125.412 17.8616 119.403 16.0763 113.045 14.9441L112.61 14.857C112.61 14.857 112.61 14.857 112.566 14.857L112.131 14.7699C105.816 13.6812 99.5458 13.3329 93.4929 13.6812H93.0575C93.0575 13.6812 93.0575 13.6812 93.0139 13.6812L92.5349 13.7248C86.3079 14.1167 80.1243 15.2053 74.1586 16.9472L73.7667 17.0778H73.7231L73.2876 17.2085C67.5396 18.9503 61.7915 21.4324 56.1741 24.6113L55.7822 24.829L55.3903 25.0467C52.5163 26.7015 49.86 28.5739 47.552 30.1851C45.5054 31.7528 42.8926 33.843 40.4105 36.1945L40.1057 36.5864L39.7573 36.8912C35.0544 41.42 31.0481 46.21 27.7387 51.2178L27.4774 51.6097C27.4774 51.6097 27.4774 51.6532 27.4338 51.6532L27.2161 52.0016C23.776 57.3142 20.9455 62.8881 18.8118 68.6797L18.6811 69.0716L18.5069 69.5071C16.4167 75.3857 14.9797 81.4822 14.2394 87.6657L14.1959 88.1011L14.0653 89.3204L13.804 92.9783C13.7604 94.0234 13.7169 95.0685 13.7169 96.1136C13.7169 96.7232 13.6733 97.2893 13.6733 97.9425C13.6733 98.5522 13.7169 99.1182 13.7169 99.7279C13.7169 100.773 13.7604 101.818 13.804 102.863L14.0653 106.521L14.1959 107.74L14.2394 108.219C14.9797 114.403 16.4167 120.499 18.5069 126.378L18.6811 126.813L18.8553 127.249C20.989 133.04 23.8195 138.614 27.2597 143.927L27.5209 144.319L27.7822 144.711C31.0917 149.719 35.0979 154.509 39.8009 158.994L40.1492 159.342C40.1928 159.342 40.1928 159.386 40.2363 159.386L40.4976 159.647C42.9797 161.999 45.636 164.089 47.6827 165.656C49.9471 167.311 52.6469 169.14 55.4774 170.795L55.8693 171.012C55.9564 171.056 55.9999 171.1 56.087 171.143L56.3048 171.274C61.9222 174.453 67.6702 176.978 73.4183 178.677L73.8537 178.807H73.8973L74.2892 178.938C80.255 180.68 86.4385 181.768 92.6656 182.16L93.0575 182.204H93.101L93.58 182.247C95.0606 182.334 96.4976 182.378 97.9782 182.378C102.638 182.378 107.428 181.943 112.218 181.159L112.653 181.072L113.089 180.984C119.446 179.809 125.456 178.023 130.986 175.672L131.378 175.498C131.378 175.498 131.378 175.498 131.421 175.498L131.857 175.324C137.561 172.798 142.961 169.663 148.012 165.961L148.361 165.7L148.753 165.439C153.673 161.694 158.246 157.383 162.339 152.593L162.426 152.636ZM161.991 151.678C157.767 156.686 153.02 161.171 147.882 165.003C142.656 168.879 136.995 172.145 131.073 174.714C125.369 177.24 119.098 179.068 112.522 180.244H112.479C105.904 181.376 99.4152 181.768 93.1446 181.376H93.0575C86.6127 180.984 80.2114 179.852 74.0279 178.023H73.9844C68.0186 176.282 62.0964 173.712 56.2612 170.359H56.2177C53.2565 168.705 50.4261 166.745 48.1181 165.047C45.9844 163.436 43.241 161.258 40.6718 158.776C35.7946 154.117 31.5707 149.152 28.2177 143.927C24.6469 138.44 21.6858 132.605 19.5085 126.596V126.552C17.3312 120.456 15.8506 114.142 15.0668 107.74L15.0233 107.261L14.9362 106.521L14.6749 102.863C14.6313 101.818 14.5878 100.817 14.5878 99.7714C14.5878 99.1618 14.5443 98.5957 14.5443 98.0296C14.5443 97.42 14.5878 96.8103 14.5878 96.2442C14.5878 95.1991 14.6313 94.1976 14.6749 93.1525L14.9362 89.5382L15.0233 88.7979L15.0668 88.3624V88.3189C15.8071 81.9176 17.3312 75.5599 19.5085 69.5071V69.4635C21.6858 63.4542 24.6469 57.619 28.2177 52.1322C31.5707 46.9503 35.7511 41.9861 40.6282 37.3702L40.7153 37.2831C43.2845 34.8445 46.0279 32.6237 48.1181 31.0125C50.4696 29.3142 53.2565 27.3546 56.2177 25.6999H56.2612C62.0964 22.3469 68.0621 19.7777 74.0279 18.0358H74.0715C80.255 16.2069 86.6998 15.0747 93.1881 14.6828C99.4587 14.2909 105.991 14.6828 112.566 15.815C119.185 16.9907 125.412 18.8632 131.117 21.3453H131.16C137.082 23.9145 142.7 27.1805 147.925 31.0125C153.064 34.8881 157.81 39.3733 162.034 44.3375C165.953 48.9969 169.48 54.266 172.485 60.1447L172.703 60.5366L172.746 60.5802C173.269 61.5382 173.704 62.5397 174.14 63.4977C174.358 63.9767 174.575 64.4557 174.793 64.8912C175.272 65.9798 175.708 67.0685 176.099 68.1571L176.578 69.42C177.493 72.1198 178.582 75.3422 179.322 78.7388V78.7823C180.802 85.0529 181.543 91.4977 181.586 97.9861C181.586 104.474 180.802 110.963 179.322 117.233V117.277C178.538 120.673 177.493 123.852 176.578 126.552L176.099 127.815C175.664 128.904 175.229 129.992 174.793 131.081C174.575 131.56 174.358 132.039 174.14 132.518C173.704 133.476 173.269 134.478 172.746 135.436L172.703 135.523L172.485 135.915C169.437 141.706 165.953 147.019 161.991 151.678Z" fill="#EDEDED"/>
<path d="M196 98.0294V97.5503C195.956 90.2346 195.086 82.9625 193.474 75.9081L193.387 75.4726C192.647 72.2502 191.645 68.8536 190.121 64.5426L189.686 63.3668C189.163 62.0169 188.597 60.5799 188.031 59.23C187.813 58.751 187.596 58.2284 187.378 57.7494C186.899 56.6608 186.376 55.5721 185.854 54.527L185.636 54.0916C182.152 47.2113 178.059 40.9407 173.443 35.4539L173.138 35.1056L172.834 34.7572C168.087 29.1833 162.774 24.132 156.983 19.7774L156.635 19.5161C156.635 19.5161 156.591 19.5161 156.591 19.4726L156.199 19.2113C150.277 14.8567 143.919 11.1553 137.257 8.23775L136.908 8.06357C136.908 8.06357 136.865 8.06357 136.865 8.02002L136.429 7.84584C129.897 5.05891 122.843 2.9687 115.484 1.61878L115.048 1.53169C115.048 1.53169 115.048 1.53169 115.005 1.53169L114.569 1.4446C107.21 0.181767 99.8942 -0.210146 92.7963 0.181767L92.3608 0.225313C92.3608 0.225313 92.3608 0.225313 92.3173 0.225313L91.8383 0.268859C84.5661 0.747863 77.3375 2.01069 70.3266 4.05735L69.9347 4.18799H69.8911L69.4557 4.31863C62.7061 6.36528 55.9565 9.23931 49.4246 12.9843L49.0327 13.202L48.6407 13.4197C45.1571 15.4228 41.9782 17.6872 39.4961 19.429C36.0995 22.0418 33.4432 24.2626 31.1353 26.4399L30.7869 26.7448L30.4386 27.0496C24.9953 32.2751 20.2924 37.8925 16.4168 43.7276L16.1555 44.1196L15.8942 44.5115C11.888 50.695 8.57854 57.2269 6.05288 64.02L5.87869 64.4555L5.70451 64.8909C3.26594 71.7712 1.56765 78.9127 0.696734 86.1413L0.653188 86.6203L0.479005 88.0574L0.174184 92.3248C0.0870918 93.6312 0.0870918 94.9376 0.0435459 96.2004C0.0435459 96.8101 0 97.4197 0 98.0294C0 98.639 0.0435459 99.2486 0.0435459 99.8583C0.0870918 101.121 0.0870918 102.427 0.174184 103.734L0.522551 108.001L0.74028 109.874C1.6112 117.102 3.30949 124.244 5.74806 131.124L5.92224 131.56L6.09642 131.995C8.62208 138.745 11.9316 145.32 15.9378 151.504L16.1555 151.852C16.1555 151.852 16.1555 151.896 16.1991 151.896L16.4603 152.288C20.3359 158.166 25.0389 163.784 30.4821 168.966L30.8305 169.27L31.1788 169.575C33.4868 171.753 36.1431 173.973 39.5397 176.586C41.9782 178.328 45.2006 180.592 48.6407 182.595L49.0327 182.813L49.4246 183.031C55.9565 186.732 62.7061 189.65 69.4557 191.697L69.8911 191.827H69.9347L70.3266 191.958C77.3375 194.004 84.5661 195.267 91.8383 195.746L92.3173 195.79C92.3173 195.79 92.3173 195.79 92.3608 195.79L92.7963 195.833C94.4946 195.92 96.2364 195.964 97.9782 195.964C103.421 195.964 108.995 195.485 114.569 194.527L115.048 194.44C115.048 194.44 115.048 194.44 115.092 194.44L115.527 194.353C122.93 193.003 129.941 190.913 136.429 188.126L136.865 187.952L137.3 187.777C143.963 184.86 150.32 181.158 156.199 176.847L156.591 176.586L156.939 176.325C162.687 171.97 168.044 166.919 172.79 161.345L173.095 160.997L173.4 160.648C178.016 155.118 182.109 148.847 185.593 142.011L185.81 141.575C186.376 140.487 186.855 139.398 187.334 138.309C187.552 137.83 187.77 137.308 187.988 136.829C188.597 135.435 189.12 134.042 189.686 132.648L190.121 131.516C191.645 127.205 192.647 123.809 193.387 120.586L193.474 120.151C195.129 113.053 195.956 105.781 196 98.5084V98.0294ZM192.473 120.412L192.386 120.847C191.689 123.896 190.687 127.118 189.294 131.211L188.858 132.343C188.336 133.693 187.77 135.13 187.204 136.48C186.986 136.959 186.768 137.482 186.551 137.961C186.028 139.18 185.462 140.399 184.809 141.575L184.591 141.967C181.107 148.76 177.014 154.944 172.398 160.387C167.521 166.179 161.991 171.361 156.025 175.846C149.972 180.331 143.397 184.12 136.516 187.124L136.473 187.168C129.81 190.085 122.538 192.219 114.918 193.569C107.341 194.875 99.7636 195.311 92.4479 194.875C84.9145 194.44 77.4681 193.134 70.2395 190.956H70.196C63.2286 188.91 56.2613 185.905 49.5117 182.029C45.9409 179.983 42.5879 177.675 40.0622 175.846C36.535 173.146 33.7916 170.838 31.4401 168.574C25.7792 163.218 20.902 157.382 16.9393 151.329C12.7589 144.972 9.36236 138.222 6.79316 131.211C4.2675 124.157 2.52566 116.754 1.65474 109.308L1.6112 108.872L1.48056 107.958L1.13219 103.69C1.0451 102.427 1.0451 101.121 1.00156 99.8583C1.00156 99.2486 0.958009 98.639 0.958009 98.0729C0.958009 97.4633 1.00156 96.8536 1.00156 96.2875C1.0451 95.0247 1.0451 93.7183 1.13219 92.4555L1.43701 88.2315L1.56765 87.2735L1.6112 86.8381V86.7945C2.48212 79.3482 4.22395 71.9454 6.79316 64.8909C9.36236 57.8801 12.7589 51.1304 16.9393 44.7727C20.9456 38.6328 25.7792 32.8412 31.4401 27.4415C33.7916 25.1771 36.535 22.8692 40.0622 20.1693C42.5879 18.3404 45.8974 15.9889 49.5117 13.9858C56.2177 10.1102 63.1851 7.10556 70.1524 5.05891H70.196C77.4246 2.92516 84.8709 1.61878 92.4044 1.18332C99.7201 0.747863 107.297 1.18332 114.874 2.4897C122.495 3.83962 129.767 6.01691 136.473 8.93449C143.353 11.9392 149.928 15.7276 155.981 20.2129C161.947 24.6981 167.434 29.8801 172.311 35.6281C176.927 41.0713 181.02 47.2549 184.504 54.048L184.722 54.4399L184.765 54.4835C185.375 55.6592 185.941 56.8785 186.463 58.0542C186.681 58.5332 186.899 59.0558 187.117 59.5348C187.726 60.8847 188.249 62.2782 188.771 63.6281L189.207 64.7603C190.644 68.8536 191.602 72.076 192.299 75.1242L192.386 75.5597C194.128 82.8754 194.998 90.4088 194.998 97.9423C195.086 105.563 194.171 113.096 192.473 120.412Z" fill="#EDEDED"/>
<path d="M38.3637 162.085C38.6686 162.39 38.8427 162.695 38.9298 162.913C39.0169 163.13 39.0169 163.348 38.7992 163.566C37.7105 164.872 35.4026 167.572 35.3591 167.659C35.272 167.746 35.2284 167.79 35.1849 167.833H35.1413L35.3591 167.616L34.0091 166.353L33.6608 166.048C32.006 164.524 30.4819 162.913 28.9578 161.302L28.8707 161.214L30.6997 159.56L33.1382 162.129L36.23 159.081L33.5737 156.294L31.048 153.376L25.8661 157.731C25.4742 157.252 25.0822 156.729 24.6903 156.25C24.4291 155.902 24.1678 155.597 23.9065 155.249L23.5146 154.726C23.2969 154.421 23.0356 154.116 22.8179 153.812L22.034 152.723L24.0371 151.286L24.7774 152.331C24.9952 152.636 25.2564 152.941 25.4742 153.246L26.1273 154.116L29.5239 151.46L28.8707 150.633C28.653 150.371 28.4353 150.067 28.2175 149.805L27.2595 148.455C27.0418 148.194 26.8676 147.889 26.6499 147.628C26.2144 147.018 25.7354 146.365 25.3435 145.712L25.0822 145.32L19.4213 149.065L18.9858 148.412C18.5504 147.715 18.1149 147.018 17.6794 146.365L16.1118 143.622L18.2891 142.446L20.0309 145.494L23.7323 143.274L21.8163 139.964C21.4679 139.354 21.1196 138.701 20.8147 138.048C20.6406 137.7 20.4664 137.351 20.2487 136.959L20.0309 136.567L13.978 139.616C13.499 138.658 13.0636 137.656 12.6281 136.742L12.2362 135.871C11.9314 135.218 11.6266 134.521 11.3653 133.824L13.6297 132.91C13.891 133.563 14.1958 134.26 14.5006 134.869L15.0667 136.132L19.0294 134.347L18.8116 133.911C18.0278 132.213 17.3311 130.427 16.6343 128.729L16.0682 127.292L9.71055 129.6L8.66545 126.552C8.40417 125.812 8.18644 125.028 7.96871 124.288C7.88162 124.026 7.83808 123.765 7.75098 123.504L10.146 122.851C10.2331 123.112 10.2766 123.33 10.3637 123.591C10.5815 124.331 10.7556 125.071 11.0169 125.812L11.1476 126.247L15.2844 124.941L15.1102 124.505C14.8925 123.852 14.6748 123.112 14.5006 122.459C14.4135 122.067 14.2829 121.675 14.1522 121.283L13.7168 119.672L13.2378 117.581L6.61879 119.149C6.13979 117.19 5.79142 115.186 5.44305 113.227L5.39951 112.922L7.83807 112.53L8.44772 116.014L12.6717 115.186L12.0185 111.441L11.5395 107.653L4.78986 108.437C4.70277 107.609 4.61568 106.826 4.57213 105.998L4.4415 104.431C4.39795 103.647 4.31086 102.863 4.31086 102.079L6.79297 101.992C6.83652 102.776 6.88007 103.516 6.92361 104.256L7.0107 105.519L11.3217 105.171L11.2782 104.692C11.104 102.994 11.0605 101.252 11.0605 99.597C11.0605 99.0745 11.0605 98.5084 11.0169 97.9858V97.5503H4.39795L4.4415 96.5052C4.48504 94.7634 4.52859 92.978 4.65923 91.1926L7.14134 91.3668C7.14134 91.541 7.0978 91.7152 7.0978 91.8894C7.05425 92.7167 6.96716 93.5877 6.96716 94.4586V94.894L11.2782 95.0682V94.5892C11.2782 93.8054 11.3217 92.978 11.4088 92.2377C11.4524 91.9329 11.4524 91.6281 11.4959 91.2797L11.5395 90.6701C11.583 89.7992 11.6701 88.8412 11.8008 87.9702L11.8878 87.4912L5.09468 86.7074L5.18178 85.9236C5.26887 85.0962 5.39951 84.3124 5.4866 83.5286L6.05269 80.3933L8.49126 80.8723L7.88162 84.3559L12.1491 85.0091L12.8023 81.2206C12.9329 80.5239 13.0636 79.8272 13.2378 79.1304C13.3249 78.7385 13.4119 78.3466 13.499 77.9547L13.5861 77.5192L7.0107 75.9516L7.31552 74.6452L7.79453 72.9034C7.92517 72.5115 8.01226 72.076 8.1429 71.6841C8.31708 71.0744 8.49126 70.4648 8.66545 69.8552L11.0169 70.5954C10.7992 71.2051 10.6686 71.7712 10.4944 72.3808C10.4073 72.7727 10.2766 73.1646 10.146 73.5566L10.0154 73.992L14.1958 75.1678L14.3264 74.7323C14.457 74.3404 14.5441 73.9485 14.6748 73.5566C14.849 72.8598 15.0667 72.1631 15.2844 71.5099L16.5037 67.8956L10.146 65.5877L10.3202 65.1958C11.0169 63.3668 11.7572 61.4944 12.5846 59.6654L14.849 60.7105C14.7619 60.8847 14.6748 61.1024 14.5877 61.2766C14.2393 62.0169 13.891 62.7572 13.6297 63.541L13.4555 63.9765L17.4617 65.6312L17.6359 65.1958C17.8972 64.499 18.202 63.7587 18.5504 63.1056C18.681 62.8007 18.8552 62.4524 18.9858 62.1475L19.6826 60.6234C19.8567 60.2751 19.9874 59.9702 20.1616 59.6654L20.6406 58.7074L14.5877 55.6592C14.7183 55.4415 14.8054 55.1802 14.9361 54.9625C15.2844 54.2657 15.6328 53.569 16.0247 52.8723L17.5924 50.1289L19.6826 51.3917L17.9407 54.4399L21.7292 56.5301L23.6017 53.2206L25.6483 49.9982L27.1724 47.6903C27.1724 47.6903 29.9594 44.2937 27.9127 43.2051C25.6483 41.9423 23.8194 44.6421 23.384 45.8178L21.076 44.2502C21.5115 43.6405 21.9469 43.0309 22.3824 42.4648C22.6001 42.2035 22.7743 41.9423 22.9485 41.7681C23.1227 41.5939 23.2969 41.4632 23.4275 41.3762C23.5581 41.2891 23.7759 41.2891 23.9501 41.2891C24.1678 41.2891 24.3855 41.3762 24.6468 41.4632C24.6903 41.3762 24.7774 41.2891 24.821 41.2455C24.2984 40.9407 23.7759 40.6359 23.2533 40.3311C21.7728 42.2035 20.3793 44.1631 19.0729 46.1227C19.16 46.1662 19.2036 46.2097 19.2906 46.2533C19.5519 45.9485 19.8132 45.6872 20.0309 45.5566C20.2487 45.4259 20.4664 45.4259 20.7277 45.6001C22.1211 46.5146 25.1258 48.4741 25.2129 48.5177C25.3 48.5612 25.3871 48.6483 25.4306 48.6919L24.3855 50.3031L22.8179 52.7852L21.3808 55.3108L19.2035 54.1351L20.9454 51.0869L17.244 48.866L15.1973 52.4368C14.7619 53.1335 14.4135 53.8738 14.0651 54.5706C13.891 54.9189 13.6732 55.3108 13.499 55.7028L13.2813 56.1382L19.3342 59.1864L19.2906 59.2735C19.1165 59.6219 18.9423 59.9267 18.7681 60.2751L18.0714 61.8427C17.9407 62.1475 17.7665 62.4959 17.6359 62.8007C17.3746 63.3668 17.1133 63.9329 16.8956 64.5426L14.6312 63.6281C14.849 63.0185 15.1538 62.4088 15.4151 61.8427C15.5457 61.4944 15.7199 61.1895 15.8505 60.8412L16.0247 60.4057L12.1056 58.6203L11.8878 59.0122C10.9734 60.9718 10.146 63.0185 9.40573 65.0216L9.23154 65.457L8.97027 66.1973V66.2409V66.2844L15.3715 68.5923L14.457 71.3357C14.1958 72.0325 14.0216 72.7292 13.8039 73.4259C13.7603 73.6437 13.6732 73.9049 13.5861 74.1227L11.1911 73.4695C11.2782 73.2082 11.3217 72.9905 11.4088 72.7292C11.6266 72.0325 11.8007 71.2922 12.062 70.5519L12.2362 70.1164L8.09935 68.8101L7.92517 69.2455C7.66389 70.0293 7.44616 70.8132 7.22843 71.5534C7.0978 71.9454 7.0107 72.3808 6.88007 72.7727L6.40106 74.5581L5.87851 76.779L12.4975 78.3466C12.4539 78.6079 12.3668 78.8256 12.3233 79.0433C12.1491 79.7401 11.9749 80.4804 11.8443 81.2206L11.3217 84.0947L8.88318 83.7028L9.49282 80.2626L5.26887 79.4353L4.52859 83.5286C4.39795 84.3559 4.31086 85.1398 4.18022 85.9671L4.09313 86.751L4.00604 87.6654L10.7556 88.4493C10.6686 89.2331 10.5815 89.9734 10.5379 90.7572L10.4944 91.3668C10.4944 91.6716 10.4508 91.9765 10.4073 92.3248C10.3637 92.978 10.3202 93.6312 10.2766 94.2844L7.83807 94.1973C7.83807 93.5006 7.92517 92.8474 7.96871 92.1507C8.01226 91.8023 8.01226 91.4975 8.0558 91.1491L8.09935 90.6701L3.78831 90.1911L3.74476 90.6265C3.57058 92.5861 3.52703 94.5457 3.48349 96.4617L3.43994 98.4648H10.2331C10.2331 98.8567 10.2331 99.2486 10.2766 99.6405C10.3202 101.165 10.3637 102.776 10.4944 104.343L8.0558 104.518L8.01226 104.169C7.92517 103.298 7.88162 102.384 7.88162 101.469V100.99L3.52703 101.165V101.6C3.52703 102.558 3.61412 103.56 3.70122 104.474L3.83185 106.042C3.8754 106.869 3.96249 107.697 4.04958 108.48L4.13668 109.395L10.8863 108.611L11.2782 111.529L11.8008 114.403L9.36218 114.882L8.75254 111.441L4.48504 112.095L4.70277 113.358C5.09468 115.491 5.44305 117.669 6.00915 119.759L6.13979 120.194L12.7152 118.627L12.9765 119.846L13.4555 121.501C13.5861 121.892 13.6732 122.284 13.8039 122.633C13.978 123.199 14.1087 123.765 14.2829 124.288L11.9314 125.028C11.7572 124.462 11.583 123.852 11.4088 123.286C11.3217 122.894 11.1911 122.502 11.0605 122.067L10.9298 121.631L6.74943 122.763L6.88007 123.199C7.0107 123.591 7.0978 123.983 7.22843 124.418C7.44616 125.202 7.66389 125.986 7.92517 126.726L8.97027 129.818L9.27509 130.689L15.6763 128.381L15.8941 128.947C16.5037 130.558 17.1569 132.169 17.8972 133.781L15.6763 134.782L15.5021 134.347C15.1538 133.563 14.8054 132.779 14.5006 131.995L14.3264 131.56L10.3202 133.214L10.4944 133.65C10.7992 134.521 11.1911 135.348 11.583 136.176L11.9749 137.046C12.4539 138.135 12.9765 139.267 13.5426 140.356L13.7603 140.748L19.8132 137.7C19.9438 137.917 20.0309 138.135 20.1616 138.353C20.5099 139.006 20.8147 139.659 21.2067 140.312L22.6872 142.838L20.597 144.101L18.8552 141.053L15.0667 143.143L17.1133 146.714C17.5488 147.41 17.9843 148.107 18.4197 148.804L18.8552 149.457L19.3777 150.241L25.0387 146.496C25.3871 147.018 25.779 147.541 26.1273 148.064C26.3451 148.325 26.5193 148.63 26.6934 148.891L27.6515 150.284C27.8692 150.589 28.0869 150.851 28.3046 151.155L28.3917 151.242L26.4322 152.767L26.3451 152.636C26.1273 152.331 25.8661 152.07 25.6483 151.765L24.342 149.936L20.8147 152.462L22.1647 154.334C22.3824 154.639 22.6437 154.987 22.9049 155.292L23.2969 155.815C23.5581 156.163 23.8194 156.468 24.0807 156.816C24.5597 157.426 25.0387 158.079 25.6048 158.689L25.9096 159.037L31.0916 154.683L33.0076 156.903L35.0107 159.037L33.2689 160.779L30.8738 158.253L27.695 161.171L28.4353 161.955C29.2191 162.782 30.0029 163.609 30.8303 164.437L36.0993 169.662C36.0993 169.662 39.104 172.841 40.4539 170.969C41.978 168.878 39.5395 166.701 38.4073 166.179L40.2362 164.045C40.8023 164.524 41.3249 165.046 41.8474 165.569C42.1087 165.787 42.2829 166.004 42.457 166.222C42.6312 166.396 42.7183 166.571 42.7619 166.745C42.8054 166.919 42.849 167.093 42.8054 167.267C42.7619 167.441 42.6748 167.703 42.5006 167.92C42.5877 168.008 42.6312 168.051 42.7183 168.138C43.0667 167.659 43.4586 167.18 43.807 166.701C42.1087 165.003 40.3668 163.392 38.5815 161.824C38.4944 161.955 38.4508 162.042 38.3637 162.085ZM25.1693 46.8194C24.7774 46.5146 24.342 46.2533 23.9501 45.9485C24.1242 45.6872 24.3855 45.3824 24.6032 45.0776C24.8645 44.7727 25.1258 44.5115 25.3871 44.2937C25.6919 44.076 25.9532 43.9018 26.258 43.8147C26.5628 43.7276 26.8241 43.7712 27.1289 43.9454C27.3031 44.076 27.4337 44.2502 27.4773 44.4679V44.5115C27.6514 45.2082 27.2595 46.0791 26.8241 46.7323C26.6063 47.0371 26.3886 47.2984 26.2144 47.6032L26.1709 47.5597L26.258 47.6032L25.1693 46.8194ZM38.7556 167.398C39.0169 167.703 39.2782 168.008 39.4524 168.312C39.6266 168.617 39.7572 168.922 39.8008 169.227C39.8443 169.532 39.7572 169.837 39.583 170.054C39.4524 170.228 39.2346 170.316 39.0605 170.359H39.0169C38.3202 170.446 37.4928 169.924 36.8832 169.445C36.6219 169.227 36.3606 168.966 36.0993 168.748L36.1429 168.704L36.0993 168.791L36.9703 167.79C37.3186 167.398 37.6235 167.05 37.9718 166.701C38.2331 166.875 38.4944 167.137 38.7556 167.398Z" fill="#EDEDED"/>
<path d="M105.076 102.428L151.496 102.253H105.686L105.076 102.428Z" fill="#EDEDED"/>
<path d="M48.118 109.961C48.118 109.786 48.118 109.656 48.0744 109.569C48.0744 109.438 47.9873 109.351 47.9438 109.264C47.8567 109.177 47.7261 109.133 47.5519 109.09C47.3777 109.046 47.16 109.003 46.8552 109.003V108.654H49.5985L52.7774 115.578L55.8692 108.654H58.7432V109.003C58.5255 109.046 58.3513 109.046 58.2206 109.046C58.09 109.09 58.0029 109.09 57.9158 109.133C57.8287 109.177 57.7852 109.22 57.7416 109.264C57.6981 109.307 57.6545 109.395 57.611 109.482C57.5239 109.83 57.4803 110.091 57.4803 110.309V116.841C57.4803 117.015 57.5239 117.189 57.5674 117.276C57.611 117.363 57.6981 117.494 57.7852 117.538C57.8723 117.581 58.0029 117.625 58.1335 117.668C58.2642 117.712 58.3948 117.712 58.5255 117.712H58.6996V118.017H54.7805V117.712C55.216 117.668 55.5208 117.581 55.6514 117.494C55.7821 117.407 55.9127 117.276 55.9562 117.015V110.396L52.4726 118.017H52.2984L48.9018 110.745V116.71C48.9018 116.972 48.9454 117.189 49.076 117.32C49.2066 117.451 49.2937 117.538 49.4244 117.538C49.555 117.581 49.8163 117.625 50.2517 117.668V117.973H46.7681V117.668C47.0729 117.625 47.2906 117.625 47.4648 117.581C47.639 117.538 47.7696 117.494 47.8567 117.451C48.0744 117.363 48.1615 117.146 48.1615 116.797L48.118 109.961Z" fill="#EDEDED"/>
<path d="M77.3377 112.356C77.207 112.661 77.0329 112.922 76.8151 113.14C76.5974 113.357 76.3361 113.531 76.0313 113.662C75.7265 113.793 75.4217 113.88 75.0733 113.967C74.7249 114.01 74.3766 114.054 73.9411 114.098C73.5056 114.141 73.1137 114.141 72.6347 114.141V116.667C72.6347 116.928 72.6783 117.146 72.7218 117.276C72.7654 117.407 72.896 117.494 72.9831 117.581C73.0266 117.581 73.0702 117.625 73.1573 117.668C73.2444 117.712 73.3315 117.712 73.4186 117.712C73.5056 117.712 73.5927 117.755 73.6798 117.755C73.7669 117.755 73.854 117.755 73.854 117.755V118.06H70.022V117.755L70.8929 117.581C70.98 117.538 71.0671 117.451 71.1542 117.276C71.2413 117.102 71.2413 116.928 71.2413 116.623V110.178C71.2413 109.83 71.1542 109.525 70.98 109.307C70.8058 109.09 70.501 109.003 70.022 109.003V108.654H73.5056C74.2459 108.654 74.8991 108.741 75.3781 108.916C75.8571 109.09 76.249 109.307 76.5539 109.569C76.8587 109.83 77.0329 110.135 77.1635 110.44C77.2941 110.745 77.3377 111.049 77.3377 111.354C77.5119 111.703 77.4683 112.051 77.3377 112.356ZM76.1619 111.224C76.1619 110.875 76.0749 110.57 75.8571 110.353C75.6829 110.091 75.4217 109.917 75.1604 109.743C74.8991 109.569 74.5943 109.482 74.2895 109.395C73.9846 109.307 73.6798 109.264 73.4621 109.264C73.2444 109.264 73.0702 109.264 72.9395 109.307C72.8089 109.351 72.7218 109.395 72.7218 109.482V113.444C73.2879 113.444 73.7669 113.401 74.2024 113.357C74.6378 113.314 74.9862 113.183 75.2475 113.052C75.5088 112.922 75.77 112.704 75.9007 112.399C76.0749 112.138 76.1184 111.746 76.1619 111.267V111.224Z" fill="#EDEDED"/>
<path d="M68.4977 117.625C68.3235 117.538 68.2364 117.451 68.1493 117.32C68.0623 117.189 68.0187 117.059 67.9752 116.885C67.9316 116.71 67.9316 116.536 67.9316 116.318V110.527C67.9316 110.527 67.9316 110.527 67.9316 110.483V108.611H66.7123L66.4075 109.133L62.3142 115.665V110.44C62.3142 110.178 62.3142 109.961 62.3577 109.743C62.3577 109.569 62.4448 109.395 62.5319 109.264C62.619 109.133 62.7497 109.046 62.8803 109.003C63.0545 108.959 63.2287 108.916 63.5335 108.916V108.611H59.5708V108.916C59.8321 108.916 60.0498 109.003 60.224 109.046C60.3982 109.09 60.4853 109.22 60.5724 109.351C60.6594 109.482 60.703 109.612 60.7465 109.787C60.7901 109.961 60.7901 110.135 60.7901 110.353V118.06H62.1836L62.3142 117.843L66.4075 111.311V116.275C66.4075 116.536 66.4075 116.754 66.364 116.972C66.3204 117.189 66.2769 117.32 66.1898 117.451C66.1027 117.581 65.9721 117.668 65.8414 117.712C65.6672 117.755 65.4495 117.799 65.1882 117.799V118.104H69.1074V117.799C68.8896 117.712 68.6719 117.668 68.4977 117.625Z" fill="#EDEDED"/>
<path d="M97.4123 117.625C97.2382 117.538 97.1511 117.451 97.064 117.32C96.9769 117.189 96.9333 117.059 96.8898 116.885C96.8462 116.71 96.8463 116.536 96.8463 116.318V110.527C96.8463 110.527 96.8463 110.527 96.8463 110.483V108.611H95.627L95.3221 109.133L91.2288 115.665V110.44C91.2288 110.178 91.2288 109.961 91.2724 109.743C91.2724 109.569 91.3595 109.395 91.4466 109.264C91.5336 109.133 91.6643 109.046 91.7949 109.003C91.9691 108.959 92.1433 108.916 92.4481 108.916V108.611H88.4419V108.916C88.7032 108.916 88.9209 109.003 89.0951 109.046C89.2693 109.09 89.3564 109.22 89.4435 109.351C89.5305 109.482 89.5741 109.612 89.6176 109.787C89.6612 109.961 89.6612 110.135 89.6612 110.353V118.06H91.0546L91.1853 117.843L95.2786 111.311V116.275C95.2786 116.536 95.2786 116.754 95.2351 116.972C95.1915 117.189 95.148 117.32 95.0609 117.451C94.9738 117.581 94.8431 117.668 94.7125 117.712C94.5383 117.755 94.3206 117.799 94.0593 117.799V118.104H97.9784V117.799C97.8043 117.712 97.5865 117.668 97.4123 117.625Z" fill="#EDEDED"/>
<path d="M78.9921 110.178C78.9921 109.743 78.9051 109.438 78.6873 109.264C78.4696 109.09 78.2083 109.003 77.8164 109.003V108.654H81.6484V109.003C81.1694 109.003 80.8646 109.09 80.734 109.351C80.6469 109.743 80.5598 110.048 80.5598 110.309V112.922H84.6966V110.309C84.6966 109.874 84.566 109.569 84.3483 109.351C84.087 109.133 83.8257 109.003 83.5209 109.003V108.654H87.353V109.003C86.961 109.003 86.6562 109.133 86.5256 109.395C86.3949 109.656 86.2643 110.004 86.2643 110.527V116.318C86.2643 116.536 86.2643 116.71 86.3079 116.884C86.3514 117.059 86.3949 117.189 86.482 117.32C86.5691 117.451 86.6998 117.538 86.8304 117.625C86.961 117.712 87.2223 117.755 87.4836 117.755V118.06H83.5645V117.755C83.8257 117.755 84.0435 117.712 84.2176 117.668C84.3918 117.625 84.4789 117.494 84.566 117.407C84.6531 117.32 84.6967 117.146 84.7402 116.928C84.7837 116.71 84.7837 116.493 84.7837 116.231V113.706H80.6469V116.667C80.6469 116.884 80.6469 117.015 80.6904 117.146C80.734 117.276 80.7775 117.363 80.8646 117.451C80.9517 117.538 81.0823 117.581 81.213 117.625C81.3436 117.668 81.6049 117.712 81.8662 117.755V118.06H77.947V117.755C78.2083 117.755 78.426 117.712 78.6002 117.625C78.7744 117.538 78.8615 117.494 78.9486 117.407C79.0357 117.32 79.0792 117.189 79.1228 117.059C79.1663 116.928 79.1663 116.754 79.1663 116.536L78.9921 110.178Z" fill="#EDEDED"/>
<path d="M107.471 117.625C107.297 117.538 107.21 117.451 107.123 117.32C107.036 117.189 106.992 117.059 106.949 116.885C106.905 116.71 106.905 116.536 106.905 116.318V110.527C106.905 110.527 106.905 110.527 106.905 110.483V108.611H105.686L105.381 109.133L101.288 115.665V110.44C101.288 110.178 101.288 109.961 101.331 109.743C101.331 109.569 101.418 109.395 101.506 109.264C101.593 109.133 101.723 109.046 101.854 109.003C102.028 108.959 102.202 108.916 102.507 108.916V108.611H98.5444V108.916C98.8057 108.916 99.0234 109.003 99.1976 109.046C99.3718 109.09 99.4589 109.22 99.546 109.351C99.6331 109.482 99.6766 109.612 99.7202 109.787C99.7637 109.961 99.7637 110.135 99.7637 110.353V118.06H101.157L101.288 117.843L105.381 111.311V116.275C105.381 116.536 105.381 116.754 105.338 116.972C105.294 117.189 105.25 117.32 105.163 117.451C105.076 117.581 104.946 117.668 104.815 117.712C104.641 117.755 104.423 117.799 104.162 117.799V118.104H108.081V117.799C107.863 117.712 107.646 117.668 107.471 117.625Z" fill="#EDEDED"/>
<path d="M104.205 107.348C104.031 107.522 103.857 107.61 103.596 107.61C103.334 107.61 103.16 107.522 102.986 107.348C102.812 107.174 102.725 107 102.725 106.739C102.725 106.477 102.812 106.303 102.986 106.129C103.16 105.955 103.334 105.868 103.596 105.868C103.857 105.868 104.031 105.955 104.205 106.129C104.379 106.303 104.466 106.477 104.466 106.739C104.466 107 104.336 107.218 104.205 107.348Z" fill="#EDEDED"/>
<path d="M118.532 118.017H113.916V117.668C114.177 117.625 114.351 117.625 114.526 117.581C114.7 117.538 114.787 117.538 114.83 117.451C114.874 117.363 114.918 117.32 114.961 117.233C114.961 117.146 114.961 117.015 114.961 116.884V110.265C114.961 110.048 114.961 109.874 114.918 109.699C114.874 109.525 114.83 109.438 114.787 109.307C114.7 109.22 114.613 109.133 114.482 109.09C114.351 109.046 114.177 109.003 113.96 108.959V108.654H117.705C118.271 108.654 118.75 108.741 119.185 108.872C119.621 109.003 119.969 109.22 120.274 109.438C120.579 109.656 120.796 109.917 120.97 110.222C121.145 110.527 121.188 110.832 121.188 111.136C121.188 111.528 121.058 111.92 120.84 112.312C120.622 112.704 120.23 112.965 119.708 113.183C120.491 113.444 121.014 113.749 121.319 114.141C121.624 114.533 121.754 115.012 121.754 115.578C121.711 117.189 120.622 118.017 118.532 118.017ZM119.533 110.396C119.403 110.178 119.185 109.961 118.967 109.83C118.75 109.699 118.488 109.569 118.184 109.482C117.879 109.395 117.617 109.351 117.356 109.351H116.267V112.965C116.834 112.965 117.356 112.965 117.748 112.922C118.184 112.878 118.488 112.791 118.793 112.704C119.098 112.573 119.316 112.399 119.49 112.182C119.664 111.964 119.751 111.659 119.751 111.224C119.751 110.875 119.708 110.614 119.533 110.396ZM119.882 114.402C119.621 114.141 119.272 113.967 118.88 113.836C118.488 113.706 118.053 113.619 117.617 113.619C117.182 113.575 116.747 113.575 116.398 113.575V117.363H117.922C118.271 117.363 118.575 117.32 118.88 117.233C119.185 117.146 119.446 117.015 119.664 116.841C119.882 116.667 120.056 116.449 120.187 116.231C120.317 116.014 120.404 115.709 120.404 115.447C120.317 115.012 120.143 114.664 119.882 114.402Z" fill="#EDEDED"/>
<path d="M132.205 118.104H128.112L128.242 116.057C128.547 115.97 128.852 115.84 129.113 115.578C129.375 115.317 129.592 115.099 129.767 114.751C129.941 114.446 130.071 114.098 130.202 113.706C130.333 113.314 130.376 112.922 130.376 112.53C130.376 112.095 130.333 111.703 130.202 111.311C130.071 110.919 129.941 110.571 129.679 110.222C129.462 109.917 129.157 109.656 128.765 109.438C128.373 109.221 127.938 109.134 127.415 109.134C126.892 109.134 126.457 109.221 126.065 109.395C125.673 109.569 125.368 109.83 125.151 110.135C124.889 110.44 124.715 110.788 124.628 111.18C124.541 111.572 124.454 112.008 124.454 112.443C124.454 112.791 124.497 113.14 124.585 113.488C124.672 113.837 124.802 114.185 124.976 114.533C125.151 114.882 125.368 115.143 125.63 115.404C125.891 115.665 126.196 115.84 126.501 115.97L126.588 118.017H122.625V115.84H122.973C123.017 116.101 123.148 116.362 123.235 116.623C123.322 116.885 123.539 116.972 123.801 116.972H125.804V116.449C125.368 116.362 124.933 116.188 124.541 115.927C124.149 115.665 123.844 115.361 123.583 115.012C123.322 114.664 123.104 114.272 122.973 113.837C122.799 113.401 122.756 112.966 122.756 112.53C122.756 112.008 122.843 111.529 123.017 111.05C123.191 110.571 123.496 110.135 123.844 109.787C124.193 109.438 124.715 109.134 125.281 108.872C125.847 108.611 126.544 108.524 127.371 108.524C128.199 108.524 128.896 108.655 129.462 108.872C130.028 109.09 130.507 109.395 130.855 109.787C131.204 110.179 131.465 110.614 131.639 111.093C131.813 111.572 131.9 112.095 131.9 112.617C131.9 113.053 131.857 113.445 131.726 113.88C131.595 114.272 131.421 114.664 131.16 115.012C130.899 115.361 130.594 115.665 130.202 115.927C129.81 116.188 129.375 116.406 128.896 116.536V117.059H130.986C131.247 117.059 131.465 116.928 131.595 116.711C131.726 116.493 131.813 116.232 131.857 115.927H132.205V118.104Z" fill="#EDEDED"/>
<path d="M139.347 110.178C139.347 109.743 139.26 109.438 139.042 109.264C138.824 109.09 138.563 109.003 138.171 109.003V108.654H142.003V109.003C141.524 109.003 141.219 109.09 141.088 109.351C141.001 109.743 140.914 110.048 140.914 110.309V112.922H145.051V110.309C145.051 109.874 144.921 109.569 144.703 109.351C144.442 109.133 144.18 109.003 143.875 109.003V108.654H147.707V109.003C147.316 109.003 147.011 109.133 146.88 109.395C146.749 109.656 146.662 110.004 146.662 110.527V116.318C146.662 116.536 146.662 116.71 146.706 116.884C146.749 117.059 146.793 117.189 146.88 117.32C146.967 117.451 147.098 117.538 147.228 117.625C147.359 117.712 147.62 117.755 147.882 117.755V118.06H143.962V117.755C144.224 117.755 144.441 117.712 144.616 117.668C144.79 117.625 144.877 117.494 144.964 117.407C145.051 117.32 145.095 117.146 145.138 116.928C145.182 116.71 145.182 116.493 145.182 116.231V113.706H141.045V116.667C141.045 116.884 141.045 117.015 141.088 117.146C141.132 117.276 141.176 117.363 141.263 117.451C141.35 117.538 141.48 117.581 141.611 117.625C141.742 117.668 142.003 117.712 142.264 117.755V118.06H138.345V117.755C138.606 117.755 138.824 117.712 138.998 117.625C139.172 117.538 139.26 117.494 139.347 117.407C139.434 117.32 139.477 117.189 139.521 117.059C139.521 116.928 139.564 116.754 139.564 116.536L139.347 110.178Z" fill="#EDEDED"/>
<path d="M132.946 118.017V117.712C133.468 117.712 133.817 117.625 133.991 117.495C134.165 117.32 134.252 117.103 134.252 116.841V110.484C134.252 110.179 134.252 109.918 134.165 109.7C134.122 109.526 134.034 109.351 133.947 109.264C133.86 109.177 133.73 109.09 133.555 109.09C133.381 109.047 133.207 109.047 132.946 109.047V108.698H137.083V109.047C136.778 109.09 136.56 109.134 136.386 109.177C136.212 109.221 136.081 109.308 135.994 109.395C135.907 109.482 135.82 109.613 135.82 109.787C135.776 109.961 135.776 110.179 135.776 110.44V116.841C135.776 117.451 136.212 117.712 137.126 117.712V118.017H132.946Z" fill="#EDEDED"/>
<path d="M134.339 107.348C134.165 107.522 133.991 107.61 133.729 107.61C133.468 107.61 133.294 107.522 133.12 107.348C132.945 107.174 132.858 107 132.858 106.739C132.858 106.477 132.945 106.303 133.12 106.129C133.294 105.955 133.468 105.868 133.729 105.868C133.991 105.868 134.165 105.955 134.339 106.129C134.513 106.303 134.557 106.477 134.557 106.739C134.557 107 134.513 107.218 134.339 107.348Z" fill="#EDEDED"/>
<path d="M136.865 107.348C136.691 107.522 136.516 107.61 136.255 107.61C135.994 107.61 135.82 107.522 135.646 107.348C135.471 107.174 135.384 107 135.384 106.739C135.384 106.477 135.471 106.303 135.646 106.129C135.82 105.955 135.994 105.868 136.255 105.868C136.516 105.868 136.691 105.955 136.865 106.129C137.039 106.303 137.083 106.477 137.083 106.739C137.083 107 137.039 107.218 136.865 107.348Z" fill="#EDEDED"/>
<path d="M155.895 132.648L140.131 124.113C150.93 124.026 161.73 123.895 172.485 123.721C123.017 122.85 73.0267 122.85 23.5586 123.634C34.1402 123.808 44.7654 123.939 55.3906 124.07L39.5399 132.648L56.4357 124.07C61.6612 124.113 66.9303 124.157 72.1558 124.2L48.5539 145.668L73.4622 124.2C76.2491 124.2 79.036 124.244 81.823 124.244L60.3984 156.163L83.0858 124.244C84.9583 124.244 86.8307 124.244 88.7468 124.244L74.4637 163.522L89.9661 124.244C91.4902 124.244 92.9707 124.244 94.4948 124.244L89.8354 167.267L95.627 124.244C97.0205 124.244 98.4139 124.244 99.851 124.244L105.643 167.267L100.983 124.244C102.507 124.244 103.988 124.244 105.512 124.244L121.014 163.479L106.731 124.287C108.604 124.287 110.52 124.287 112.392 124.287L135.036 156.206L113.655 124.287C116.442 124.287 119.229 124.287 122.059 124.244L146.924 145.668L123.366 124.2C128.635 124.157 133.904 124.157 139.129 124.113L155.895 132.648Z" fill="#EDEDED"/>
<path d="M112.566 68.6357L110.345 70.0728L110.215 70.2034L100.025 76.8659V74.8628L110.302 69.7679H110.345L110.389 69.7244L112.566 68.6357Z" fill="#EDEDED"/>
<path d="M108.429 56.6606C107.297 55.0929 105.903 53.7865 104.379 52.785L106.687 28.7041L103.508 52.2624C103.029 52.0011 102.594 51.7834 102.115 51.6092V51.6963L99.8506 55.8332L103.291 54.1349C103.421 54.1349 103.552 54.1349 103.726 54.1349C103.77 54.1349 103.813 54.1349 103.857 54.1349C103.944 54.1349 104.031 54.1349 104.118 54.1784C104.162 54.1784 104.249 54.1784 104.292 54.222C106.382 54.4833 108.081 56.2686 108.429 56.6606Z" fill="#EDEDED"/>
<path d="M114.961 88.5361L99.3281 96.8969L116.529 90.1038L114.961 88.5361Z" fill="#EDEDED"/>
<path d="M121.885 96.4619L122.756 97.5941L169.916 84.748L121.885 96.4619Z" fill="#EDEDED"/>
<path d="M153.369 53.2207L114.264 87.5349L114.613 88.2751L114.743 88.4058L103.247 94.7199V82.1352V80.6546L110.345 75.5162V70.073L110.389 69.7246L110.345 69.7681H110.302L110.215 70.2036L109.169 74.5146L101.984 79.6095L102.202 82.7013L103.204 94.7635L100.635 96.2005L99.3281 96.8972L100.025 96.6359L103.247 95.3731L116.485 90.1476L116.529 90.1041L115.092 88.667L153.369 53.2207Z" fill="#EDEDED"/>
<path d="M112.261 83.2236L139.956 41.3325L111.651 82.0044L112.261 83.2236Z" fill="#EDEDED"/>
<path d="M118.662 92.3686H118.75L119.011 92.717L163.558 67.9829L118.009 91.7154L118.662 92.3686Z" fill="#EDEDED"/>
<path d="M91.969 52.5676L88.7466 28.748L91.3593 52.9596C91.5771 52.8289 91.7513 52.6983 91.969 52.5676Z" fill="#EDEDED"/>
<path d="M84.1306 64.9782L71.8071 33.0591L83.6516 66.5459C83.6081 66.5023 83.6081 66.0669 84.1306 64.9782Z" fill="#EDEDED"/>
<path d="M98.0218 74.5148L112 67.5474C112 67.4603 124.106 33.0591 124.106 33.0591C124.106 33.0591 111.826 65.0653 111.826 65.0217L104.162 70.2908L90.2706 58.9689L97.8476 62.2784V42.0295H97.8912L102.899 43.902L97.8476 40.7667L92.7092 43.9891L93.6672 51.7838L95.9316 55.9207L90.8367 53.4385C87.3531 56.0513 84.8709 60.3623 84.2178 65.0653L96.0187 73.2084L82.4324 66.9813V77.2581L85.6548 78.8693L84.3919 82.0917L55.521 41.4634L83.7823 83.6158L82.084 87.8398L42.1089 53.3515L81.126 88.8849L81.8663 88.0575L92.2737 95.8087L92.5786 95.7216L92.7092 95.8087V80.1757L89.0078 77.8242V77.7807L87.2224 76.6485V76.692L85.6112 75.6905V70.5521V70.5956L95.888 75.0373V84.0078L97.8041 87.056L100.025 83.8771L97.8041 85.1835V68.3312L103.421 70.8569L98.0218 74.5148Z" fill="#EDEDED"/>
<path d="M172.485 102.341C157.027 102.079 141.481 101.905 125.935 101.774L124.89 100.425L108.168 96.9409L123.54 101.774C106.688 101.687 89.7919 101.644 72.9396 101.731L92.6659 95.6781L76.5975 93.762L74.6814 96.1571L25.5182 84.748L73.767 97.3328L70.2398 101.774C54.6503 101.862 39.0609 102.036 23.5586 102.297C38.7997 102.558 54.0843 102.733 69.3689 102.863V102.907L69.4559 102.863C103.814 103.037 138.302 102.907 172.485 102.341Z" fill="#EDEDED"/>
</g>
<defs>
<clipPath id="clip0_696_790">
<rect width="196" height="196" fill="white"/>
</clipPath>
</defs>
</svg>
