<svg width="136" height="136" viewBox="0 0 136 136" fill="none" xmlns="http://www.w3.org/2000/svg">
<g clip-path="url(#clip0_696_561)">
<path d="M53.7835 64.334L54.4483 63.6089L22.1177 47.1716L53.7835 64.334Z" fill="#3B3B3B"/>
<path d="M22.6011 28.0452C22.5708 28.015 22.5406 27.9848 22.4802 27.9546C22.6011 27.8337 22.6615 27.7128 22.7219 27.592C22.7824 27.4711 22.7521 27.3805 22.6615 27.2898C22.6313 27.2596 22.5709 27.2294 22.5406 27.1992C22.4802 27.169 22.45 27.169 22.3896 27.1387C21.4529 26.897 20.5162 26.6855 19.5493 26.474C19.9421 27.3805 20.3651 28.2869 20.7881 29.1632C20.8183 29.2236 20.8486 29.2538 20.8788 29.284C20.909 29.3143 20.909 29.3445 20.909 29.3445C20.9996 29.4049 21.0903 29.4351 21.1809 29.3747C21.2716 29.3143 21.3622 29.2236 21.4831 29.0725C21.5133 29.1028 21.5435 29.133 21.604 29.1632C21.2112 29.6164 20.8184 30.0999 20.4558 30.5833C20.4255 30.5531 20.3651 30.5229 20.3349 30.4927C20.4255 30.3718 20.486 30.2207 20.5162 30.0092C20.5464 29.7977 20.5162 29.6466 20.4255 29.4653C19.7608 28.0754 19.1263 26.6855 18.522 25.2654C20.0932 25.5978 21.6342 25.9603 23.1752 26.3834C23.3565 26.4438 23.5075 26.4438 23.6586 26.4136C23.8097 26.3834 23.9608 26.3229 24.1118 26.2021C24.1421 26.2323 24.1723 26.2625 24.2327 26.2927C23.6586 26.897 23.1147 27.4711 22.6011 28.0452Z" fill="#3B3B3B"/>
<path d="M29.8529 20.4611C29.9133 20.5518 30.004 20.582 30.0644 20.6122C30.1248 20.6424 30.2155 20.6424 30.2759 20.6122C30.3364 20.582 30.427 20.5518 30.4874 20.5216C30.5479 20.4913 30.6385 20.4309 30.6989 20.4007C30.7292 20.4309 30.7594 20.4913 30.7896 20.5216C30.1853 20.9748 29.581 21.4582 28.9767 21.9417C28.9464 21.9115 28.9162 21.851 28.886 21.8208C28.9464 21.7604 29.0069 21.7 29.0673 21.6093C29.1277 21.5489 29.1882 21.4885 29.2184 21.428C29.2486 21.3676 29.2788 21.3072 29.2788 21.2467C29.2788 21.1863 29.2486 21.0957 29.1579 21.005C28.4026 20.1288 27.6774 19.2223 26.922 18.346C26.8011 18.195 26.6501 18.1345 26.4688 18.195C26.2875 18.2554 26.1062 18.346 25.8342 18.4971C25.804 18.4669 25.7738 18.4065 25.7134 18.3763C26.9824 17.3187 28.3119 16.3216 29.6716 15.3547C29.9435 15.6569 30.2457 15.959 30.5176 16.2612C30.4572 16.2914 30.3968 16.3518 30.3364 16.382C30.1853 16.2612 30.0342 16.1705 29.9133 16.1101C29.7925 16.0497 29.6716 16.0497 29.5507 16.0497C29.4299 16.0799 29.2788 16.1101 29.1579 16.2007C29.0069 16.2914 28.8558 16.4122 28.6443 16.5331C28.2213 16.8353 27.8285 17.1374 27.4054 17.4698C27.768 17.9532 29.4903 20.0079 29.8529 20.4611Z" fill="#3B3B3B"/>
<path d="M36.8627 16.2007C36.2584 16.5633 35.6843 16.9259 35.08 17.3187C34.9289 17.0166 34.7778 16.7446 34.6267 16.4425C34.7476 16.3216 34.8383 16.1705 34.8987 16.0194C34.9591 15.8684 34.9893 15.6871 34.9893 15.4756C34.9893 15.2943 34.9591 15.113 34.9289 14.9015C34.8987 14.69 34.808 14.5389 34.7174 14.3576C34.6267 14.1763 34.5059 14.0252 34.3548 13.9044C34.2037 13.7835 34.0527 13.6626 33.8714 13.6022C33.6901 13.5418 33.4786 13.5418 33.267 13.5418C33.0555 13.5418 32.8138 13.6626 32.5721 13.8439C32.3304 13.995 32.1491 14.1763 32.0282 14.3878C31.9074 14.5691 31.8167 14.7806 31.7865 14.9921C31.7563 15.2036 31.7563 15.3849 31.8167 15.5964C31.8771 15.8079 31.9678 15.9892 32.0584 16.1705C32.1491 16.2914 32.2699 16.4425 32.3908 16.5633C32.5117 16.6842 32.6627 16.7748 32.844 16.8655C33.0253 16.9561 33.1764 16.9863 33.3577 17.0166C33.539 17.0468 33.7203 17.0166 33.8714 16.9863C34.0527 17.2583 34.2339 17.5302 34.4152 17.8022C33.8411 18.195 33.2973 18.5878 32.7534 18.9806C32.5721 18.6784 32.3606 18.4065 32.1793 18.1043C32.2397 18.0741 32.2699 18.0439 32.3304 18.0137C32.421 18.1043 32.5419 18.1647 32.6627 18.2252C32.7836 18.2856 32.9045 18.2554 32.9951 18.195C33.267 17.9834 33.5692 17.8022 33.8411 17.5906C33.7807 17.5302 33.7505 17.4396 33.7203 17.3791C33.5088 17.4698 33.2973 17.5302 33.0555 17.5302C32.8138 17.5302 32.6023 17.5302 32.3908 17.4698C32.1793 17.4094 31.998 17.3187 31.8167 17.1978C31.6354 17.077 31.4843 16.9259 31.3635 16.7446C31.2426 16.5331 31.1217 16.3216 31.0915 16.0497C31.0311 15.8079 31.0613 15.536 31.1217 15.2641C31.1822 14.9921 31.3333 14.7202 31.5448 14.4482C31.7563 14.1763 32.0282 13.9044 32.3908 13.6626C32.7534 13.4209 33.116 13.2396 33.4483 13.1792C33.7807 13.1188 34.0527 13.0885 34.3246 13.149C34.5663 13.2094 34.808 13.3 34.9893 13.4813C35.1706 13.6324 35.3519 13.8439 35.4728 14.0554C35.5634 14.2367 35.6541 14.418 35.6843 14.6295C35.7145 14.841 35.7145 15.0525 35.6843 15.2641C35.6541 15.4756 35.5936 15.6871 35.4728 15.9288C35.3821 16.1403 35.2311 16.3518 35.0498 16.5331C35.08 16.5935 35.1404 16.6842 35.1706 16.7446C35.4728 16.5331 35.7749 16.3518 36.0771 16.1705C36.198 16.1101 36.2584 15.9892 36.2584 15.8684C36.2584 15.7475 36.2282 15.5964 36.198 15.4756C36.2584 15.4453 36.2886 15.4151 36.349 15.3849C36.5001 15.5964 36.6814 15.8986 36.8627 16.2007Z" fill="#3B3B3B"/>
<path d="M44.0846 12.4842C44.0543 12.4238 44.0543 12.3936 44.0241 12.3331C44.2961 12.2123 44.4774 12.0914 44.5378 11.9706C44.5982 11.8497 44.5982 11.7288 44.5378 11.608C44.1148 10.6109 43.6615 9.61375 43.2083 8.58643C43.1479 8.43535 43.0874 8.31449 42.9968 8.25406C42.9364 8.16341 42.8457 8.13319 42.7853 8.10298C42.6946 8.07276 42.604 8.07276 42.5134 8.10298C42.4227 8.13319 42.3018 8.16341 42.1508 8.22384C42.1205 8.16341 42.0903 8.13319 42.0903 8.07276C42.8759 7.74039 43.6918 7.40802 44.5076 7.10587C44.5378 7.1663 44.5378 7.22673 44.568 7.25694C44.3867 7.34759 44.2659 7.40802 44.1752 7.49867C44.0846 7.58931 44.0241 7.61953 43.9939 7.71018C43.9637 7.80082 43.9637 7.86125 43.9637 7.9519C43.9637 8.04255 44.0241 8.13319 44.0846 8.28427C44.5076 9.3116 44.9306 10.3087 45.3536 11.336C45.4745 11.608 45.7766 11.6684 46.2601 11.4871C46.2903 11.5475 46.2903 11.5778 46.3205 11.6382C45.5651 11.8497 44.8097 12.1519 44.0846 12.4842Z" fill="#3B3B3B"/>
<path d="M52.303 5.47422C52.2425 5.26271 52.1519 5.14185 52.0008 5.0512C51.8497 4.99077 51.6684 4.99077 51.4267 5.0512C51.3965 4.99077 51.3965 4.93034 51.3965 4.90012C52.1821 4.68862 52.9677 4.50732 53.7533 4.32603C53.7533 4.38646 53.7835 4.44689 53.7835 4.50732C53.4814 4.56775 53.3001 4.68862 53.2698 4.80948C53.2396 5.02099 53.2396 5.17206 53.3001 5.32314C53.4209 5.74616 53.5116 6.19939 53.6324 6.62241C54.4483 6.44111 55.2641 6.25982 56.0799 6.10874C55.9892 5.65551 55.8986 5.23249 55.808 4.77926C55.7777 4.56775 55.6569 4.41668 55.4756 4.32603C55.2943 4.23538 55.113 4.23538 54.9317 4.2656C54.9317 4.20517 54.9015 4.14474 54.9015 4.08431C55.6871 3.93323 56.4727 3.78215 57.2885 3.63107C57.2885 3.6915 57.3187 3.75194 57.3187 3.81237C57.077 3.84258 56.8957 3.93323 56.8353 4.08431C56.7748 4.23538 56.7446 4.41668 56.8051 4.68862C56.9864 5.65551 57.1676 6.62241 57.3489 7.5893C57.3792 7.67995 57.3792 7.7706 57.4094 7.86124C57.4396 7.95189 57.4698 8.01232 57.5302 8.07275C57.5907 8.13318 57.6511 8.1634 57.772 8.19361C57.8626 8.22383 57.9835 8.22383 58.1648 8.19361C58.1648 8.25405 58.195 8.28426 58.195 8.34469C57.4396 8.46555 56.6842 8.61663 55.9288 8.76771C55.9288 8.70728 55.8986 8.67706 55.8986 8.61663C56.0497 8.58642 56.1705 8.52598 56.2612 8.49577C56.3518 8.46555 56.4123 8.37491 56.4425 8.31448C56.4727 8.25405 56.5029 8.1634 56.4727 8.07275C56.4727 7.98211 56.4425 7.86124 56.4123 7.74038C56.3216 7.31736 56.231 6.89435 56.1403 6.47133C55.3245 6.62241 54.5087 6.8037 53.6929 6.98499C53.8137 7.46844 53.9346 7.95189 54.0555 8.46555C54.0857 8.5562 54.1159 8.64685 54.1461 8.70728C54.1763 8.76771 54.2065 8.82814 54.267 8.82814C54.3274 8.85836 54.3878 8.85836 54.5087 8.85836C54.5993 8.85836 54.7504 8.85836 54.9015 8.82814C54.9015 8.88857 54.9317 8.91879 54.9317 8.97922C54.1763 9.1303 53.4511 9.31159 52.6958 9.5231C52.6655 9.46267 52.6655 9.43245 52.6655 9.37202C52.8166 9.31159 52.9375 9.28137 52.9979 9.22094C53.0886 9.16051 53.149 9.10008 53.1792 9.03965C53.2094 8.97922 53.2396 8.91879 53.2094 8.82814C53.1792 8.73749 53.1792 8.67706 53.149 8.5562C52.877 7.55909 52.5749 6.53176 52.303 5.47422Z" fill="#3B3B3B"/>
<path d="M28.614 22.0625C28.4327 22.1834 28.2817 22.2438 28.1306 22.2438C27.9795 22.2438 27.8284 22.2136 27.6471 22.1532C26.1666 21.5791 24.686 21.0352 23.145 20.5518C23.5983 22.0323 24.1119 23.4827 24.6256 24.9028C24.7162 25.0841 24.7162 25.2352 24.686 25.4467C24.6256 25.628 24.5651 25.779 24.4443 25.8999C24.4745 25.9301 24.5047 25.9603 24.5349 25.9905C24.9579 25.5675 25.381 25.1445 25.8342 24.7215C25.804 24.6913 25.7738 24.6611 25.7436 24.6309C25.6227 24.7517 25.5018 24.8424 25.4112 24.8726C25.3205 24.933 25.2299 24.9028 25.1392 24.8121C25.1392 24.8121 25.109 24.7819 25.109 24.7517C25.0788 24.7215 25.0788 24.6913 25.0486 24.6309C24.958 24.3589 24.8673 24.087 24.7767 23.815L26.1061 22.546C26.3479 22.6366 26.5896 22.7273 26.8313 22.7877C26.8917 22.8179 26.922 22.8481 26.9824 22.8481C27.0428 22.8784 27.073 22.9086 27.1033 22.9388C27.1939 23.0294 27.1939 23.1503 27.1335 23.2409C27.073 23.3618 26.9824 23.4524 26.8615 23.5733C26.8917 23.6035 26.922 23.6337 26.9522 23.6942C27.5263 23.1805 28.1004 22.6668 28.7047 22.1834C28.6745 22.1532 28.6442 22.0927 28.614 22.0625ZM25.5623 22.3345L24.5954 23.3014C24.4141 22.8179 24.2328 22.3345 24.0817 21.8208C24.5954 21.9719 25.0788 22.1532 25.5623 22.3345Z" fill="#3B3B3B"/>
<path d="M43.601 12.4842C43.4197 12.5446 43.2385 12.5446 43.1176 12.5144C42.9665 12.454 42.8456 12.3936 42.6946 12.2425C42.6644 12.2123 42.6341 12.1821 42.5737 12.1216C42.5133 12.0612 42.4528 12.0008 42.3622 11.9403L41.7881 11.3965L41.2744 11.6986L41.1536 11.759L38.0414 10.1878L38.0716 10.4296C38.1018 11.3662 38.1925 13.1792 38.2227 13.4813L38.1622 13.5115L37.6788 13.7835L37.7997 14.9921C37.8299 15.1432 37.7997 15.3245 37.7392 15.4453C37.6788 15.5964 37.5881 15.6871 37.4673 15.7475C37.4975 15.7777 37.4975 15.8381 37.5277 15.8684C37.9205 15.6266 38.3133 15.3849 38.7061 15.1432C38.6759 15.113 38.6759 15.0525 38.6457 15.0223C38.5248 15.0827 38.4342 15.1432 38.3435 15.1432C38.2831 15.1432 38.2227 15.113 38.1622 15.0223C38.1622 15.0223 38.1622 14.9921 38.1622 14.9619C38.1622 14.9317 38.132 14.8712 38.132 14.841C38.132 14.6597 38.1018 14.4784 38.1018 14.2971V14.2065C38.3435 14.0554 40.8514 12.5749 41.3953 12.2727C41.4859 12.3634 41.5766 12.4238 41.6672 12.5144C41.6975 12.5144 41.6975 12.5446 41.7277 12.5749C41.7579 12.6353 41.8183 12.6655 41.8485 12.6957C41.8787 12.7259 41.909 12.7864 41.9392 12.8468C41.9996 12.9979 41.9996 13.0885 41.909 13.2094C41.8183 13.3 41.6975 13.3907 41.5766 13.4813C41.6068 13.5418 41.637 13.6022 41.637 13.6324C42.3018 13.2698 42.9665 12.9072 43.6615 12.5749C43.6312 12.5749 43.601 12.5446 43.601 12.4842ZM39.7032 12.6655L39.25 12.9374L38.7363 13.2396L38.5853 13.3302C38.5853 13.149 38.5248 11.7288 38.4946 11.3965C38.5248 11.4267 38.555 11.4267 38.6155 11.4569L40.2773 12.3331L39.7032 12.6655Z" fill="#3B3B3B"/>
<path d="M51.5174 9.55331C51.4268 9.55331 51.3361 9.52309 51.2757 9.49288C51.2153 9.46266 51.1548 9.40223 51.1246 9.31159C51.0944 9.22094 51.0642 9.16051 51.0038 9.06986L50.0973 6.35047L49.8254 5.53465L49.7951 5.444L49.1304 5.65551L49.0398 5.95766L47.8916 9.76482L47.0757 7.28715C47.0455 7.16628 47.0153 7.04542 46.9851 6.95478C46.9549 6.86413 46.9549 6.77348 46.9851 6.71305C47.0153 6.65262 47.0455 6.56197 47.1362 6.53176C47.1966 6.47133 47.3175 6.4109 47.4685 6.38068L47.4081 6.2296L45.3232 6.92456L45.3837 7.07564C45.5348 7.04542 45.6556 7.01521 45.7463 7.04542C45.8369 7.07564 45.9276 7.07564 45.988 7.10585C46.0484 7.13607 46.1088 7.1965 46.1391 7.28715C46.1693 7.37779 46.1995 7.43822 46.2599 7.52887L47.4685 11.1547H47.4988L48.2239 10.913L48.2542 10.7921L49.4023 6.98499L50.1879 9.31159C50.2182 9.43245 50.2484 9.55331 50.2786 9.64396C50.3088 9.7346 50.3088 9.82525 50.2786 9.88568C50.2484 9.94611 50.2182 10.0368 50.1275 10.067C50.0671 10.1274 49.9462 10.1878 49.7951 10.2181L49.8556 10.3691L51.9404 9.67417L51.88 9.52309C51.7289 9.55331 51.6081 9.55331 51.5174 9.55331Z" fill="#3B3B3B"/>
<path d="M48.1935 5.29292C48.1331 5.38357 48.0424 5.47422 47.9216 5.50443C47.8007 5.53465 47.6799 5.53465 47.559 5.50443C47.4381 5.47422 47.3777 5.38357 47.3475 5.26271C47.3173 5.14185 47.3173 5.0512 47.3777 4.93034C47.4381 4.80948 47.5288 4.74904 47.6496 4.71883C47.7705 4.68861 47.8914 4.68861 48.0122 4.71883C48.1331 4.77926 48.1935 4.83969 48.2237 4.96055C48.2539 5.08141 48.2539 5.20228 48.1935 5.29292Z" fill="#3B3B3B"/>
<path d="M63.6944 7.37782C63.5735 7.28717 63.4527 7.16631 63.362 7.04545C62.5462 5.71597 61.6699 4.4167 60.7635 3.11743C60.2498 4.56778 59.7664 6.01812 59.3433 7.49868C59.3131 7.67997 59.2225 7.83105 59.0714 7.95191C58.9203 8.07277 58.7692 8.13321 58.6182 8.16342C58.6182 8.22385 58.6484 8.25407 58.6484 8.3145C59.2225 8.22385 59.8268 8.13321 60.4311 8.04256C60.4311 7.98213 60.4311 7.95191 60.4009 7.89148C60.2196 7.9217 60.0987 7.9217 59.9779 7.89148C59.8872 7.86127 59.8268 7.80083 59.7966 7.71019C59.7966 7.71019 59.7966 7.67997 59.7966 7.64976C59.7966 7.61954 59.8268 7.55911 59.8268 7.49868C59.9174 7.22674 60.0081 6.92459 60.0987 6.65265L61.9419 6.47135C62.0627 6.65265 62.2138 6.86415 62.3347 7.04545C62.3649 7.10588 62.3649 7.13609 62.3951 7.19653C62.4253 7.25696 62.4253 7.28717 62.4253 7.3476C62.4253 7.46846 62.3951 7.58933 62.2742 7.61954C62.1534 7.67997 62.0023 7.71019 61.8512 7.71019C61.8512 7.77062 61.8512 7.80083 61.8814 7.86127C62.6368 7.77062 63.3922 7.71019 64.1778 7.64976C64.1778 7.58933 64.1778 7.55911 64.1778 7.49868C63.9663 7.49868 63.8152 7.46846 63.6944 7.37782ZM61.6397 6.01812L60.2498 6.13898C60.4009 5.65553 60.552 5.17209 60.7333 4.65842C61.0354 5.11166 61.3376 5.56489 61.6397 6.01812Z" fill="#3B3B3B"/>
<path d="M74.5113 8.04253C73.7861 7.95189 73.0609 7.86124 72.366 7.80081C72.3962 7.46844 72.4566 7.10585 72.517 6.77348C72.6983 6.74326 72.8494 6.68283 73.0005 6.59219C73.1516 6.50154 73.2724 6.35046 73.3933 6.19939C73.5142 6.04831 73.6048 5.86702 73.6652 5.68572C73.7257 5.50443 73.7861 5.29292 73.8163 5.08141C73.8465 4.8699 73.8163 4.6584 73.7861 4.44689C73.7559 4.23538 73.6652 4.05408 73.5444 3.87279C73.4235 3.6915 73.2724 3.54042 73.0609 3.44977C72.8494 3.32891 72.6077 3.26848 72.3055 3.23827C72.0034 3.20805 71.7617 3.23827 71.5199 3.32891C71.3084 3.41956 71.1271 3.51021 70.9761 3.66128C70.825 3.81236 70.7343 3.99365 70.6437 4.20516C70.5832 4.41667 70.5228 4.62818 70.5228 4.8699C70.5228 5.0512 70.5228 5.23249 70.5832 5.41378C70.6437 5.59508 70.7041 5.77637 70.7645 5.95766C70.825 6.13896 70.976 6.29003 71.0969 6.41089C71.2178 6.53176 71.3991 6.65262 71.5501 6.71305C71.5501 7.04542 71.5501 7.40801 71.5501 7.77059C70.8552 7.71016 70.1602 7.67995 69.4351 7.64973C69.4351 7.28714 69.4653 6.89434 69.4653 6.53176C69.5257 6.53176 69.5861 6.53176 69.6466 6.53176C69.6768 6.68283 69.707 6.8037 69.7976 6.92456C69.8883 7.04542 69.9789 7.10585 70.0998 7.10585C70.4624 7.10585 70.825 7.13607 71.1876 7.16628C71.1876 7.07564 71.1876 6.98499 71.2178 6.89434C70.9761 6.83391 70.7645 6.74327 70.553 6.59219C70.3415 6.44111 70.1904 6.29003 70.0394 6.07852C69.8883 5.89723 69.7976 5.68572 69.707 5.444C69.6164 5.20227 69.5861 4.99077 69.5861 4.77926C69.5861 4.50732 69.6466 4.26559 69.7674 4.02387C69.8883 3.78215 70.0394 3.57064 70.2509 3.38934C70.4624 3.20805 70.7645 3.05697 71.0969 2.96633C71.4293 2.87568 71.8221 2.84546 72.3055 2.87568C72.7588 2.9059 73.1818 2.99654 73.4839 3.14762C73.8163 3.2987 74.058 3.47999 74.2393 3.6915C74.4206 3.90301 74.5415 4.14473 74.6019 4.41667C74.6623 4.68861 74.6926 4.96055 74.6623 5.20227C74.6321 5.41378 74.5717 5.62529 74.481 5.8368C74.3904 6.04831 74.2695 6.19939 74.1185 6.38068C73.9674 6.53176 73.7861 6.68283 73.5444 6.8037C73.3329 6.92456 73.0911 6.98499 72.8192 7.04542C72.8192 7.13607 72.789 7.22671 72.789 7.31736C73.1516 7.34758 73.5444 7.37779 73.907 7.43822C74.058 7.46844 74.1487 7.40801 74.2393 7.28714C74.2998 7.16628 74.3904 7.04542 74.4206 6.92456C74.481 6.92456 74.5415 6.92456 74.6019 6.95477C74.5717 7.28714 74.5415 7.64973 74.5113 8.04253Z" fill="#3B3B3B"/>
<path d="M79.648 5.86701C79.5272 6.01809 79.4063 6.10874 79.2552 6.19938C79.1041 6.29003 78.9228 6.35046 78.7415 6.38068C78.5603 6.41089 78.3487 6.44111 78.1372 6.44111C77.9257 6.44111 77.7142 6.41089 77.4725 6.41089C77.2308 6.38068 76.9588 6.35046 76.6869 6.32025C76.6265 6.74326 76.566 7.16628 76.4754 7.5893C76.4452 7.74038 76.4452 7.83102 76.4754 7.92167C76.5056 7.9821 76.5358 8.07275 76.5962 8.10296C76.6265 8.10296 76.6567 8.13318 76.6869 8.16339C76.7473 8.19361 76.7775 8.19361 76.838 8.22382C76.8984 8.22382 76.9588 8.25404 76.989 8.25404C77.0495 8.25404 77.0797 8.28425 77.0797 8.28425C77.0797 8.34469 77.0495 8.3749 77.0495 8.43533C76.3243 8.31447 75.5689 8.22382 74.8438 8.13318C74.8438 8.07275 74.874 8.04253 74.874 7.9821C75.0553 7.9821 75.2063 7.95188 75.3876 7.95188C75.4481 7.92167 75.5085 7.89145 75.5689 7.83102C75.6294 7.77059 75.6596 7.64973 75.6596 7.52887C75.8106 6.44111 75.9919 5.35335 76.143 4.26559C76.1732 4.0843 76.143 3.93322 76.0524 3.81236C75.9617 3.6915 75.7804 3.60085 75.4783 3.57064C75.4783 3.51021 75.5085 3.44977 75.5085 3.38934C76.2337 3.47999 76.9588 3.57064 77.684 3.6915C78.1675 3.75193 78.53 3.87279 78.8322 4.02387C79.1343 4.17495 79.3459 4.32602 79.4969 4.4771C79.648 4.65839 79.7387 4.80947 79.7991 4.99076C79.8293 5.17206 79.8293 5.32314 79.7991 5.47421C79.8293 5.56486 79.7689 5.71594 79.648 5.86701ZM79.0437 5.17206C79.0739 4.99076 79.0437 4.83969 78.9531 4.68861C78.8624 4.53753 78.7415 4.41667 78.5905 4.29581C78.4394 4.17495 78.2581 4.0843 78.0768 4.02387C77.8955 3.96344 77.7142 3.90301 77.5631 3.87279C77.4423 3.84258 77.3214 3.84258 77.2308 3.84258C77.1401 3.84258 77.0797 3.87279 77.0797 3.90301C76.9588 4.56775 76.8682 5.23249 76.7473 5.92745C77.0797 5.98788 77.3818 6.01809 77.6236 6.01809C77.8653 6.01809 78.107 6.01809 78.2883 5.95766C78.4696 5.89723 78.6207 5.8368 78.7415 5.68572C78.8624 5.53464 78.9833 5.444 79.0437 5.17206Z" fill="#3B3B3B"/>
<path d="M81.2194 8.55618C81.1892 8.67704 81.1892 8.73747 81.2194 8.82812C81.2496 8.88855 81.2798 8.94898 81.3403 8.9792C81.4007 9.00941 81.4611 9.06985 81.5518 9.10006C81.6424 9.13028 81.7029 9.16049 81.7935 9.19071C81.7935 9.25114 81.7633 9.28135 81.7633 9.34178C81.0079 9.16049 80.2827 9.00941 79.5273 8.85834C79.5273 8.79791 79.5576 8.76769 79.5576 8.70726C79.6482 8.70726 79.7389 8.70726 79.8295 8.70726C79.9201 8.70726 79.9806 8.70726 80.0712 8.70726C80.1316 8.70726 80.1921 8.67704 80.2525 8.61661C80.3129 8.5864 80.3432 8.49575 80.3734 8.37489C80.6453 7.25691 80.887 6.10873 81.159 4.99075C81.1892 4.80946 81.159 4.65838 81.0079 4.56773C80.8568 4.47709 80.6755 4.38644 80.3734 4.2958C80.3734 4.23536 80.4036 4.17493 80.4036 4.1145C82.0352 4.44687 83.6366 4.80946 85.2381 5.23248C85.1776 5.65549 85.087 6.04829 84.9963 6.47131C84.9359 6.4411 84.8755 6.4411 84.8151 6.41088C84.8151 6.19937 84.8151 6.04829 84.7848 5.92743C84.7546 5.80657 84.6942 5.68571 84.6035 5.62528C84.5129 5.53463 84.392 5.4742 84.241 5.41377C84.0899 5.35334 83.8784 5.29291 83.6669 5.23248C83.1834 5.11161 82.6697 4.99075 82.1561 4.86989C82.005 5.38355 81.3705 7.98209 81.2194 8.55618Z" fill="#3B3B3B"/>
<path d="M91.2506 8.04255C91.3412 7.83104 91.3412 7.67997 91.2506 7.52889C91.1599 7.40803 91.0089 7.28716 90.7974 7.19652C90.8276 7.13609 90.8276 7.07566 90.8578 7.04544C91.6132 7.31738 92.3686 7.61954 93.0937 7.92169C93.0635 7.98212 93.0333 8.01234 93.0333 8.07277C92.7312 7.95191 92.5499 7.92169 92.429 8.01234C92.2779 8.16341 92.1873 8.31449 92.1268 8.43535C91.9456 8.85837 91.7643 9.25117 91.583 9.67419C92.3686 9.97634 93.124 10.3087 93.8793 10.6713C94.0606 10.2785 94.2722 9.85548 94.4837 9.46268C94.5743 9.28139 94.5743 9.1001 94.4837 8.9188C94.393 8.76772 94.2721 8.61665 94.0909 8.55622C94.1211 8.49579 94.1513 8.46557 94.1513 8.40514C94.8765 8.73751 95.6318 9.06988 96.357 9.43247C96.3268 9.4929 96.2966 9.52311 96.2664 9.58354C96.0247 9.46268 95.8434 9.46268 95.6923 9.52311C95.5412 9.58354 95.3901 9.76484 95.2995 9.97635C94.8462 10.8526 94.393 11.7591 93.9398 12.6353C93.9096 12.726 93.8491 12.8166 93.8189 12.9072C93.7887 12.9979 93.7887 13.0583 93.8189 13.149C93.8189 13.2094 93.8793 13.3001 93.9398 13.3605C94.0002 13.4209 94.0909 13.5116 94.2419 13.6022C94.2117 13.6626 94.1815 13.6929 94.1815 13.7533C93.4865 13.4209 92.7916 13.0885 92.0966 12.7864C92.1269 12.726 92.1268 12.6957 92.1571 12.6353C92.3081 12.6957 92.429 12.726 92.5197 12.726C92.6103 12.726 92.7009 12.726 92.7614 12.6957C92.8218 12.6655 92.9125 12.6051 92.9427 12.5144C93.0031 12.4238 93.0635 12.3332 93.124 12.2123C93.3053 11.8195 93.4865 11.4267 93.6981 11.0339C92.9427 10.7015 92.1873 10.3691 91.4017 10.067C91.1902 10.5202 91.0089 11.0037 90.7974 11.4569C90.7671 11.5476 90.7369 11.6382 90.7067 11.6986C90.6765 11.7591 90.7067 11.8195 90.7369 11.8799C90.7672 11.9404 90.8276 12.0008 90.888 12.0612C90.9787 12.1216 91.0693 12.1821 91.2204 12.2727C91.1902 12.3332 91.1902 12.3634 91.16 12.4238C90.465 12.1216 89.7398 11.8497 89.0146 11.5778C89.0449 11.5173 89.0449 11.4871 89.0751 11.4267C89.2262 11.4871 89.347 11.4871 89.4377 11.5173C89.5283 11.5173 89.619 11.5173 89.6794 11.4871C89.7398 11.4569 89.8003 11.4267 89.8305 11.336C89.8607 11.2756 89.9211 11.185 89.9513 11.0943C90.4046 10.0368 90.8276 9.03966 91.2506 8.04255Z" fill="#3B3B3B"/>
<path d="M94.665 13.9346C94.6953 13.8741 94.7255 13.8439 94.7255 13.7835C94.9974 13.9346 95.2089 13.995 95.3298 13.9648C95.4506 13.9346 95.5413 13.8741 95.6319 13.723C96.1456 12.7561 96.6895 11.7893 97.2031 10.8224C97.2938 10.6713 97.324 10.5504 97.3542 10.4598C97.3844 10.3691 97.3844 10.2785 97.324 10.1878C97.2938 10.1274 97.2334 10.0368 97.1427 9.97632C97.0521 9.91589 96.9614 9.85546 96.8103 9.79503C96.8405 9.7346 96.8708 9.70438 96.901 9.64395C97.6866 10.0368 98.442 10.4296 99.1974 10.8526C99.1671 10.913 99.1369 10.9432 99.1067 11.0036C98.9254 10.9432 98.7743 10.8828 98.6837 10.8526C98.5628 10.8224 98.4722 10.8224 98.4118 10.8224C98.3211 10.8526 98.2607 10.8828 98.2002 10.9432C98.1398 11.0036 98.0794 11.0943 98.019 11.2454C97.4751 12.2123 96.9312 13.1489 96.3873 14.1158C96.2362 14.3878 96.3873 14.6295 96.8405 14.9014C96.8103 14.9619 96.7801 14.9921 96.7499 15.0525C96.0852 14.6597 95.3902 14.2971 94.665 13.9346Z" fill="#3B3B3B"/>
<path d="M98.1704 14.0856C98.1401 14.2065 98.1099 14.3274 98.0797 14.4482C98.0495 14.5691 98.0495 14.6899 98.0797 14.7806C98.1099 14.9015 98.1401 14.9921 98.2308 15.0827C98.3214 15.1734 98.4121 15.264 98.5632 15.3547C99.0768 15.6871 99.5905 16.0194 100.104 16.3518C100.014 15.4453 99.8926 14.5087 99.7416 13.6022C100.527 13.4209 101.313 13.2396 102.098 13.0885C101.645 12.7864 101.162 12.4842 100.708 12.1821C100.527 12.0612 100.376 12.0008 100.255 11.9403C100.134 11.8799 100.014 11.8497 99.8926 11.8195C99.7718 11.8195 99.6811 11.8195 99.5905 11.8799C99.4998 11.9101 99.4092 12.0008 99.2883 12.0914C99.2279 12.0612 99.1675 12.031 99.107 12.0008C99.3186 11.6986 99.5301 11.3662 99.7416 11.0641C101.071 11.8497 102.34 12.6957 103.609 13.572C102.612 13.7533 101.615 13.9648 100.618 14.1763C100.769 15.3245 100.86 16.4424 100.92 17.5906C99.7718 16.7748 98.5934 16.0194 97.3848 15.264C97.5963 14.841 97.8078 14.3878 97.9891 13.9648C98.0495 14.0252 98.1099 14.0554 98.1704 14.0856Z" fill="#3B3B3B"/>
<path d="M114.063 21.9719C113.882 21.7906 113.701 21.6697 113.52 21.6093C113.369 21.5791 113.187 21.6093 113.036 21.7906C112.281 22.5762 111.495 23.3618 110.74 24.1172C110.589 24.2683 110.498 24.4194 110.498 24.5704C110.498 24.7215 110.589 24.9028 110.8 25.0841C110.77 25.1143 110.71 25.1747 110.679 25.205C109.32 23.9057 107.9 22.6669 106.419 21.4884C106.449 21.428 106.479 21.3978 106.54 21.3676C106.691 21.4884 106.842 21.5791 106.993 21.6093C107.144 21.6395 107.295 21.5791 107.416 21.428C108.171 20.5518 108.897 19.6755 109.652 18.7993C109.803 18.618 109.833 18.4669 109.773 18.3158C109.712 18.1647 109.592 18.0137 109.41 17.8928C109.44 17.8626 109.471 17.8022 109.501 17.7719C110.166 18.3158 110.83 18.8597 111.465 19.4036C111.435 19.4338 111.404 19.464 111.344 19.5244C111.133 19.3431 110.951 19.2525 110.8 19.2223C110.649 19.1921 110.498 19.2525 110.347 19.4338C109.501 20.4007 108.655 21.3374 107.839 22.3043C108.443 22.8179 109.048 23.3316 109.652 23.8755C110.528 22.9388 111.404 22.0323 112.281 21.0956C112.371 21.005 112.432 20.9144 112.462 20.8539C112.492 20.7633 112.492 20.7028 112.462 20.6424C112.432 20.582 112.402 20.5216 112.341 20.4611C112.281 20.4007 112.22 20.3403 112.16 20.2798C112.16 20.2496 112.13 20.2496 112.099 20.2194C112.13 20.1892 112.16 20.159 112.22 20.0985C112.855 20.6726 113.489 21.2467 114.094 21.851C114.124 21.8812 114.094 21.9417 114.063 21.9719Z" fill="#3B3B3B"/>
<path d="M111.072 25.5071C111.102 25.4769 111.133 25.4467 111.193 25.3862C111.405 25.5977 111.586 25.7186 111.707 25.7488C111.828 25.779 111.949 25.7186 112.039 25.6279C112.825 24.8726 113.641 24.1172 114.426 23.3618C114.547 23.2409 114.638 23.1503 114.698 23.0596C114.759 22.969 114.759 22.8783 114.759 22.8179C114.759 22.7273 114.728 22.6366 114.638 22.5762C114.577 22.4855 114.487 22.3949 114.396 22.3042C114.426 22.274 114.487 22.2136 114.517 22.1834C115.151 22.8179 115.756 23.4524 116.33 24.087C116.3 24.1172 116.239 24.1474 116.209 24.2078C116.058 24.087 115.937 23.9963 115.846 23.9057C115.756 23.8452 115.665 23.815 115.574 23.7848C115.484 23.7848 115.423 23.7848 115.333 23.8452C115.242 23.9057 115.182 23.9661 115.061 24.0567C114.245 24.8121 113.429 25.5373 112.613 26.2927C112.402 26.5042 112.462 26.8064 112.825 27.1992C112.795 27.2294 112.764 27.2596 112.704 27.2898C112.22 26.6855 111.646 26.1114 111.072 25.5071Z" fill="#3B3B3B"/>
<path d="M88.2292 10.8526C88.1687 10.7317 88.1083 10.5806 88.0781 10.3993C87.8968 8.85835 87.6853 7.31736 87.4133 5.77637C86.2954 6.89434 85.2378 8.01231 84.2105 9.19072C84.0896 9.3418 83.9386 9.43244 83.7573 9.49287C83.576 9.55331 83.3947 9.55331 83.2436 9.49287C83.2436 9.55331 83.2134 9.58352 83.2134 9.64395C83.7875 9.79503 84.3616 9.94611 84.9357 10.1274C84.9357 10.067 84.9659 10.0368 84.9659 9.97632C84.7846 9.91589 84.6637 9.88568 84.5731 9.82525C84.4824 9.76481 84.4522 9.67417 84.5127 9.58352C84.5127 9.58352 84.5127 9.55331 84.5429 9.52309C84.5731 9.49287 84.6033 9.46266 84.6335 9.40223C84.7846 9.25115 84.9357 9.06986 85.0867 8.91878L87.0508 9.52309C87.081 9.70438 87.1112 9.85546 87.1414 10.0368C87.1414 10.0972 87.1414 10.1274 87.1414 10.1878C87.1414 10.2483 87.1414 10.2785 87.1112 10.3389C87.081 10.4598 86.9903 10.5202 86.8392 10.5202C86.7184 10.5202 86.5673 10.49 86.4162 10.4296C86.4162 10.49 86.386 10.5202 86.3558 10.5806C87.081 10.8224 87.8061 11.0641 88.5313 11.336C88.5615 11.2756 88.5615 11.2454 88.5917 11.1849C88.4407 11.0943 88.2896 11.0036 88.2292 10.8526ZM86.7184 7.22671C86.809 7.83102 86.8997 8.40512 86.9903 9.00943L85.4795 8.55619C85.9026 8.10296 86.2954 7.64973 86.7184 7.22671Z" fill="#3B3B3B"/>
<path d="M105.815 20.6122C105.785 20.4611 105.785 20.31 105.815 20.1287C106.117 18.618 106.359 17.077 106.54 15.536C105.15 16.2612 103.79 17.0165 102.461 17.8324C102.31 17.9532 102.128 17.9834 101.947 17.9834C101.766 17.9834 101.585 17.923 101.464 17.8324C101.433 17.8626 101.403 17.923 101.373 17.9532C101.887 18.2554 102.37 18.5877 102.884 18.9201C102.914 18.8899 102.944 18.8295 102.974 18.7993C102.823 18.7086 102.733 18.618 102.672 18.5273C102.612 18.4367 102.612 18.3762 102.672 18.2554C102.672 18.2554 102.703 18.2252 102.733 18.1949C102.763 18.1647 102.793 18.1345 102.854 18.1043C103.035 17.9834 103.246 17.8928 103.428 17.7719L105.12 18.9201C105.09 19.0712 105.059 19.2525 105.059 19.4338C105.029 19.4942 105.029 19.5244 105.029 19.5849C105.029 19.6453 104.999 19.6755 104.969 19.7057C104.878 19.8266 104.787 19.8568 104.667 19.7964C104.546 19.7662 104.425 19.7057 104.274 19.5849C104.244 19.6151 104.213 19.6755 104.183 19.7057C104.818 20.159 105.422 20.6122 106.026 21.0654C106.056 21.0352 106.087 21.005 106.117 20.9446C105.936 20.8841 105.845 20.733 105.815 20.6122ZM105.452 16.6842C105.361 17.2885 105.271 17.8626 105.18 18.4669L103.881 17.5906C104.395 17.2583 104.908 16.9561 105.452 16.6842Z" fill="#3B3B3B"/>
<path d="M30.4571 121.743C30.4873 121.713 30.5175 121.653 30.5477 121.623C30.6988 121.743 30.8499 121.804 30.9708 121.864C31.0916 121.925 31.2125 121.864 31.3031 121.774C31.3333 121.743 31.3636 121.683 31.3636 121.623C31.3636 121.562 31.3938 121.532 31.3938 121.471C31.4844 120.505 31.5751 119.538 31.6959 118.571C30.8197 119.024 29.9132 119.507 28.9765 119.93C28.9161 119.961 28.8859 119.991 28.8557 120.021C28.8255 120.051 28.7952 120.051 28.7952 120.051C28.7348 120.142 28.7348 120.233 28.7952 120.323C28.8557 120.414 28.9765 120.505 29.1578 120.625C29.1276 120.656 29.0974 120.716 29.0672 120.746C28.5233 120.354 27.9794 119.93 27.4355 119.507C27.4658 119.477 27.496 119.417 27.5262 119.387C27.6471 119.477 27.8283 119.568 28.0399 119.598C28.2514 119.628 28.4327 119.598 28.614 119.507C30.0341 118.843 31.424 118.118 32.8139 117.392C32.6024 118.933 32.4211 120.535 32.3002 122.106C32.3002 122.287 32.3305 122.438 32.3607 122.589C32.4211 122.741 32.542 122.892 32.7233 123.043C32.693 123.073 32.6628 123.133 32.6326 123.164C31.8772 122.741 31.1521 122.257 30.4571 121.743Z" fill="#3B3B3B"/>
<path d="M40.7304 126.941C40.7002 127.031 40.67 127.122 40.7002 127.212C40.7304 127.273 40.7606 127.364 40.8211 127.394C40.8815 127.424 40.9419 127.515 41.0326 127.545C41.1232 127.575 41.1836 127.635 41.2743 127.696C41.2441 127.756 41.2441 127.787 41.2139 127.847C40.4585 127.515 39.6729 127.152 38.9175 126.759C38.9477 126.729 38.9477 126.669 38.9779 126.608C39.0686 126.638 39.1592 126.669 39.2499 126.699C39.3405 126.729 39.4311 126.759 39.4916 126.759C39.552 126.759 39.6427 126.759 39.7031 126.729C39.7635 126.699 39.8239 126.638 39.8844 126.548C40.3678 125.49 40.8815 124.463 41.3952 123.436C41.4858 123.254 41.4556 123.103 41.3649 122.982C41.2441 122.861 41.093 122.71 40.8513 122.559C40.8815 122.499 40.9117 122.469 40.9419 122.408C42.3318 123.103 43.752 123.738 45.1721 124.342C45.0512 124.735 44.9304 125.128 44.8397 125.551C44.7793 125.52 44.7189 125.49 44.6584 125.49C44.6886 125.279 44.6886 125.128 44.6886 125.007C44.6584 124.886 44.6282 124.765 44.5376 124.674C44.4469 124.584 44.3563 124.493 44.2052 124.433C44.0541 124.372 43.903 124.282 43.6915 124.191C43.2383 124.01 42.8153 123.798 42.3621 123.587C42.0901 123.979 40.9721 126.397 40.7304 126.941Z" fill="#3B3B3B"/>
<path d="M49.6141 130.959C48.7983 130.717 47.9825 130.446 47.1667 130.174C47.2875 129.841 47.4386 129.539 47.5595 129.207C47.7407 129.237 47.9523 129.207 48.1335 129.146C48.3148 129.086 48.4961 128.995 48.6472 128.874C48.7983 128.753 48.9494 128.602 49.0702 128.421C49.1911 128.24 49.2817 128.059 49.3422 127.877C49.4026 127.666 49.4328 127.454 49.4328 127.243C49.4328 127.031 49.4026 126.82 49.312 126.638C49.2213 126.427 49.1004 126.276 48.9192 126.095C48.7379 125.943 48.5263 125.792 48.2242 125.702C47.9523 125.611 47.6803 125.551 47.4386 125.581C47.1969 125.581 46.9854 125.641 46.8041 125.732C46.6228 125.823 46.4415 125.974 46.3206 126.125C46.1695 126.306 46.0789 126.487 45.9882 126.699C45.9278 126.85 45.8976 127.031 45.8674 127.243C45.8372 127.424 45.8674 127.636 45.8976 127.847C45.9278 128.028 46.0185 128.24 46.1393 128.421C46.2602 128.602 46.381 128.753 46.5623 128.874C46.4717 129.207 46.3811 129.539 46.2904 129.871C45.5048 129.6 44.7192 129.297 43.9336 128.965C44.0545 128.602 44.2055 128.27 44.3566 127.907C44.417 127.938 44.4775 127.968 44.5379 127.968C44.5077 128.119 44.5379 128.27 44.5681 128.391C44.5983 128.512 44.689 128.633 44.8401 128.693C45.2329 128.844 45.6257 128.995 46.0185 129.146C46.0487 129.056 46.0789 128.965 46.1091 128.874C45.8674 128.723 45.6559 128.572 45.4746 128.361C45.2933 128.149 45.1724 127.938 45.0818 127.696C44.9911 127.454 44.9609 127.212 44.9307 126.971C44.9005 126.729 44.9609 126.518 45.0516 126.306C45.1422 126.064 45.2933 125.853 45.4746 125.641C45.6559 125.43 45.8976 125.309 46.1998 125.218C46.4717 125.128 46.8041 125.067 47.1667 125.097C47.5292 125.128 47.922 125.188 48.3753 125.339C48.8285 125.49 49.1911 125.671 49.463 125.883C49.735 126.095 49.9465 126.336 50.0976 126.578C50.2486 126.82 50.3393 127.092 50.3393 127.364C50.3393 127.636 50.3393 127.907 50.2486 128.149C50.1882 128.361 50.0976 128.542 49.9465 128.723C49.8256 128.905 49.6443 129.056 49.4328 129.176C49.2213 129.297 49.0098 129.388 48.7379 129.448C48.4659 129.509 48.194 129.509 47.8616 129.479C47.8314 129.569 47.8012 129.66 47.771 129.751C48.194 129.902 48.617 130.023 49.0098 130.143C49.1609 130.204 49.312 130.174 49.4026 130.083C49.4932 129.992 49.5839 129.871 49.6745 129.751C49.735 129.781 49.8256 129.781 49.886 129.811C49.8256 130.234 49.735 130.597 49.6141 130.959Z" fill="#3B3B3B"/>
<path d="M57.6211 132.772C57.6211 132.712 57.6513 132.682 57.6513 132.621C57.9837 132.682 58.1952 132.682 58.316 132.621C58.4369 132.561 58.4973 132.47 58.5276 132.319C58.7089 131.231 58.8599 130.174 59.0412 129.086C59.0714 128.935 59.0714 128.784 59.0714 128.693C59.0714 128.602 59.0412 128.512 58.9808 128.451C58.9204 128.391 58.8599 128.33 58.7693 128.3C58.6786 128.27 58.5578 128.24 58.4369 128.21C58.4369 128.149 58.4671 128.089 58.4671 128.028C59.2527 128.179 60.0383 128.3 60.8239 128.391C60.8239 128.451 60.7937 128.512 60.7937 128.572C60.6124 128.572 60.4916 128.572 60.3707 128.572C60.2498 128.572 60.1894 128.602 60.129 128.663C60.0685 128.693 60.0081 128.784 60.0081 128.844C59.9779 128.935 59.9477 129.025 59.9477 129.177C59.7966 130.264 59.6455 131.352 59.4945 132.44C59.4642 132.742 59.706 132.923 60.2498 133.014C60.2498 133.074 60.2498 133.105 60.2196 133.165C59.3132 133.074 58.4369 132.923 57.6211 132.772Z" fill="#3B3B3B"/>
<path d="M67.9846 129.751C67.9846 129.539 67.9242 129.388 67.8034 129.267C67.6825 129.176 67.5314 129.116 67.2897 129.116C67.2897 129.056 67.2897 128.995 67.2897 128.935C68.0149 128.965 68.74 128.965 69.4652 128.965C69.4652 129.025 69.4652 129.086 69.4652 129.146C69.1933 129.146 69.012 129.207 68.9515 129.328C68.8911 129.509 68.8609 129.69 68.8609 129.811C68.8609 130.264 68.8609 130.717 68.8609 131.171C69.6767 131.171 70.4925 131.171 71.3084 131.14C71.2781 130.687 71.2781 130.234 71.2479 129.781C71.2479 129.569 71.1573 129.418 71.0062 129.297C70.8551 129.176 70.704 129.146 70.5228 129.146C70.5228 129.086 70.5228 129.025 70.5228 128.965C71.2479 128.935 71.9731 128.905 72.6983 128.874C72.6983 128.935 72.6983 128.995 72.6983 129.056C72.4565 129.056 72.3055 129.146 72.2148 129.267C72.1242 129.388 72.094 129.6 72.094 129.871C72.1544 130.869 72.2148 131.835 72.2753 132.833C72.2753 132.923 72.3055 133.014 72.3055 133.104C72.3357 133.195 72.3659 133.256 72.4263 133.316C72.4868 133.376 72.5472 133.437 72.668 133.467C72.7587 133.497 72.9098 133.528 73.0609 133.528C73.0609 133.588 73.0609 133.618 73.0609 133.679C72.245 133.739 71.4292 133.769 70.6436 133.769C70.6436 133.709 70.6436 133.679 70.6436 133.618C70.8249 133.618 70.9458 133.588 71.0364 133.558C71.1271 133.528 71.2177 133.467 71.2479 133.407C71.3084 133.346 71.3386 133.256 71.3386 133.165C71.3386 133.074 71.3386 132.953 71.3386 132.802C71.3084 132.379 71.3084 131.926 71.2781 131.503C70.4623 131.533 69.6465 131.533 68.8307 131.533C68.8307 132.047 68.8307 132.53 68.8307 133.044C68.8307 133.135 68.8307 133.225 68.8609 133.286C68.8609 133.346 68.8911 133.407 68.9515 133.437C69.012 133.467 69.0724 133.497 69.1631 133.528C69.2537 133.558 69.4048 133.558 69.5559 133.588C69.5559 133.648 69.5559 133.679 69.5559 133.739C68.74 133.739 67.9242 133.739 67.1084 133.709C67.1084 133.648 67.1084 133.618 67.1084 133.558C67.2897 133.558 67.4106 133.528 67.5012 133.497C67.5918 133.467 67.6825 133.437 67.7127 133.376C67.7429 133.316 67.8034 133.256 67.8034 133.195C67.8034 133.135 67.8336 133.044 67.8336 132.923C67.9544 131.896 67.9544 130.838 67.9846 129.751Z" fill="#3B3B3B"/>
<path d="M38.1923 126.487C38.0412 126.366 37.9506 126.215 37.8901 126.064C37.8297 125.913 37.8297 125.762 37.8297 125.581C37.9808 124.01 38.0714 122.408 38.1016 120.807C36.8326 121.683 35.5635 122.559 34.3549 123.466C34.234 123.587 34.0528 123.647 33.8412 123.647C33.6297 123.647 33.4787 123.617 33.3578 123.556C33.3276 123.587 33.2974 123.647 33.2974 123.677C33.8412 123.979 34.3549 124.251 34.8686 124.553C34.8988 124.523 34.929 124.463 34.929 124.433C34.7779 124.342 34.6571 124.251 34.5966 124.191C34.5362 124.13 34.506 124.04 34.5664 123.919C34.5664 123.919 34.5966 123.889 34.6268 123.859C34.6571 123.828 34.6873 123.798 34.7175 123.768C34.9592 123.587 35.2009 123.436 35.4124 123.254L37.0139 124.161C36.9837 124.433 36.9837 124.674 36.9837 124.946C36.9837 125.007 36.9534 125.067 36.9534 125.097C36.9534 125.158 36.9232 125.188 36.893 125.248C36.8326 125.369 36.7117 125.4 36.5909 125.369C36.47 125.339 36.3491 125.279 36.1981 125.188C36.1678 125.218 36.1376 125.279 36.1376 125.309C36.8024 125.702 37.4369 126.125 38.0714 126.548C38.1621 126.578 38.1923 126.548 38.1923 126.487ZM37.0743 123.677L35.8657 122.982C36.2887 122.68 36.7117 122.378 37.1347 122.076C37.1347 122.62 37.1045 123.133 37.0743 123.677Z" fill="#3B3B3B"/>
<path d="M56.9259 132.44C56.7446 132.349 56.6238 132.258 56.5331 132.138C56.4727 132.017 56.4123 131.835 56.382 131.654C56.382 131.594 56.382 131.564 56.3518 131.503C56.3518 131.412 56.3216 131.322 56.3216 131.231L56.2612 130.476L55.6871 130.355L55.5662 130.325L54.2972 127.092L54.1461 127.303C53.5418 128.028 52.4238 129.448 52.2425 129.69H52.1821L51.6382 129.569L50.913 130.536C50.8224 130.687 50.7015 130.778 50.5505 130.838C50.3994 130.899 50.2785 130.929 50.1577 130.899C50.1577 130.929 50.1274 130.989 50.1274 131.02C50.5807 131.08 51.0339 131.171 51.4871 131.261C51.5174 131.231 51.5174 131.171 51.5174 131.14C51.3965 131.11 51.2756 131.08 51.2152 131.05C51.1548 131.02 51.1246 130.929 51.1548 130.838C51.1548 130.838 51.1548 130.808 51.185 130.778C51.2152 130.748 51.2152 130.717 51.2454 130.657C51.3663 130.506 51.4569 130.385 51.5778 130.234L51.6382 130.174C51.9102 130.204 54.7806 130.778 55.3849 130.929C55.4152 131.05 55.4152 131.171 55.4152 131.292C55.4152 131.322 55.4152 131.352 55.4152 131.352C55.4152 131.412 55.4152 131.473 55.4152 131.533C55.4152 131.594 55.4152 131.654 55.3849 131.684C55.3547 131.835 55.2641 131.896 55.113 131.926C54.9921 131.926 54.8411 131.926 54.69 131.896C54.6598 131.956 54.6598 132.017 54.6295 132.047C55.3849 132.198 56.1101 132.379 56.8353 132.591C56.8957 132.561 56.8957 132.5 56.9259 132.44ZM51.4267 130.023C51.4569 130.023 51.4569 130.023 51.4267 130.023ZM53.9044 129.992L53.3907 129.902L52.8166 129.781L52.6353 129.751C52.7562 129.599 53.6324 128.512 53.8742 128.24C53.8742 128.27 53.9044 128.3 53.9346 128.361L54.5993 130.113L53.9044 129.992Z" fill="#3B3B3B"/>
<path d="M66.1416 133.618C66.0509 133.588 65.9905 133.528 65.9603 133.467C65.9301 133.407 65.8999 133.316 65.8999 133.256C65.8999 133.165 65.8999 133.074 65.8999 132.984L66.1416 130.113L66.202 129.267V129.176L65.5071 129.116L65.2956 129.358L62.7272 132.379L62.969 129.781C62.969 129.66 62.9992 129.539 63.0294 129.448C63.0596 129.358 63.0898 129.297 63.1502 129.237C63.2107 129.176 63.2711 129.146 63.3618 129.116C63.4524 129.086 63.5733 129.086 63.7243 129.086V128.935L61.5488 128.753V128.905C61.6999 128.935 61.8208 128.965 61.9114 128.995C62.0021 129.025 62.0625 129.086 62.0927 129.146C62.1229 129.207 62.1531 129.297 62.1531 129.358C62.1531 129.418 62.1531 129.539 62.1531 129.63L61.8208 133.437H61.851L62.6064 133.497L62.697 133.376L65.2653 130.325L65.0538 132.772C65.0538 132.923 65.0236 133.014 65.0236 133.105C65.0236 133.195 64.9632 133.256 64.9027 133.316C64.8423 133.376 64.7819 133.407 64.6912 133.437C64.6006 133.467 64.4797 133.467 64.3287 133.467V133.618L66.5042 133.799V133.648C66.3531 133.709 66.2322 133.648 66.1416 133.618Z" fill="#3B3B3B"/>
<path d="M64.7822 128.391C64.6915 128.451 64.5707 128.482 64.4498 128.482C64.329 128.482 64.2081 128.421 64.1174 128.33C64.0268 128.24 63.9966 128.149 63.9966 128.028C63.9966 127.907 64.057 127.817 64.1477 127.756C64.2383 127.696 64.3592 127.666 64.48 127.666C64.6009 127.666 64.7218 127.726 64.8124 127.817C64.903 127.907 64.9333 127.998 64.9333 128.119C64.9333 128.24 64.8728 128.33 64.7822 128.391Z" fill="#3B3B3B"/>
<path d="M84.7546 131.594C84.6639 131.563 84.6035 131.533 84.5431 131.503C84.4826 131.443 84.4524 131.382 84.4222 131.322C84.392 131.231 84.3618 131.171 84.3618 131.05L83.7877 128.24L83.6064 127.394L83.5762 127.303L82.9114 127.454L82.7906 127.726L81.1891 131.352L80.6755 128.814C80.6453 128.693 80.6453 128.572 80.615 128.482C80.615 128.391 80.615 128.3 80.6453 128.24C80.6755 128.179 80.7359 128.119 80.8265 128.058C80.887 127.998 81.0078 127.968 81.1589 127.938L81.1287 127.787L78.9834 128.24L79.0136 128.391C79.1647 128.361 79.2856 128.361 79.3762 128.391C79.4669 128.421 79.5575 128.451 79.5877 128.482C79.6481 128.542 79.6784 128.602 79.7086 128.663C79.7388 128.723 79.769 128.814 79.769 128.935L80.5244 132.681H80.5546L81.2798 132.53L81.3402 132.41L82.9416 128.753L83.4251 131.171C83.4553 131.292 83.4553 131.412 83.4855 131.503C83.5157 131.594 83.4855 131.684 83.4553 131.745C83.4251 131.805 83.3647 131.866 83.274 131.926C83.1834 131.987 83.0927 132.017 82.9416 132.047L82.9719 132.198L85.1172 131.745L85.0869 131.594C84.9661 131.624 84.8452 131.624 84.7546 131.594Z" fill="#3B3B3B"/>
<path d="M81.9447 126.971C81.8842 127.061 81.7634 127.122 81.6425 127.152C81.5217 127.182 81.4008 127.152 81.2799 127.092C81.1591 127.031 81.0986 126.941 81.0986 126.82C81.0986 126.699 81.0986 126.608 81.1893 126.517C81.2497 126.427 81.3706 126.366 81.4914 126.336C81.6123 126.306 81.7332 126.336 81.8238 126.397C81.9145 126.457 81.9749 126.548 82.0051 126.669C82.0353 126.789 82.0353 126.88 81.9447 126.971Z" fill="#3B3B3B"/>
<path d="M78.5906 132.772C78.4999 132.742 78.4395 132.712 78.3791 132.651C78.3186 132.591 78.2884 132.53 78.2582 132.44C78.228 132.349 78.228 132.258 78.1978 132.168L77.8956 129.297L77.805 128.451V128.361L77.11 128.421L76.959 128.693L75.0252 132.168L74.7532 129.599C74.723 129.479 74.723 129.358 74.723 129.267C74.723 129.176 74.7532 129.086 74.7834 129.025C74.8136 128.965 74.8741 128.905 74.9647 128.874C75.0554 128.844 75.146 128.814 75.3273 128.784L75.2971 128.633L73.1216 128.874L73.1518 129.025C73.3029 129.025 73.4237 129.025 73.5144 129.056C73.605 129.086 73.6655 129.116 73.7259 129.176C73.7863 129.237 73.8165 129.297 73.8468 129.388C73.877 129.479 73.877 129.569 73.9072 129.66L74.3302 133.467H74.3604L75.1158 133.376L75.1762 133.256L77.11 129.781L77.382 132.228C77.4122 132.349 77.4122 132.47 77.4122 132.561C77.4122 132.651 77.382 132.742 77.3518 132.802C77.3215 132.863 77.2611 132.923 77.1705 132.953C77.0798 132.984 76.959 133.014 76.8079 133.044L76.8381 133.195L79.0136 132.953V132.802C78.8021 132.833 78.6812 132.802 78.5906 132.772Z" fill="#3B3B3B"/>
<path d="M104.576 122.197C103.851 122.68 103.126 123.164 102.401 123.647C102.219 123.345 102.068 123.043 101.887 122.741C102.038 122.59 102.129 122.438 102.189 122.257C102.249 122.076 102.28 121.895 102.28 121.683C102.28 121.502 102.249 121.29 102.189 121.079C102.129 120.897 102.038 120.686 101.917 120.535C101.796 120.354 101.645 120.202 101.464 120.082C101.283 119.961 101.101 119.84 100.89 119.81C100.678 119.749 100.467 119.749 100.225 119.779C99.9833 119.81 99.7416 119.931 99.4696 120.082C99.2279 120.233 99.0164 120.414 98.8653 120.626C98.7142 120.837 98.6236 121.018 98.5934 121.23C98.5632 121.441 98.5632 121.653 98.6236 121.864C98.684 122.076 98.7747 122.287 98.8955 122.469C98.9862 122.62 99.107 122.741 99.2581 122.892C99.4092 123.043 99.5603 123.133 99.7416 123.224C99.9229 123.315 100.104 123.375 100.316 123.405C100.527 123.436 100.739 123.405 100.95 123.345C101.162 123.617 101.373 123.919 101.585 124.191C100.86 124.644 100.134 125.067 99.4092 125.46C99.2279 125.128 99.0164 124.825 98.8351 124.493C98.8955 124.463 98.956 124.433 99.0164 124.402C99.107 124.493 99.2279 124.584 99.379 124.644C99.4998 124.705 99.6509 124.705 99.802 124.614C100.165 124.402 100.527 124.191 100.89 123.979C100.829 123.919 100.799 123.828 100.739 123.738C100.467 123.859 100.195 123.889 99.9229 123.919C99.6509 123.919 99.4092 123.889 99.1675 123.798C98.9257 123.708 98.7142 123.617 98.5329 123.466C98.3517 123.315 98.2006 123.164 98.0797 122.952C97.9286 122.71 97.8682 122.469 97.838 122.197C97.8078 121.925 97.838 121.653 97.9286 121.381C98.0193 121.109 98.2006 120.837 98.4121 120.565C98.6236 120.293 98.956 120.021 99.3488 119.779C99.7416 119.538 100.134 119.356 100.467 119.266C100.799 119.175 101.131 119.145 101.434 119.205C101.736 119.236 101.978 119.326 102.219 119.477C102.461 119.628 102.642 119.81 102.793 120.021C102.914 120.203 103.005 120.384 103.065 120.595C103.126 120.807 103.126 121.049 103.126 121.26C103.126 121.472 103.035 121.743 102.914 121.985C102.793 122.227 102.612 122.469 102.401 122.68C102.461 122.741 102.491 122.831 102.552 122.922C102.914 122.68 103.277 122.438 103.639 122.197C103.79 122.106 103.851 121.985 103.851 121.834C103.851 121.683 103.821 121.562 103.76 121.411C103.821 121.381 103.881 121.32 103.942 121.29C104.153 121.592 104.365 121.895 104.576 122.197Z" fill="#3B3B3B"/>
<path d="M103.216 118.208C103.095 118.027 102.944 117.936 102.793 117.936C102.642 117.936 102.461 117.997 102.28 118.118C102.249 118.087 102.219 118.027 102.189 117.967C102.793 117.544 103.398 117.09 104.002 116.637C104.032 116.667 104.062 116.728 104.123 116.758C103.881 116.939 103.79 117.09 103.79 117.211C103.851 117.392 103.941 117.544 104.032 117.664C104.304 118.027 104.606 118.39 104.878 118.722C105.543 118.208 106.238 117.695 106.872 117.151C106.57 116.818 106.268 116.456 105.996 116.123C105.845 115.972 105.694 115.882 105.513 115.882C105.331 115.882 105.15 115.942 105.029 116.063C104.999 116.033 104.969 115.972 104.908 115.942C105.513 115.459 106.087 114.975 106.661 114.492C106.691 114.522 106.752 114.582 106.782 114.613C106.6 114.764 106.51 114.915 106.51 115.096C106.51 115.247 106.631 115.428 106.782 115.64C107.446 116.395 108.111 117.121 108.776 117.876C108.836 117.967 108.927 118.027 108.987 118.057C109.048 118.118 109.139 118.148 109.229 118.148C109.32 118.148 109.41 118.148 109.501 118.118C109.592 118.087 109.743 117.997 109.864 117.906C109.894 117.936 109.924 117.997 109.985 118.027C109.35 118.571 108.685 119.115 108.021 119.659C107.99 119.628 107.96 119.568 107.93 119.538C108.051 119.417 108.172 119.326 108.232 119.236C108.293 119.145 108.323 119.054 108.323 118.994C108.323 118.903 108.293 118.843 108.262 118.752C108.202 118.662 108.141 118.571 108.051 118.48C107.779 118.148 107.477 117.815 107.205 117.483C106.54 118.027 105.875 118.541 105.18 119.054C105.482 119.447 105.815 119.84 106.117 120.263C106.177 120.354 106.238 120.414 106.298 120.444C106.359 120.474 106.419 120.505 106.48 120.505C106.54 120.505 106.631 120.474 106.721 120.444C106.812 120.414 106.933 120.323 107.084 120.233C107.114 120.263 107.144 120.323 107.175 120.354C106.51 120.867 105.815 121.351 105.15 121.834C105.12 121.804 105.09 121.743 105.059 121.713C105.211 121.592 105.301 121.502 105.362 121.441C105.422 121.351 105.452 121.29 105.482 121.2C105.482 121.139 105.482 121.049 105.452 120.988C105.422 120.928 105.362 120.837 105.301 120.777C104.546 119.931 103.881 119.054 103.216 118.208Z" fill="#3B3B3B"/>
<path d="M97.6262 123.466C97.596 123.224 97.5053 123.013 97.3845 122.831C97.2636 122.62 97.0823 122.469 96.8406 122.318C96.6291 122.167 96.3873 122.076 96.1154 122.015C95.8435 121.955 95.5715 121.955 95.2996 121.985C95.0276 122.015 94.7557 122.106 94.4838 122.257C94.2118 122.408 94.0003 122.559 93.819 122.71C93.6377 122.861 93.5169 123.043 93.396 123.194C93.2751 123.345 93.2147 123.496 93.1845 123.647C93.1845 123.677 93.1845 123.677 93.1845 123.708C93.0334 123.647 92.8823 123.617 92.701 123.617C92.4895 123.617 92.278 123.617 92.0363 123.647C91.7946 123.677 91.5226 123.768 91.2507 123.889C90.9788 124.01 90.737 124.161 90.5255 124.372C90.3442 124.554 90.1932 124.765 90.0723 125.007C89.9514 125.249 89.9212 125.46 89.891 125.732C89.8608 126.004 89.9212 126.215 90.0421 126.427C90.1327 126.608 90.2838 126.79 90.4651 126.971C90.6766 127.152 90.8881 127.273 91.1601 127.364C91.432 127.454 91.7341 127.515 92.0363 127.515C92.3385 127.515 92.6708 127.454 93.0032 127.303C93.0334 127.303 93.0334 127.273 93.0636 127.273C93.2449 127.213 93.396 127.092 93.5471 126.941C93.6982 126.79 93.819 126.608 93.9399 126.397C94.1816 126.82 94.3931 127.243 94.6046 127.666L95.8435 127.182C95.5715 126.729 95.3298 126.246 95.0579 125.792C95.2996 125.823 95.5413 125.823 95.7528 125.823C95.9643 125.792 96.1758 125.732 96.3269 125.672C96.3571 125.672 96.3571 125.641 96.3873 125.641C96.6895 125.49 96.9312 125.279 97.1125 125.037C97.2938 124.795 97.4147 124.554 97.4751 124.282C97.6262 123.949 97.6564 123.708 97.6262 123.466ZM96.6593 124.825C96.5384 125.007 96.3571 125.158 96.1154 125.309C95.9039 125.43 95.6924 125.46 95.4809 125.46C95.2694 125.46 95.0276 125.369 94.8161 125.249C94.7255 125.097 94.6348 124.916 94.5442 124.735C94.2722 124.886 93.5471 125.309 93.4564 125.339C93.5471 125.52 93.6377 125.672 93.7284 125.853C93.7284 126.095 93.6679 126.306 93.5471 126.487C93.4262 126.669 93.2449 126.789 93.0334 126.88C92.7615 127.001 92.5198 127.031 92.3082 127.031C92.0967 127.001 91.8852 126.941 91.7039 126.85C91.5226 126.759 91.3716 126.608 91.2507 126.457C91.1298 126.306 91.009 126.155 90.9485 125.974C90.8579 125.762 90.7975 125.581 90.7975 125.4C90.7975 125.218 90.7975 125.037 90.8579 124.886C90.9183 124.735 90.9788 124.614 91.0996 124.493C91.2205 124.372 91.3413 124.282 91.4622 124.221C91.7644 124.1 92.0061 124.04 92.1874 124.07C92.3687 124.1 92.5802 124.161 92.7615 124.251C92.8521 124.221 92.973 124.131 93.1241 124.07C93.3356 123.949 93.5471 123.828 93.7284 123.738C93.8795 123.647 94.0003 123.587 94.0607 123.556C94.091 123.345 94.1212 123.164 94.242 123.013C94.3629 122.861 94.514 122.68 94.7859 122.559C94.9068 122.499 95.0579 122.438 95.2392 122.438C95.4204 122.438 95.5715 122.438 95.7226 122.499C95.8737 122.559 96.0247 122.62 96.206 122.741C96.3571 122.861 96.5082 123.013 96.5988 123.194C96.6895 123.345 96.7801 123.526 96.8406 123.708C96.901 123.889 96.9312 124.1 96.901 124.282C96.8406 124.463 96.7499 124.644 96.6593 124.825Z" fill="#3B3B3B"/>
<path d="M133.401 62.4304C133.341 61.7657 133.311 61.1009 133.22 60.4362L133.19 60.134L128.507 60.6779L128.235 58.6535L127.872 56.6593L129.534 56.3269L129.957 58.7139L132.918 58.2607L132.767 57.3844C132.525 56.0247 132.283 54.6046 131.951 53.2147L131.8 52.5802L127.207 53.6679L127.026 52.8219L126.724 51.7039C126.633 51.432 126.573 51.1903 126.512 50.9183C126.391 50.5557 126.301 50.1629 126.18 49.7701L127.812 49.2565C127.932 49.6493 128.053 50.0723 128.174 50.4651C128.265 50.737 128.325 51.009 128.416 51.3111L128.507 51.6133L131.407 50.8277L131.317 50.5255C131.226 50.2536 131.165 49.9816 131.075 49.6795C130.924 49.1356 130.773 48.5917 130.591 48.0781L129.685 45.3587L125.243 46.9601L125.122 46.6579C124.669 45.5097 124.216 44.3313 123.702 43.1831L125.243 42.4882L125.394 42.7903C125.636 43.3342 125.878 43.8781 126.089 44.422L126.21 44.7241L128.99 43.5759L128.869 43.2738C128.658 42.6695 128.386 42.0954 128.114 41.5213L127.842 40.917C127.57 40.2825 127.237 39.5875 126.875 38.8623L126.573 38.2882L122.343 40.4033C122.282 40.2522 122.191 40.1012 122.101 39.9501C121.889 39.4969 121.648 39.0436 121.376 38.6206L120.379 36.8681L121.829 35.9919L123.037 38.1069L125.666 36.6566L124.246 34.1789C123.944 33.6955 123.642 33.212 123.34 32.7286L122.735 31.7617L118.807 34.3602C118.566 33.9674 118.294 33.6048 118.022 33.2422C117.901 33.061 117.75 32.8797 117.629 32.6984L116.934 31.7315C116.783 31.52 116.632 31.3387 116.481 31.1272L116.33 30.9459C116.33 30.8854 116.36 30.8552 116.42 30.825C117.417 30.0092 118.384 29.2236 119.381 28.4078C119.502 28.3171 119.593 28.3171 119.684 28.3775C119.774 28.438 119.895 28.5588 120.016 28.7099C120.076 28.6797 120.107 28.6193 120.167 28.5891C119.744 28.0452 119.291 27.5013 118.838 26.9574C118.686 26.7459 118.505 26.5646 118.294 26.3833C118.082 26.202 117.901 26.0812 117.689 25.9905C117.478 25.8999 117.266 25.8697 117.055 25.8697C116.843 25.8999 116.632 25.9905 116.42 26.1718C116.269 26.2927 116.179 26.4438 116.118 26.625C116.058 26.8063 116.027 26.9574 116.027 27.1387C116.027 27.32 116.058 27.4711 116.118 27.6524C116.179 27.8035 116.239 27.9545 116.33 28.0754C115.967 28.0452 114.245 27.9545 113.912 27.9243C113.792 27.8941 113.671 27.8639 113.55 27.8337C113.459 27.7732 113.338 27.6826 113.217 27.5617C113.157 27.6222 113.127 27.6524 113.066 27.6826C113.489 28.1358 113.882 28.5891 114.275 29.0423C114.335 29.0121 114.366 28.9516 114.426 28.9214C114.275 28.7401 114.245 28.6193 114.305 28.5588C114.335 28.5286 114.396 28.5286 114.456 28.5286C114.577 28.5286 116.269 28.6495 116.813 28.7099C116.934 28.861 117.055 28.9819 117.145 29.1329C116.722 29.4955 116.299 29.8581 115.876 30.2207C115.786 30.2811 115.725 30.3113 115.635 30.2811C115.544 30.2509 115.453 30.1603 115.302 30.0092L114.94 29.5862L114.487 29.9488C114.487 29.9488 116.239 31.9732 116.39 32.1545L117.055 33.1214C117.176 33.3027 117.327 33.484 117.448 33.6653C117.75 34.1185 118.082 34.5717 118.384 35.025L118.566 35.2969L122.494 32.6984L122.766 33.1214C123.068 33.6048 123.37 34.0883 123.672 34.5717L124.76 36.4753L123.249 37.2911L122.04 35.176L119.472 36.717L120.802 39.0134C121.043 39.4364 121.285 39.8897 121.497 40.3429C121.617 40.5846 121.738 40.8263 121.889 41.0681L122.04 41.34L126.24 39.2249C126.603 39.9199 126.905 40.6148 127.207 41.2493L127.479 41.8537C127.691 42.3069 127.902 42.7903 128.083 43.2738L126.512 43.9083C126.331 43.4551 126.119 43.0018 125.908 42.5486L125.515 41.6724L122.766 42.9112L122.917 43.2134C123.491 44.422 123.974 45.691 124.458 46.9299L124.79 47.8363L129.201 46.2349L129.896 48.3198C130.078 48.8334 130.229 49.3773 130.38 49.891C130.44 50.0723 130.471 50.2536 130.531 50.4349L128.869 50.8881C128.809 50.7068 128.778 50.5557 128.718 50.3744C128.567 49.8608 128.446 49.3471 128.265 48.8334L128.174 48.5313L125.304 49.4378L125.425 49.7399C125.576 50.1931 125.727 50.6766 125.848 51.16C125.908 51.432 125.999 51.7039 126.059 51.9456L126.361 53.0636L126.694 54.514L131.286 53.4262C131.619 54.7859 131.86 56.206 132.102 57.5657L132.132 57.7772L130.44 58.0492L130.017 55.6319L127.086 56.206L127.54 58.8046L127.872 61.4635L132.555 60.9196C132.616 61.4635 132.676 62.0074 132.706 62.5513L132.797 63.6693C132.827 64.2131 132.888 64.757 132.888 65.3009L131.196 65.3613C131.196 64.8174 131.135 64.3038 131.105 63.7901L131.045 62.9139L128.053 63.1556L128.083 63.488C128.204 64.6362 128.235 65.8146 128.235 66.9325C128.235 67.3253 128.265 67.7181 128.265 68.1109V68.4131H132.948L132.918 69.1685C132.888 70.3771 132.858 71.6159 132.767 72.8548L131.045 72.7339C131.045 72.613 131.075 72.4922 131.075 72.3713C131.105 71.7972 131.165 71.1929 131.165 70.5886V70.2865L128.174 70.1656V70.498C128.174 71.0418 128.144 71.6159 128.083 72.1598C128.053 72.3713 128.053 72.613 128.023 72.8246L127.993 73.1569C127.932 73.8217 127.902 74.4864 127.812 75.1511L127.751 75.4835L132.435 76.0274L132.374 76.5411C132.314 77.1152 132.223 77.659 132.163 78.2029L131.77 80.3784L130.108 80.0461L130.531 77.6288L127.57 77.1756L127.117 79.7741C127.026 80.2576 126.935 80.741 126.814 81.2245C126.754 81.4964 126.694 81.7683 126.633 82.0403L126.573 82.3424L131.135 83.4302L130.924 84.3669L130.591 85.5755C130.501 85.8474 130.44 86.1496 130.35 86.4215C130.229 86.8445 130.108 87.2676 129.987 87.6906L128.355 87.1769C128.476 86.7539 128.597 86.3611 128.718 85.9381C128.778 85.6661 128.869 85.3942 128.96 85.1223L129.05 84.8201L126.15 84.0043L126.059 84.3064C125.696 85.6359 125.243 86.9654 124.82 88.2647L124.548 89.0805L128.96 90.6819L128.869 90.9236C128.386 92.1927 127.872 93.492 127.298 94.7308L125.727 94.0056C125.787 93.8848 125.848 93.7337 125.908 93.6128C126.15 93.0992 126.391 92.5855 126.573 92.0416L126.694 91.7395L123.914 90.5913L123.793 90.8934C123.612 91.3769 123.4 91.8603 123.189 92.3438C123.098 92.5553 122.977 92.797 122.886 93.0085L122.403 94.0661C122.282 94.2776 122.191 94.5193 122.071 94.7308L121.738 95.3955L125.938 97.5106C125.848 97.6919 125.757 97.8732 125.666 98.0243C125.425 98.5077 125.183 98.9912 124.911 99.4746L123.823 101.378L122.373 100.502L123.581 98.3869L120.953 96.9365L119.623 99.2329L118.173 101.499L122.101 104.098C121.859 104.49 121.557 104.883 121.315 105.246C121.164 105.457 121.013 105.699 120.862 105.911L120.137 106.938L119.563 107.693L118.203 106.636L118.777 105.911L119.684 104.641L117.236 102.889L116.39 104.098L115.665 105.004C115.484 105.216 115.333 105.457 115.151 105.669C114.849 106.062 114.547 106.454 114.215 106.817L114.003 107.059L117.599 110.08L116.148 111.772L114.698 113.283C114.638 113.253 114.607 113.223 114.547 113.192C114.487 113.162 114.396 113.102 114.305 113.041L113.64 112.649L113.187 113.041L113.097 113.132L109.743 112.226L109.803 112.467C110.045 113.374 110.498 115.126 110.558 115.428L110.498 115.459L110.075 115.821L110.438 117C110.498 117.151 110.498 117.302 110.468 117.453C110.438 117.604 110.347 117.725 110.287 117.815C110.317 117.846 110.347 117.876 110.377 117.906C110.71 117.574 111.042 117.272 111.405 116.939C111.374 116.909 111.344 116.879 111.314 116.818C111.223 116.909 111.133 116.969 111.042 117C110.982 117.03 110.891 117 110.83 116.909C110.83 116.909 110.83 116.879 110.8 116.849C110.8 116.818 110.77 116.788 110.74 116.728C110.71 116.546 110.649 116.395 110.589 116.214V116.123C110.77 115.912 112.946 113.978 113.429 113.555C113.55 113.615 113.64 113.676 113.731 113.736C113.761 113.736 113.761 113.767 113.792 113.767C113.852 113.797 113.882 113.827 113.943 113.887C114.003 113.918 114.033 113.948 114.063 114.008C114.154 114.129 114.154 114.25 114.094 114.371C114.033 114.492 113.943 114.613 113.792 114.703C113.822 114.733 113.852 114.794 113.882 114.854C114.215 114.582 116.511 112.135 116.511 112.135L117.992 110.443L118.415 109.959L114.819 106.938C115.091 106.636 115.333 106.303 115.574 106.001C115.756 105.79 115.907 105.578 116.088 105.367L116.813 104.43L117.297 103.735L118.686 104.732L118.173 105.457L117.236 106.666L119.593 108.509L120.59 107.24L121.315 106.213C121.466 106.001 121.617 105.79 121.768 105.578C122.101 105.125 122.433 104.641 122.766 104.128L122.917 103.856L118.989 101.257L120.076 99.5351L121.104 97.7826L122.614 98.5984L121.406 100.713L123.974 102.254L125.394 99.7768C125.666 99.2933 125.938 98.7797 126.18 98.2962C126.271 98.1149 126.361 97.9336 126.452 97.7826L126.754 97.2085L122.554 95.0934L122.584 95.0027C122.705 94.761 122.826 94.5495 122.917 94.3078L123.4 93.2502C123.491 93.0387 123.581 92.797 123.702 92.5855C123.884 92.1927 124.065 91.7999 124.216 91.4071L125.787 92.0416C125.636 92.4646 125.425 92.8877 125.243 93.2805C125.122 93.5222 125.032 93.7337 124.941 93.9754L124.82 94.2776L127.54 95.5164L127.691 95.2142C128.325 93.8545 128.899 92.4344 129.413 91.0747L129.745 90.1985L125.304 88.5668L125.364 88.3553C125.787 87.1467 126.18 85.9381 126.542 84.669L128.174 85.1223C128.114 85.3036 128.083 85.4546 128.023 85.6359C127.872 86.1194 127.751 86.633 127.57 87.1467L127.449 87.4489L130.319 88.3553L130.44 88.0532C130.622 87.5093 130.773 86.9654 130.924 86.4517C131.014 86.1798 131.075 85.8777 131.165 85.6057L131.498 84.3669L131.709 83.4L131.86 82.7655L127.268 81.6777C127.298 81.5266 127.328 81.3453 127.389 81.1943C127.509 80.7108 127.63 80.1971 127.691 79.7137L128.053 77.7195L129.745 77.9914L129.322 80.3784L132.253 80.9525L132.767 78.1123C132.858 77.5382 132.918 76.9943 133.009 76.4202L133.16 75.272L128.476 74.7281C128.537 74.154 128.597 73.5799 128.627 73.0361L128.658 72.7037C128.658 72.4922 128.688 72.2505 128.718 72.039C128.748 71.5857 128.778 71.1325 128.809 70.6793L130.501 70.7397C130.501 71.2231 130.44 71.6764 130.41 72.1598C130.38 72.4015 130.38 72.613 130.35 72.8548L130.319 73.1871L133.311 73.4289L133.341 73.1267C133.462 71.767 133.492 70.4073 133.522 69.0778L133.552 68.3224V67.7181V67.6879H128.839C128.839 67.416 128.839 67.1138 128.809 66.8117C128.778 65.7843 128.748 64.6966 128.658 63.639L130.35 63.5182L130.38 63.7599C130.44 64.3642 130.471 64.9987 130.471 65.6333V65.9656L133.462 65.8448V65.5426C133.462 64.8779 133.401 64.2131 133.341 63.5484L133.401 62.4304ZM117.085 28.4078C116.843 28.1358 116.722 27.8639 116.692 27.5617C116.662 27.2596 116.753 27.0178 117.025 26.7761C117.266 26.5646 117.508 26.5042 117.81 26.5646C118.112 26.625 118.384 26.8366 118.656 27.1689C118.777 27.2898 118.898 27.4409 118.989 27.5617C118.475 27.9847 117.961 28.4078 117.478 28.861C117.297 28.7099 117.176 28.5588 117.085 28.4078ZM111.858 114.22L111.465 114.582L111.042 114.975L110.891 115.096C110.861 114.915 110.498 113.555 110.407 113.223C110.438 113.223 110.468 113.253 110.528 113.253L112.341 113.767L111.858 114.22Z" fill="#3B3B3B"/>
<path d="M112.704 105.911L112.915 105.669L113.127 105.427C115.877 102.164 118.324 98.4171 120.409 94.3078L120.56 94.0057C120.862 93.4014 121.164 92.797 121.406 92.1927C121.557 91.8604 121.708 91.5582 121.859 91.2258C122.192 90.4705 122.494 89.6849 122.796 88.9295L123.128 88.0532C123.763 86.2403 124.458 84.095 124.971 81.8288L125.032 81.5267L125.092 81.2245C126.059 77.0246 126.573 72.7037 126.603 68.3527V68.0203V67.688C126.573 63.3369 126.059 59.0161 125.092 54.8162L125.032 54.5442C125.032 54.514 125.032 54.514 125.032 54.4838L124.971 54.1816C124.428 51.9155 123.733 49.7702 123.098 47.9572L122.766 47.081C122.464 46.3256 122.161 45.54 121.829 44.7846C121.678 44.4522 121.527 44.1501 121.376 43.8177C121.104 43.2134 120.832 42.6091 120.5 42.0048L120.348 41.7026C118.264 37.5933 115.816 33.8466 113.067 30.5833L112.885 30.3416C112.885 30.3416 112.885 30.3114 112.855 30.3114L112.644 30.0697C109.803 26.7459 106.631 23.7546 103.216 21.1561L102.944 20.9748L102.672 20.7935C99.1674 18.2252 95.3905 16.0497 91.4625 14.2972L91.1905 14.1763C91.1905 14.1763 91.1905 14.1763 91.1603 14.1763L90.8582 14.0554C87.0208 12.3936 82.851 11.1547 78.4396 10.3691L78.1374 10.3087C78.1374 10.3087 78.1374 10.3087 78.1072 10.3087L77.805 10.2483C73.4238 9.49289 69.0728 9.25117 64.8728 9.49289H64.5707C64.5707 9.49289 64.5707 9.49289 64.5404 9.49289L64.2081 9.52311C59.8873 9.79505 55.5967 10.5504 51.4571 11.7591L51.1852 11.8497H51.155L50.8528 11.9403C46.8644 13.149 42.8759 14.8713 38.9781 17.077L38.7062 17.2281L38.4342 17.3791C36.44 18.5273 34.5969 19.8266 32.9955 20.9446C31.5753 22.0323 29.7624 23.4827 28.0401 25.1143L27.8286 25.3862L27.5869 25.5978C24.3236 28.7402 21.5438 32.0639 19.2474 35.5387L19.0661 35.8106C19.0661 35.8106 19.0661 35.8408 19.0359 35.8408L18.8848 36.0825C16.4978 39.7688 14.5338 43.6364 13.0532 47.6551L12.9626 47.927L12.8417 48.2292C11.3914 52.3083 10.3943 56.5384 9.88059 60.829L9.85038 61.1312L9.75973 61.9772L9.57844 64.5153C9.54822 65.2405 9.51801 65.9657 9.51801 66.6909C9.51801 67.1139 9.48779 67.5067 9.48779 67.9599C9.48779 68.3829 9.51801 68.7757 9.51801 69.1987C9.51801 69.9239 9.54822 70.6491 9.57844 71.3743L9.75973 73.9124L9.85038 74.7584L9.88059 75.0908C10.3943 79.3814 11.3914 83.6115 12.8417 87.6906L12.9626 87.9928L13.0834 88.2949C14.564 92.3136 16.528 96.1812 18.915 99.8675L19.0963 100.139L19.2776 100.411C21.574 103.886 24.3538 107.21 27.6171 110.322L27.8588 110.564C27.889 110.564 27.889 110.594 27.9193 110.594L28.1005 110.775C29.8228 112.407 31.666 113.857 33.0861 114.945C34.6573 116.093 36.5307 117.362 38.4947 118.51L38.7666 118.662C38.827 118.692 38.8573 118.722 38.9177 118.752L39.0688 118.843C42.9666 121.049 46.955 122.801 50.9435 123.979L51.2456 124.07H51.2758L51.5478 124.161C55.6873 125.369 59.9779 126.125 64.2987 126.397L64.5707 126.427H64.6009L64.9332 126.457C65.9606 126.518 66.9577 126.548 67.985 126.548C71.2181 126.548 74.5418 126.246 77.8655 125.702L78.1676 125.641L78.4698 125.581C82.8813 124.765 87.051 123.526 90.8884 121.895L91.1603 121.774C91.1603 121.774 91.1603 121.774 91.1905 121.774L91.4927 121.653C95.4509 119.9 99.1976 117.725 102.703 115.157L102.944 114.975L103.216 114.794C106.631 112.195 109.803 109.204 112.644 105.88L112.704 105.911ZM112.402 105.246C109.471 108.721 106.177 111.833 102.612 114.492C98.9861 117.181 95.0581 119.447 90.9488 121.23C86.9906 122.982 82.6395 124.251 78.077 125.067H78.0468C73.4842 125.853 68.9821 126.125 64.6311 125.853H64.5707C60.0988 125.581 55.6571 124.795 51.3665 123.526H51.3363C47.1967 122.318 43.0874 120.535 39.0386 118.208H39.0083C36.9537 117.06 34.9897 115.7 33.3883 114.522C31.9077 113.404 30.0041 111.893 28.2214 110.171C24.8373 106.938 21.9064 103.493 19.5798 99.8675C17.1021 96.0603 15.0474 92.0114 13.5367 87.8417V87.8115C12.0259 83.5813 10.9986 79.2001 10.4547 74.7584L10.4245 74.426L10.364 73.9124L10.1827 71.3743C10.1525 70.6491 10.1223 69.9541 10.1223 69.229C10.1223 68.8059 10.0921 68.4131 10.0921 68.0203C10.0921 67.5973 10.1223 67.1743 10.1223 66.7815C10.1223 66.0563 10.1525 65.3614 10.1827 64.6362L10.364 62.1283L10.4245 61.6146L10.4547 61.3125V61.2823C10.9684 56.8406 12.0259 52.4291 13.5367 48.2292V48.199C15.0474 44.0292 17.1021 39.9803 19.5798 36.1732C21.9064 32.5775 24.8071 29.133 28.1912 25.9301L28.2516 25.8697C30.0343 24.1776 31.9379 22.6366 33.3883 21.5187C35.0199 20.3403 36.9537 18.9806 39.0083 17.8324H39.0386C43.0874 15.5058 47.227 13.7231 51.3665 12.5144H51.3967C55.6873 11.2454 60.1592 10.4598 64.6613 10.1878C69.0123 9.91591 73.5447 10.1878 78.1072 10.9735C82.7 11.7893 87.0208 13.0885 90.979 14.8108H91.0092C95.1185 16.5935 99.0163 18.8597 102.642 21.5187C106.208 24.2078 109.501 27.32 112.432 30.7646C115.151 33.9977 117.599 37.6537 119.684 41.7328L119.835 42.0048L119.865 42.035C120.228 42.6997 120.53 43.3947 120.832 44.0594C120.983 44.3918 121.134 44.7242 121.285 45.0263C121.618 45.7817 121.92 46.5371 122.192 47.2925L122.524 48.1687C123.159 50.0421 123.914 52.2781 124.428 54.6349V54.6651C125.455 59.0161 125.969 63.488 125.999 67.9901C125.999 72.4922 125.455 76.9943 124.428 81.3454V81.3756C123.884 83.7324 123.159 85.9381 122.524 87.8115L122.192 88.6877C121.889 89.4431 121.587 90.1985 121.285 90.9539C121.134 91.2863 120.983 91.6186 120.832 91.951C120.53 92.6158 120.228 93.3107 119.865 93.9755L119.835 94.0359L119.684 94.3078C117.569 98.3265 115.151 102.013 112.402 105.246Z" fill="#3B3B3B"/>
<path d="M136 68.0203V67.6879C135.97 62.6117 135.365 57.5658 134.248 52.6708L134.187 52.3687C133.673 50.1327 132.978 47.7759 131.921 44.7846L131.619 43.9688C131.256 43.0321 130.863 42.035 130.471 41.0983C130.319 40.7659 130.168 40.4033 130.017 40.071C129.685 39.3156 129.322 38.5602 128.96 37.835L128.809 37.5329C126.391 32.7588 123.551 28.4078 120.348 24.6006L120.137 24.3589L119.925 24.1172C116.632 20.2496 112.946 16.7446 108.927 13.7231L108.685 13.5418C108.685 13.5418 108.655 13.5418 108.655 13.5115L108.383 13.3303C104.274 10.3087 99.8623 7.74038 95.2393 5.71595L94.9976 5.59508C94.9976 5.59508 94.9673 5.59508 94.9673 5.56487L94.6652 5.44401C90.1329 3.51021 85.238 2.05987 80.1315 1.12319L79.8294 1.06276C79.8294 1.06276 79.8294 1.06276 79.7992 1.06276L79.497 1.00233C74.3906 0.126077 69.3144 -0.145863 64.3892 0.126077L64.0871 0.156292C64.0871 0.156292 64.0871 0.156292 64.0569 0.156292L63.7245 0.186508C58.6785 0.518878 53.6627 1.39513 48.798 2.81526L48.5261 2.9059H48.4959L48.1937 2.99655C43.5103 4.41668 38.8269 6.4109 34.2946 9.00944L34.0227 9.16051L33.7507 9.31159C31.3335 10.7015 29.1277 12.2727 27.4055 13.4813C25.0487 15.2943 23.2055 16.8353 21.6041 18.346L21.3624 18.5575L21.1206 18.769C17.3437 22.3949 14.0804 26.2927 11.3912 30.3416L11.21 30.6135L11.0287 30.8855C8.24883 35.1761 5.95246 39.7084 4.19996 44.422L4.07909 44.7242L3.95823 45.0263C2.26616 49.8004 1.08776 54.7557 0.483448 59.7715L0.453233 60.1039L0.332371 61.101L0.120862 64.0621C0.060431 64.9685 0.060431 65.875 0.0302155 66.7513C0.0302155 67.1743 0 67.5973 0 68.0203C0 68.4433 0.0302155 68.8663 0.0302155 69.2894C0.060431 70.1656 0.060431 71.0721 0.120862 71.9785L0.362586 74.9397L0.513664 76.2389C1.11797 81.2547 2.29638 86.21 3.98845 90.9841L4.10931 91.2863L4.23017 91.5884C5.98267 96.2718 8.27905 100.834 11.0589 105.125L11.21 105.367C11.21 105.367 11.21 105.397 11.2402 105.397L11.4215 105.669C14.1106 109.748 17.3739 113.646 21.1509 117.241L21.3926 117.453L21.6343 117.664C23.2357 119.175 25.0789 120.716 27.4357 122.529C29.1277 123.738 31.3637 125.309 33.7507 126.699L34.0227 126.85L34.2946 127.001C38.8269 129.569 43.5103 131.594 48.1937 133.014L48.4959 133.105H48.5261L48.798 133.195C53.6627 134.615 58.6785 135.492 63.7245 135.824L64.0569 135.854C64.0569 135.854 64.0569 135.854 64.0871 135.854L64.3892 135.884C65.5677 135.945 66.7763 135.975 67.9849 135.975C71.7618 135.975 75.6294 135.643 79.497 134.978L79.8294 134.917C79.8294 134.917 79.8294 134.917 79.8596 134.917L80.1617 134.857C85.2984 133.92 90.1631 132.47 94.6652 130.536L94.9673 130.415L95.2695 130.294C99.8925 128.27 104.304 125.702 108.383 122.71L108.655 122.529L108.897 122.348C112.885 119.326 116.602 115.821 119.895 111.954L120.107 111.712L120.318 111.47C123.521 107.633 126.361 103.282 128.778 98.538L128.93 98.2358C129.322 97.4804 129.655 96.725 129.987 95.9697C130.138 95.6373 130.289 95.2747 130.44 94.9423C130.863 93.9754 131.226 93.0085 131.619 92.0416L131.921 91.256C132.978 88.2647 133.673 85.9079 134.187 83.6719L134.248 83.3698C135.396 78.4447 135.97 73.3987 136 68.3527V68.0203ZM133.553 83.5511L133.492 83.8532C133.009 85.9683 132.314 88.2043 131.347 91.0445L131.045 91.8301C130.682 92.7668 130.289 93.7639 129.896 94.7006C129.745 95.033 129.594 95.3956 129.443 95.7279C129.081 96.574 128.688 97.42 128.235 98.2358L128.084 98.5078C125.666 103.221 122.826 107.512 119.623 111.289C116.239 115.308 112.402 118.903 108.262 122.015C104.062 125.128 99.4997 127.756 94.7256 129.841L94.6954 129.871C90.0724 131.896 85.0264 133.376 79.7387 134.313C74.4812 135.22 69.2237 135.522 64.1475 135.22C58.9202 134.917 53.7534 134.011 48.7376 132.5H48.7074C43.8729 131.08 39.0384 128.995 34.355 126.306C31.8774 124.886 29.5508 123.284 27.7983 122.015C25.3508 120.142 23.4472 118.541 21.8156 116.969C17.8876 113.253 14.5034 109.204 11.7538 105.004C8.85314 100.593 6.49633 95.9092 4.71362 91.0445C2.96112 86.1496 1.7525 81.013 1.14819 75.8461L1.11797 75.544L1.02733 74.9095L0.785603 71.9483C0.725172 71.0721 0.725172 70.1656 0.694957 69.2894C0.694957 68.8663 0.664741 68.4433 0.664741 68.0505C0.664741 67.6275 0.694957 67.2045 0.694957 66.8117C0.725172 65.9354 0.725172 65.029 0.785603 64.1527L0.997112 61.2218L1.08776 60.5571L1.11797 60.2549V60.2247C1.72228 55.0579 2.9309 49.9212 4.71362 45.0263C6.49633 40.1616 8.85314 35.4782 11.7538 31.0668C14.5337 26.8064 17.8876 22.7877 21.8156 19.041C23.4472 17.4698 25.3508 15.8684 27.7983 13.995C29.5508 12.7259 31.8471 11.0943 34.355 9.70439C39.0082 7.01521 43.8427 4.93034 48.6772 3.51021H48.7074C53.7232 2.02965 58.89 1.12319 64.1173 0.821033C69.1935 0.518878 74.451 0.821033 79.7085 1.7275C84.9962 2.66418 90.0422 4.17495 94.6954 6.19939C99.4694 8.28426 104.032 10.913 108.232 14.0252C112.371 17.1374 116.179 20.7331 119.563 24.7215C122.766 28.4984 125.606 32.789 128.023 37.5027L128.174 37.7746L128.204 37.8048C128.627 38.6206 129.02 39.4667 129.383 40.2825C129.534 40.6149 129.685 40.9774 129.836 41.3098C130.259 42.2465 130.622 43.2134 130.984 44.1501L131.286 44.9357C132.283 47.7759 132.948 50.0119 133.432 52.127L133.492 52.4291C134.701 57.5053 135.305 62.7326 135.305 67.9599C135.365 73.2476 134.731 78.4749 133.553 83.5511Z" fill="#3B3B3B"/>
<path d="M26.62 112.467C26.8315 112.679 26.9524 112.89 27.0128 113.041C27.0733 113.192 27.0733 113.344 26.9222 113.495C26.1668 114.401 24.5654 116.274 24.5352 116.335C24.4747 116.395 24.4445 116.426 24.4143 116.456H24.3841L24.5352 116.305L23.5985 115.428L23.3568 115.217C22.2086 114.159 21.151 113.041 20.0935 111.923L20.0331 111.863L21.3021 110.715L22.9942 112.498L25.1395 110.382L23.2963 108.449L21.5438 106.424L17.9482 109.446C17.6763 109.113 17.4043 108.751 17.1324 108.418C16.9511 108.177 16.7698 107.965 16.5885 107.723L16.3166 107.361C16.1655 107.149 15.9842 106.938 15.8331 106.726L15.2892 105.971L16.6791 104.974L17.1928 105.699C17.3439 105.911 17.5252 106.122 17.6763 106.334L18.1295 106.938L20.4863 105.095L20.0331 104.521C19.882 104.339 19.7309 104.128 19.5798 103.947L18.9151 103.01C18.764 102.829 18.6431 102.617 18.4921 102.436C18.1899 102.013 17.8575 101.56 17.5856 101.106L17.4043 100.834L13.4763 103.433L13.1741 102.98C12.872 102.496 12.5698 102.013 12.2677 101.56L11.1799 99.656L12.6907 98.8401L13.8993 100.955L16.4676 99.4142L15.1382 97.1178C14.8964 96.6948 14.6547 96.2416 14.4432 95.7884C14.3223 95.5466 14.2015 95.3049 14.0504 95.033L13.8993 94.761L9.69936 96.8761C9.36699 96.2114 9.06483 95.5164 8.76268 94.8819L8.49074 94.2776C8.27923 93.8244 8.06772 93.3409 7.88643 92.8575L9.45764 92.2229C9.63893 92.6762 9.85044 93.1596 10.0619 93.5826L10.4547 94.4589L13.2044 93.22L13.0533 92.9179C12.5094 91.7395 12.026 90.5007 11.5425 89.3222L11.1497 88.3251L6.73824 89.9266L6.01307 87.8115C5.83177 87.2978 5.6807 86.7539 5.52962 86.2403C5.46919 86.059 5.43897 85.8777 5.37854 85.6964L7.04039 85.2432C7.10083 85.4244 7.13104 85.5755 7.19147 85.7568C7.34255 86.2705 7.46341 86.7841 7.64471 87.2978L7.73535 87.6L10.6058 86.6935L10.485 86.3913C10.3339 85.9381 10.1828 85.4244 10.0619 84.9712C10.0015 84.6993 9.91087 84.4273 9.82022 84.1554L9.51807 83.0374L9.1857 81.5871L4.59294 82.6748C4.26057 81.3151 4.01884 79.9252 3.77712 78.5655L3.7469 78.354L5.43897 78.0821L5.86199 80.4993L8.79289 79.9252L8.33966 77.3267L8.00729 74.6979L3.32389 75.2418C3.26346 74.6677 3.20303 74.1238 3.17281 73.5498L3.08216 72.462C3.05195 71.9181 2.99152 71.3742 2.99152 70.8304L4.7138 70.7699C4.74402 71.3138 4.77423 71.8275 4.80445 72.3411L4.86488 73.2174L7.85621 72.9757L7.826 72.6433C7.70514 71.4649 7.67492 70.2563 7.67492 69.1081C7.67492 68.7455 7.67492 68.3527 7.64471 67.9901V67.6879H3.05195L3.08216 66.9628C3.11238 65.7542 3.14259 64.5153 3.23324 63.2765L4.95552 63.3973C4.95552 63.5182 4.92531 63.6391 4.92531 63.7599C4.89509 64.334 4.83466 64.9383 4.83466 65.5426V65.8448L7.826 65.9657V65.6333C7.826 65.0894 7.85621 64.5153 7.91664 64.0017C7.94686 63.7901 7.94686 63.5786 7.97708 63.3369L8.00729 62.9139C8.03751 62.3096 8.09794 61.6448 8.18858 61.0405L8.24902 60.7082L3.5354 60.1643L3.59583 59.6204C3.65626 59.0463 3.7469 58.5024 3.80734 57.9586L4.20014 55.783L5.89221 56.1154L5.46919 58.5326L8.43031 58.9859L8.88354 56.3571C8.97419 55.8737 9.06483 55.3902 9.1857 54.9068C9.24613 54.6348 9.30656 54.3629 9.36699 54.091L9.42742 53.7888L4.86488 52.7011L5.07639 51.7946L5.40876 50.586C5.4994 50.314 5.55984 50.0119 5.65048 49.7399C5.77134 49.3169 5.89221 48.8939 6.01307 48.4709L7.64471 48.9845C7.49363 49.4076 7.40298 49.8004 7.28212 50.2234C7.22169 50.4953 7.13104 50.7673 7.04039 51.0392L6.94975 51.3414L9.85044 52.1572L9.94108 51.855C10.0317 51.5831 10.0922 51.3111 10.1828 51.0392C10.3037 50.5558 10.4547 50.0723 10.6058 49.6191L11.4519 47.1112L7.04039 45.5098L7.16126 45.2378C7.6447 43.9688 8.15837 42.6695 8.73246 41.4005L10.3037 42.1256C10.2432 42.2465 10.1828 42.3976 10.1224 42.5184C9.88065 43.0321 9.63893 43.5458 9.45764 44.0896L9.33677 44.3918L12.1166 45.54L12.2375 45.2378C12.4188 44.7544 12.6303 44.2407 12.872 43.7875C12.9626 43.576 13.0835 43.3342 13.1741 43.1227L13.6576 42.0652C13.7785 41.8235 13.8691 41.612 13.99 41.4005L14.3223 40.7357L10.1224 38.6206C10.213 38.4696 10.2735 38.2883 10.3641 38.1372C10.6058 37.6537 10.8475 37.1703 11.1195 36.6868L12.2072 34.7833L13.6576 35.6595L12.449 37.7746L15.0777 39.2249L16.377 36.9286L17.7971 34.6926L18.8547 33.0912C18.8547 33.0912 20.7884 30.7344 19.3683 29.979C17.7971 29.1027 16.5281 30.9761 16.2259 31.7919L14.6245 30.7042C14.9266 30.2812 15.2288 29.8581 15.531 29.4653C15.682 29.284 15.8029 29.1027 15.9238 28.9819C16.0446 28.861 16.1655 28.7704 16.2561 28.7099C16.3468 28.6495 16.4978 28.6495 16.6187 28.6495C16.7698 28.6495 16.9209 28.7099 17.1022 28.7704C17.1324 28.7099 17.1928 28.6495 17.223 28.6193C16.8604 28.4078 16.4978 28.1963 16.1353 27.9848C15.1079 29.284 14.141 30.6437 13.2346 32.0034C13.295 32.0337 13.3252 32.0639 13.3857 32.0941C13.5669 31.8826 13.7482 31.7013 13.8993 31.6106C14.0504 31.52 14.2015 31.52 14.3828 31.6408C15.3497 32.2754 17.4345 33.6351 17.495 33.6653C17.5554 33.6955 17.6158 33.7559 17.646 33.7861L16.9209 34.9041L15.8331 36.6264L14.836 38.3789L13.3252 37.5631L14.5338 35.448L11.9655 33.907L10.5454 36.3847C10.2432 36.8681 10.0015 37.3818 9.75979 37.8652C9.63893 38.107 9.48785 38.3789 9.36699 38.6508L9.21591 38.953L13.4159 41.0681L13.3857 41.1285C13.2648 41.3702 13.1439 41.5817 13.0231 41.8235L12.5396 42.9112C12.449 43.1227 12.3281 43.3645 12.2375 43.576C12.0562 43.9688 11.8749 44.3616 11.7238 44.7846L10.1526 44.1501C10.3037 43.727 10.5152 43.304 10.6965 42.9112C10.7871 42.6695 10.908 42.458 10.9986 42.2163L11.1195 41.9141L8.40009 40.6753L8.24902 40.9472C7.61449 42.3069 7.04039 43.727 6.52673 45.117L6.40587 45.4191L6.22458 45.9328V45.963V45.9932L10.6663 47.5946L10.0317 49.4982C9.85044 49.9817 9.72957 50.4651 9.5785 50.9486C9.54828 51.0996 9.48785 51.2809 9.42742 51.432L7.76557 50.9788C7.826 50.7975 7.85621 50.6464 7.91664 50.4651C8.06772 49.9817 8.18858 49.468 8.36988 48.9543L8.49074 48.6522L5.62027 47.7457L5.4994 48.0479C5.31811 48.5917 5.16703 49.1356 5.01596 49.6493C4.92531 49.9212 4.86488 50.2234 4.77423 50.4953L4.44186 51.7342L4.07928 53.2751L8.67203 54.3629C8.64182 54.5442 8.58139 54.6953 8.55117 54.8464C8.43031 55.3298 8.30945 55.8435 8.2188 56.3571L7.85621 58.3514L6.16414 58.0794L6.58716 55.6924L3.65626 55.1183L3.14259 57.9586C3.05195 58.5326 2.99152 59.0765 2.90087 59.6506L2.84044 60.1945L2.78001 60.829L7.46341 61.3729C7.40298 61.9168 7.34255 62.4304 7.31233 62.9743L7.28212 63.3973C7.28212 63.6089 7.2519 63.8204 7.22169 64.0621C7.19147 64.5153 7.16126 64.9685 7.13104 65.4218L5.43897 65.3614C5.43897 64.8779 5.4994 64.4247 5.52962 63.9412C5.55984 63.6995 5.55983 63.488 5.59005 63.2463L5.62027 62.9139L2.62893 62.5815L2.59872 62.8837C2.47785 64.2434 2.44764 65.6031 2.41742 66.9326L2.38721 68.3225H7.10083C7.10083 68.5944 7.10083 68.8663 7.13104 69.1383C7.16126 70.1958 7.19147 71.3138 7.28212 72.4016L5.59005 72.5224L5.55983 72.2807C5.4994 71.6764 5.46919 71.0419 5.46919 70.4073V70.075L2.44764 70.1958V70.498C2.44764 71.1627 2.50807 71.8577 2.5685 72.4922L2.65915 73.58C2.68936 74.1541 2.74979 74.7282 2.81022 75.272L2.87065 75.9066L7.55406 75.3627L7.826 77.3871L8.18858 79.3813L6.49652 79.7137L6.0735 77.3267L3.11238 77.7799L3.26346 78.6562C3.5354 80.1367 3.77712 81.6475 4.16992 83.0979L4.26057 83.4L8.82311 82.3122L9.0044 83.1583L9.33677 84.3065C9.42742 84.5784 9.48785 84.8504 9.5785 85.0921C9.69936 85.4849 9.79001 85.8777 9.91087 86.2403L8.27923 86.7539C8.15837 86.3611 8.03751 85.9381 7.91664 85.5453C7.85621 85.2734 7.76557 85.0014 7.67492 84.6993L7.58427 84.3971L4.68359 85.1827L4.77423 85.4849C4.86488 85.7568 4.92531 86.0288 5.01596 86.3309C5.16703 86.8748 5.31811 87.4187 5.4994 87.9323L6.22458 90.0776L6.43608 90.6819L10.8778 89.0805L11.0288 89.4733C11.4519 90.5913 11.9051 91.7093 12.4188 92.8272L10.8778 93.5222L10.7569 93.22C10.5152 92.6762 10.2735 92.1323 10.0619 91.5884L9.94108 91.2863L7.16126 92.4344L7.28212 92.7366C7.49363 93.3409 7.76557 93.915 8.03751 94.4891L8.30945 95.0934C8.64182 95.8488 9.0044 96.6344 9.3972 97.3898L9.54828 97.6617L13.7482 95.5466C13.8389 95.6977 13.8993 95.8488 13.99 95.9999C14.2317 96.4531 14.4432 96.9063 14.7151 97.3596L15.7425 99.1121L14.2921 99.9883L13.0835 97.8732L10.4547 99.3236L11.8749 101.801C12.177 102.285 12.4792 102.768 12.7813 103.252L13.0835 103.705L13.4461 104.249L17.3741 101.65C17.6158 102.013 17.8878 102.375 18.1295 102.738C18.2806 102.919 18.4014 103.131 18.5223 103.312L19.187 104.279C19.3381 104.49 19.4892 104.672 19.6403 104.883L19.7007 104.944L18.341 106.001L18.2806 105.911C18.1295 105.699 17.9482 105.518 17.7971 105.306L16.8906 104.037L14.4432 105.79L15.3799 107.089C15.531 107.3 15.7122 107.542 15.8935 107.754L16.1655 108.116C16.3468 108.358 16.5281 108.57 16.7094 108.811C17.0417 109.234 17.3741 109.687 17.7669 110.111L17.9784 110.352L21.5741 107.331L22.9035 108.872L24.2934 110.352L23.0848 111.561L21.423 109.808L19.2172 111.833L19.7309 112.377C20.2748 112.951 20.8187 113.525 21.3928 114.099L25.0488 117.725C25.0488 117.725 27.1337 119.931 28.0704 118.631C29.1279 117.181 27.4359 115.67 26.6503 115.308L27.9193 113.827C28.3121 114.159 28.6747 114.522 29.0373 114.885C29.2186 115.036 29.3394 115.187 29.4603 115.338C29.5812 115.459 29.6416 115.58 29.6718 115.7C29.702 115.821 29.7322 115.942 29.702 116.063C29.6718 116.184 29.6114 116.365 29.4905 116.516C29.5509 116.577 29.5812 116.607 29.6416 116.667C29.8833 116.335 30.1553 116.003 30.397 115.67C29.2186 114.492 28.01 113.374 26.7711 112.286C26.7107 112.377 26.6805 112.437 26.62 112.467ZM17.4647 32.4869C17.1928 32.2754 16.8907 32.0941 16.6187 31.8826C16.7396 31.7013 16.9209 31.4898 17.0719 31.2783C17.2532 31.0668 17.4345 30.8855 17.6158 30.7344C17.8273 30.5833 18.0086 30.4624 18.2201 30.402C18.4316 30.3416 18.6129 30.3718 18.8244 30.4927C18.9453 30.5833 19.036 30.7042 19.0662 30.8552V30.8855C19.187 31.3689 18.9151 31.9732 18.6129 32.4265C18.4619 32.638 18.3108 32.8193 18.1899 33.0308L18.1597 33.0005L18.2201 33.0308L17.4647 32.4869ZM26.892 116.154C27.0733 116.365 27.2546 116.577 27.3754 116.788C27.4963 117 27.5869 117.211 27.6172 117.423C27.6474 117.634 27.5869 117.846 27.4661 117.997C27.3754 118.118 27.2244 118.178 27.1035 118.208H27.0733C26.5898 118.269 26.0157 117.906 25.5927 117.574C25.4114 117.423 25.2301 117.241 25.0488 117.09L25.0791 117.06L25.0488 117.121L25.6531 116.426C25.8949 116.154 26.1064 115.912 26.3481 115.67C26.5294 115.791 26.7107 115.972 26.892 116.154Z" fill="#3B3B3B"/>
<path d="M72.9102 71.072L105.12 70.9512H73.3332L72.9102 71.072Z" fill="#3B3B3B"/>
<path d="M33.3879 76.2993C33.3879 76.1785 33.3879 76.0878 33.3576 76.0274C33.3576 75.9368 33.2972 75.8763 33.267 75.8159C33.2066 75.7555 33.1159 75.7253 32.995 75.695C32.8742 75.6648 32.7231 75.6346 32.5116 75.6346V75.3929H34.4152L36.6209 80.1971L38.7662 75.3929H40.7604V75.6346C40.6094 75.6648 40.4885 75.6648 40.3979 75.6648C40.3072 75.695 40.2468 75.695 40.1863 75.7253C40.1259 75.7555 40.0957 75.7857 40.0655 75.8159C40.0353 75.8461 40.005 75.9065 39.9748 75.967C39.9144 76.2087 39.8842 76.39 39.8842 76.5411V81.0734C39.8842 81.1943 39.9144 81.3151 39.9446 81.3756C39.9748 81.436 40.0353 81.5266 40.0957 81.5568C40.1561 81.5871 40.2468 81.6173 40.3374 81.6475C40.4281 81.6777 40.5187 81.6777 40.6094 81.6777H40.7302V81.8892H38.0108V81.6777C38.313 81.6475 38.5245 81.5871 38.6151 81.5266C38.7058 81.4662 38.7964 81.3756 38.8266 81.1943V76.6015L36.4094 81.8892H36.2885L33.9317 76.8432V80.9827C33.9317 81.164 33.9619 81.3151 34.0526 81.4058C34.1432 81.4964 34.2037 81.5568 34.2943 81.5568C34.385 81.5871 34.5663 81.6173 34.8684 81.6475V81.859H32.4512V81.6475C32.6627 81.6173 32.8138 81.6173 32.9346 81.5871C33.0555 81.5568 33.1461 81.5266 33.2066 81.4964C33.3576 81.436 33.4181 81.2849 33.4181 81.0432L33.3879 76.2993Z" fill="#3B3B3B"/>
<path d="M53.6626 77.9612C53.572 78.1727 53.4511 78.354 53.3 78.5051C53.149 78.6562 52.9677 78.777 52.7562 78.8677C52.5447 78.9583 52.3331 79.0187 52.0914 79.0792C51.8497 79.1094 51.608 79.1396 51.3058 79.1698C51.0037 79.2 50.7317 79.2 50.3994 79.2V80.9525C50.3994 81.1338 50.4296 81.2849 50.4598 81.3756C50.49 81.4662 50.5806 81.5266 50.6411 81.5871C50.6713 81.5871 50.7015 81.6173 50.7619 81.6475C50.8224 81.6777 50.8828 81.6777 50.9432 81.6777C51.0037 81.6777 51.0641 81.7079 51.1245 81.7079C51.185 81.7079 51.2454 81.7079 51.2454 81.7079V81.9194H48.5864V81.7079L49.1907 81.5871C49.2512 81.5568 49.3116 81.4964 49.372 81.3756C49.4325 81.2547 49.4325 81.1338 49.4325 80.9223V76.4504C49.4325 76.2087 49.372 75.9972 49.2512 75.8461C49.1303 75.695 48.9188 75.6346 48.5864 75.6346V75.3929H51.0037C51.5173 75.3929 51.9706 75.4533 52.3029 75.5742C52.6353 75.695 52.9072 75.8461 53.1188 76.0274C53.3303 76.2087 53.4511 76.4202 53.5418 76.6317C53.6324 76.8432 53.6626 77.0547 53.6626 77.2662C53.7835 77.508 53.7533 77.7497 53.6626 77.9612ZM52.8468 77.1756C52.8468 76.9339 52.7864 76.7224 52.6353 76.5713C52.5144 76.39 52.3331 76.2691 52.1519 76.1483C51.9706 76.0274 51.7591 75.967 51.5475 75.9066C51.336 75.8461 51.1245 75.8159 50.9735 75.8159C50.8224 75.8159 50.7015 75.8159 50.6109 75.8461C50.5202 75.8763 50.4598 75.9065 50.4598 75.967V78.7166C50.8526 78.7166 51.185 78.6864 51.4871 78.6562C51.7893 78.6259 52.031 78.5353 52.2123 78.4447C52.3936 78.354 52.5749 78.2029 52.6655 77.9914C52.7864 77.8101 52.8166 77.5382 52.8468 77.2058V77.1756Z" fill="#3B3B3B"/>
<path d="M47.5291 81.6173C47.4083 81.5569 47.3478 81.4964 47.2874 81.4058C47.227 81.3151 47.1968 81.2245 47.1666 81.1036C47.1363 80.9828 47.1363 80.8619 47.1363 80.7108V76.6922C47.1363 76.6922 47.1363 76.6922 47.1363 76.6619V75.3627H46.2903L46.0788 75.7253L43.2385 80.2576V76.6317C43.2385 76.4504 43.2385 76.2993 43.2688 76.1483C43.2688 76.0274 43.3292 75.9066 43.3896 75.8159C43.45 75.7253 43.5407 75.6648 43.6313 75.6346C43.7522 75.6044 43.8731 75.5742 44.0846 75.5742V75.3627H41.335V75.5742C41.5163 75.5742 41.6673 75.6346 41.7882 75.6648C41.9091 75.695 41.9695 75.7857 42.0299 75.8763C42.0903 75.967 42.1206 76.0576 42.1508 76.1785C42.181 76.2994 42.181 76.4202 42.181 76.5713V81.9194H43.1479L43.2385 81.7684L46.0788 77.236V80.6806C46.0788 80.8619 46.0788 81.013 46.0486 81.164C46.0184 81.3151 45.9881 81.4058 45.9277 81.4964C45.8673 81.5871 45.7766 81.6475 45.686 81.6777C45.5651 81.7079 45.4141 81.7381 45.2328 81.7381V81.9497H47.9522V81.7381C47.8011 81.6777 47.65 81.6475 47.5291 81.6173Z" fill="#3B3B3B"/>
<path d="M67.5921 81.6173C67.4712 81.5569 67.4108 81.4964 67.3503 81.4058C67.2899 81.3151 67.2597 81.2245 67.2295 81.1036C67.1993 80.9828 67.1993 80.8619 67.1993 80.7108V76.6922C67.1993 76.6922 67.1993 76.6922 67.1993 76.6619V75.3627H66.3532L66.1417 75.7253L63.3015 80.2576V76.6317C63.3015 76.4504 63.3015 76.2993 63.3317 76.1483C63.3317 76.0274 63.3921 75.9066 63.4525 75.8159C63.513 75.7253 63.6036 75.6648 63.6943 75.6346C63.8151 75.6044 63.936 75.5742 64.1475 75.5742V75.3627H61.3677V75.5742C61.549 75.5742 61.7 75.6346 61.8209 75.6648C61.9418 75.695 62.0022 75.7857 62.0626 75.8763C62.1231 75.967 62.1533 76.0576 62.1835 76.1785C62.2137 76.2994 62.2137 76.4202 62.2137 76.5713V81.9194H63.1806L63.2713 81.7684L66.1115 77.236V80.6806C66.1115 80.8619 66.1115 81.013 66.0813 81.164C66.0511 81.3151 66.0209 81.4058 65.9604 81.4964C65.9 81.5871 65.8094 81.6475 65.7187 81.6777C65.5978 81.7079 65.4468 81.7381 65.2655 81.7381V81.9497H67.9849V81.7381C67.864 81.6777 67.7129 81.6475 67.5921 81.6173Z" fill="#3B3B3B"/>
<path d="M54.8109 76.4504C54.8109 76.1483 54.7505 75.9368 54.5994 75.8159C54.4483 75.695 54.2671 75.6346 53.9951 75.6346V75.3929H56.6541V75.6346C56.3217 75.6346 56.1102 75.695 56.0196 75.8763C55.9591 76.1483 55.8987 76.3598 55.8987 76.5411V78.354H58.7692V76.5411C58.7692 76.2389 58.6785 76.0274 58.5274 75.8763C58.3462 75.7253 58.1649 75.6346 57.9533 75.6346V75.3929H60.6123V75.6346C60.3404 75.6346 60.1289 75.7253 60.0382 75.9066C59.9476 76.0878 59.8569 76.3296 59.8569 76.6922V80.7108C59.8569 80.8619 59.8569 80.9827 59.8871 81.1036C59.9174 81.2245 59.9476 81.3151 60.008 81.4058C60.0684 81.4964 60.1591 81.5568 60.2497 81.6173C60.3404 81.6777 60.5217 81.7079 60.703 81.7079V81.9194H57.9836V81.7079C58.1649 81.7079 58.3159 81.6777 58.4368 81.6475C58.5577 81.6173 58.6181 81.5266 58.6785 81.4662C58.739 81.4058 58.7692 81.2849 58.7994 81.1338C58.8296 80.9828 58.8296 80.8317 58.8296 80.6504V78.8979H55.9591V80.9525C55.9591 81.1036 55.9591 81.1943 55.9893 81.2849C56.0196 81.3756 56.0498 81.436 56.1102 81.4964C56.1706 81.5568 56.2613 81.5871 56.3519 81.6173C56.4426 81.6475 56.6239 81.6777 56.8052 81.7079V81.9194H54.0858V81.7079C54.2671 81.7079 54.4181 81.6777 54.539 81.6173C54.6599 81.5568 54.7203 81.5266 54.7807 81.4662C54.8411 81.4058 54.8714 81.3151 54.9016 81.2245C54.9318 81.1338 54.9318 81.013 54.9318 80.8619L54.8109 76.4504Z" fill="#3B3B3B"/>
<path d="M74.5721 81.6173C74.4513 81.5569 74.3908 81.4964 74.3304 81.4058C74.27 81.3151 74.2397 81.2245 74.2095 81.1036C74.1793 80.9828 74.1793 80.8619 74.1793 80.7108V76.6922C74.1793 76.6922 74.1793 76.6922 74.1793 76.6619V75.3627H73.3333L73.1218 75.7253L70.2815 80.2576V76.6317C70.2815 76.4504 70.2815 76.2993 70.3117 76.1483C70.3117 76.0274 70.3722 75.9066 70.4326 75.8159C70.493 75.7253 70.5837 75.6648 70.6743 75.6346C70.7952 75.6044 70.916 75.5742 71.1275 75.5742V75.3627H68.3779V75.5742C68.5592 75.5742 68.7103 75.6346 68.8312 75.6648C68.952 75.695 69.0125 75.7857 69.0729 75.8763C69.1333 75.967 69.1635 76.0576 69.1937 76.1785C69.224 76.2994 69.224 76.4202 69.224 76.5713V81.9194H70.1909L70.2815 81.7684L73.1218 77.236V80.6806C73.1218 80.8619 73.1218 81.013 73.0916 81.164C73.0613 81.3151 73.0311 81.4058 72.9707 81.4964C72.9103 81.5871 72.8196 81.6475 72.729 81.6777C72.6081 81.7079 72.457 81.7381 72.2757 81.7381V81.9497H74.9951V81.7381C74.8441 81.6777 74.693 81.6475 74.5721 81.6173Z" fill="#3B3B3B"/>
<path d="M72.3056 74.4864C72.1848 74.6073 72.0639 74.6677 71.8826 74.6677C71.7013 74.6677 71.5805 74.6073 71.4596 74.4864C71.3387 74.3656 71.2783 74.2447 71.2783 74.0634C71.2783 73.8821 71.3387 73.7613 71.4596 73.6404C71.5805 73.5195 71.7013 73.4591 71.8826 73.4591C72.0639 73.4591 72.1848 73.5195 72.3056 73.6404C72.4265 73.7613 72.4869 73.8821 72.4869 74.0634C72.4869 74.2447 72.3963 74.3958 72.3056 74.4864Z" fill="#3B3B3B"/>
<path d="M82.2468 81.8892H79.0439V81.6475C79.2252 81.6173 79.3461 81.6173 79.467 81.5871C79.5878 81.5568 79.6483 81.5568 79.6785 81.4964C79.7087 81.436 79.7389 81.4058 79.7691 81.3453C79.7691 81.2849 79.7691 81.1943 79.7691 81.1036V76.5109C79.7691 76.3598 79.7691 76.2389 79.7389 76.1181C79.7087 75.9972 79.6785 75.9368 79.6483 75.8461C79.5878 75.7857 79.5274 75.7253 79.4367 75.695C79.3461 75.6648 79.2252 75.6346 79.0742 75.6044V75.3929H81.6727C82.0655 75.3929 82.3979 75.4533 82.7 75.544C83.0022 75.6346 83.2439 75.7857 83.4554 75.9368C83.6669 76.0878 83.818 76.2691 83.9389 76.4806C84.0597 76.6922 84.0899 76.9037 84.0899 77.1152C84.0899 77.3871 83.9993 77.659 83.8482 77.931C83.6971 78.2029 83.4252 78.3842 83.0626 78.5353C83.6065 78.7166 83.9691 78.9281 84.1806 79.2C84.3921 79.472 84.4827 79.8043 84.4827 80.1971C84.4525 81.3151 83.6971 81.8892 82.2468 81.8892ZM82.9417 76.6015C82.8511 76.4504 82.7 76.2994 82.5489 76.2087C82.3979 76.1181 82.2166 76.0274 82.0051 75.967C81.7936 75.9065 81.6123 75.8763 81.431 75.8763H80.6756V78.3842C81.0684 78.3842 81.431 78.3842 81.7029 78.354C82.0051 78.3238 82.2166 78.2634 82.4281 78.2029C82.6396 78.1123 82.7907 77.9914 82.9115 77.8403C83.0324 77.6893 83.0928 77.4778 83.0928 77.1756C83.0928 76.9339 83.0626 76.7526 82.9417 76.6015ZM83.1835 79.3813C83.0022 79.2 82.7604 79.0792 82.4885 78.9885C82.2166 78.8979 81.9144 78.8374 81.6123 78.8374C81.3101 78.8072 81.008 78.8072 80.7662 78.8072V81.436H81.8238C82.0655 81.436 82.277 81.4058 82.4885 81.3453C82.7 81.2849 82.8813 81.1943 83.0324 81.0734C83.1835 80.9525 83.3043 80.8015 83.395 80.6504C83.4856 80.4993 83.5461 80.2878 83.5461 80.1065C83.4856 79.8043 83.3648 79.5626 83.1835 79.3813Z" fill="#3B3B3B"/>
<path d="M91.7343 81.9497H88.8941L88.9847 80.5296C89.1962 80.4692 89.4077 80.3785 89.589 80.1972C89.7703 80.0159 89.9214 79.8648 90.0423 79.6231C90.1631 79.4116 90.2538 79.1699 90.3444 78.8979C90.4351 78.626 90.4653 78.3541 90.4653 78.0821C90.4653 77.78 90.4351 77.508 90.3444 77.2361C90.2538 76.9642 90.1631 76.7224 89.9818 76.4807C89.8307 76.2692 89.6192 76.0879 89.3473 75.9368C89.0754 75.7858 88.7732 75.7253 88.4106 75.7253C88.048 75.7253 87.7459 75.7858 87.4739 75.9066C87.202 76.0275 86.9905 76.2088 86.8394 76.4203C86.6581 76.6318 86.5373 76.8735 86.4768 77.1454C86.4164 77.4174 86.356 77.7195 86.356 78.0217C86.356 78.2634 86.3862 78.5051 86.4466 78.7469C86.507 78.9886 86.5977 79.2303 86.7185 79.472C86.8394 79.7138 86.9905 79.8951 87.1718 80.0764C87.3531 80.2576 87.5646 80.3785 87.7761 80.4692L87.8365 81.8893H85.0869V80.3785H85.3286C85.3588 80.5598 85.4495 80.7411 85.5099 80.9224C85.5704 81.1037 85.7214 81.1641 85.9027 81.1641H87.2926V80.8015C86.9905 80.7411 86.6883 80.6202 86.4164 80.4389C86.1445 80.2576 85.933 80.0461 85.7517 79.8044C85.5704 79.5627 85.4193 79.2907 85.3286 78.9886C85.2078 78.6864 85.1776 78.3843 85.1776 78.0821C85.1776 77.7195 85.238 77.3872 85.3589 77.0548C85.4797 76.7224 85.6912 76.4203 85.9329 76.1786C86.1747 75.9368 86.5373 75.7253 86.9301 75.544C87.3229 75.3627 87.8063 75.3023 88.3804 75.3023C88.9545 75.3023 89.4379 75.3929 89.8307 75.544C90.2236 75.6951 90.5559 75.9066 90.7976 76.1786C91.0394 76.4505 91.2207 76.7526 91.3415 77.085C91.4624 77.4174 91.5228 77.78 91.5228 78.1426C91.5228 78.4447 91.4926 78.7167 91.4019 79.0188C91.3113 79.2907 91.1904 79.5627 91.0092 79.8044C90.8279 80.0461 90.6163 80.2576 90.3444 80.4389C90.0725 80.6202 89.7703 80.7713 89.4379 80.862V81.2245H90.8883C91.0696 81.2245 91.2207 81.1339 91.3113 80.9828C91.402 80.8317 91.4624 80.6504 91.4926 80.4389H91.7343V81.9497Z" fill="#3B3B3B"/>
<path d="M96.6898 76.4504C96.6898 76.1483 96.6294 75.9368 96.4783 75.8159C96.3273 75.695 96.146 75.6346 95.874 75.6346V75.3929H98.533V75.6346C98.2006 75.6346 97.9891 75.695 97.8985 75.8763C97.838 76.1483 97.7776 76.3598 97.7776 76.5411V78.354H100.648V76.5411C100.648 76.2389 100.557 76.0274 100.406 75.8763C100.225 75.7253 100.044 75.6346 99.8322 75.6346V75.3929H102.491V75.6346C102.219 75.6346 102.008 75.7253 101.917 75.9066C101.826 76.0878 101.766 76.3296 101.766 76.6922V80.7108C101.766 80.8619 101.766 80.9827 101.796 81.1036C101.826 81.2245 101.857 81.3151 101.917 81.4058C101.978 81.4964 102.068 81.5568 102.159 81.6173C102.249 81.6777 102.431 81.7079 102.612 81.7079V81.9194H99.8927V81.7079C100.074 81.7079 100.225 81.6777 100.346 81.6475C100.467 81.6173 100.527 81.5266 100.588 81.4662C100.648 81.4058 100.678 81.2849 100.709 81.1338C100.739 80.9828 100.739 80.8317 100.739 80.6504V78.8979H97.8682V80.9525C97.8682 81.1036 97.8682 81.1943 97.8985 81.2849C97.9287 81.3756 97.9589 81.436 98.0193 81.4964C98.0797 81.5568 98.1704 81.5871 98.261 81.6173C98.3517 81.6475 98.533 81.6777 98.7143 81.7079V81.9194H95.9949V81.7079C96.1762 81.7079 96.3273 81.6777 96.4481 81.6173C96.569 81.5568 96.6294 81.5266 96.6898 81.4662C96.7503 81.4058 96.7805 81.3151 96.8107 81.2245C96.8107 81.1338 96.8409 81.013 96.8409 80.8619L96.6898 76.4504Z" fill="#3B3B3B"/>
<path d="M92.248 81.8892V81.6777C92.6106 81.6777 92.8524 81.6173 92.9732 81.5266C93.0941 81.4058 93.1545 81.2547 93.1545 81.0734V76.6619C93.1545 76.4504 93.1545 76.2691 93.0941 76.1181C93.0639 75.9972 93.0034 75.8763 92.943 75.8159C92.8826 75.7555 92.7919 75.695 92.6711 75.695C92.5502 75.6648 92.4293 75.6648 92.248 75.6648V75.4231H95.1185V75.6648C94.907 75.695 94.7559 75.7253 94.6351 75.7555C94.5142 75.7857 94.4236 75.8461 94.3631 75.9065C94.3027 75.967 94.2423 76.0576 94.2423 76.1785C94.212 76.2993 94.2121 76.4504 94.2121 76.6317V81.0734C94.2121 81.4964 94.5142 81.6777 95.1487 81.6777V81.8892H92.248Z" fill="#3B3B3B"/>
<path d="M93.2148 74.4864C93.094 74.6073 92.9731 74.6677 92.7918 74.6677C92.6105 74.6677 92.4897 74.6073 92.3688 74.4864C92.2479 74.3656 92.1875 74.2447 92.1875 74.0634C92.1875 73.8821 92.2479 73.7613 92.3688 73.6404C92.4897 73.5195 92.6105 73.4591 92.7918 73.4591C92.9731 73.4591 93.094 73.5195 93.2148 73.6404C93.3357 73.7613 93.3659 73.8821 93.3659 74.0634C93.3659 74.2447 93.3357 74.3958 93.2148 74.4864Z" fill="#3B3B3B"/>
<path d="M94.9673 74.4864C94.8464 74.6073 94.7255 74.6677 94.5443 74.6677C94.363 74.6677 94.2421 74.6073 94.1212 74.4864C94.0004 74.3656 93.9399 74.2447 93.9399 74.0634C93.9399 73.8821 94.0004 73.7613 94.1212 73.6404C94.2421 73.5195 94.363 73.4591 94.5443 73.4591C94.7255 73.4591 94.8464 73.5195 94.9673 73.6404C95.0881 73.7613 95.1184 73.8821 95.1184 74.0634C95.1184 74.2447 95.0881 74.3958 94.9673 74.4864Z" fill="#3B3B3B"/>
<path d="M108.172 92.0416L97.2336 86.1194C104.727 86.0589 112.22 85.9683 119.684 85.8474C85.3589 85.2431 50.6715 85.2431 16.3467 85.787C23.689 85.9079 31.0616 85.9985 38.4342 86.0892L27.4358 92.0416L39.1594 86.0892C42.7852 86.1194 46.4413 86.1496 50.0672 86.1798L33.6904 101.076L50.9737 86.1798C52.9074 86.1798 54.8412 86.21 56.775 86.21L41.909 108.358L57.6513 86.21C58.9505 86.21 60.2498 86.21 61.5793 86.21L51.6686 113.464L62.4253 86.21C63.4829 86.21 64.5102 86.21 65.5677 86.21L62.3347 116.063L66.3533 86.21C67.3202 86.21 68.2871 86.21 69.2842 86.21L73.3029 116.063L70.0699 86.21C71.1274 86.21 72.1547 86.21 73.2123 86.21L83.969 113.434L74.0583 86.2402C75.3576 86.2402 76.687 86.2402 77.9863 86.2402L93.6984 108.388L78.8626 86.2402C80.7964 86.2402 82.7302 86.2402 84.6942 86.21L101.947 101.076L85.6006 86.1798C89.2567 86.1496 92.9128 86.1496 96.5386 86.1194L108.172 92.0416Z" fill="#3B3B3B"/>
<path d="M78.1073 47.6248L76.5663 48.6219L76.4757 48.7126L69.4053 53.3355V51.9456L76.5361 48.4104H76.5663L76.5966 48.3802L78.1073 47.6248Z" fill="#3B3B3B"/>
<path d="M75.2366 39.3156C74.451 38.2278 73.4841 37.3214 72.4266 36.6264L74.028 19.9172L71.8223 36.2638C71.4899 36.0825 71.1878 35.9315 70.8554 35.8106V35.871L69.2842 38.7415L71.6712 37.5631C71.7619 37.5631 71.8525 37.5631 71.9734 37.5631C72.0036 37.5631 72.0338 37.5631 72.064 37.5631C72.1244 37.5631 72.1849 37.5631 72.2453 37.5933C72.2755 37.5933 72.3359 37.5933 72.3662 37.6235C73.8165 37.8048 74.9949 39.0437 75.2366 39.3156Z" fill="#3B3B3B"/>
<path d="M79.7688 61.4333L68.9214 67.2347L80.8565 62.5211L79.7688 61.4333Z" fill="#3B3B3B"/>
<path d="M84.5732 66.9325L85.1776 67.7181L117.901 58.8046L84.5732 66.9325Z" fill="#3B3B3B"/>
<path d="M106.419 36.9286L79.2853 60.7384L79.527 61.2521L79.6177 61.3427L71.6408 65.724V56.9917V55.9644L76.5659 52.3989V48.622L76.5961 48.3803L76.5659 48.4105H76.5357L76.4753 48.7126L75.7501 51.704L70.7645 55.2392L70.9156 57.3845L71.6106 65.7542L69.8279 66.7513L68.9214 67.2347L69.4048 67.0534L71.6408 66.1772L80.8263 62.5513L80.8565 62.5211L79.8594 61.524L106.419 36.9286Z" fill="#3B3B3B"/>
<path d="M77.8957 57.7471L97.1127 28.6797L77.4727 56.901L77.8957 57.7471Z" fill="#3B3B3B"/>
<path d="M82.337 64.0923H82.3975L82.5788 64.334L113.489 47.1716L81.8838 63.6391L82.337 64.0923Z" fill="#3B3B3B"/>
<path d="M63.8151 36.4753L61.5791 19.9474L63.392 36.7473C63.5431 36.6566 63.664 36.566 63.8151 36.4753Z" fill="#3B3B3B"/>
<path d="M58.3762 45.0867L49.8252 22.9388L58.0438 46.1745C58.0136 46.1443 58.0136 45.8421 58.3762 45.0867Z" fill="#3B3B3B"/>
<path d="M68.015 51.7039L77.7141 46.8695C77.7141 46.809 86.1141 22.9388 86.1141 22.9388C86.1141 22.9388 77.5933 45.1472 77.5933 45.117L72.2754 48.773L62.6366 40.917L67.8941 43.2134V29.1632H67.9243L71.3991 30.4624L67.8941 28.2869L64.3287 30.5229L64.9934 35.9315L66.5646 38.8019L63.0294 37.0796C60.6122 38.8926 58.8899 41.8839 58.4367 45.1472L66.6251 50.7975L57.1978 46.4767V53.6075L59.4338 54.7255L58.5575 56.9614L38.5246 28.7704L58.1345 58.019L56.9561 60.9499L29.2183 37.0192L56.2914 61.6751L56.805 61.101L64.0265 66.4793L64.238 66.4189L64.3287 66.4793V55.632L61.7604 54.0003V53.9701L60.5215 53.1845V53.2147L59.4036 52.5198V48.9543V48.9845L66.5344 52.0665V58.2909L67.8639 60.406L69.4049 58.2003L67.8639 59.1067V47.4133L71.7617 49.1658L68.015 51.7039Z" fill="#3B3B3B"/>
<path d="M119.684 71.0116C108.957 70.8303 98.1703 70.7095 87.3833 70.6188L86.6582 69.6821L75.0554 67.2649L85.7215 70.6188C74.0281 70.5584 62.3045 70.5282 50.6111 70.5886L64.2987 66.3887L53.1492 65.0592L51.8197 66.721L17.7064 58.8046L51.1852 67.5368L48.7377 70.6188C37.9206 70.6793 27.1034 70.8001 16.3467 70.9814C26.9221 71.1627 37.5278 71.2836 48.1334 71.3742V71.4044L48.1938 71.3742C72.0339 71.4951 95.9645 71.4044 119.684 71.0116Z" fill="#3B3B3B"/>
</g>
<defs>
<clipPath id="clip0_696_561">
<rect width="136" height="136" fill="white"/>
</clipPath>
</defs>
</svg>
