<svg width="548" height="268" viewBox="0 0 548 268" fill="none" xmlns="http://www.w3.org/2000/svg">
<path d="M507.645 45.9463C496.234 42.6245 484.888 41.4423 476.156 42.0152C467.459 42.4454 461.492 44.6386 461.54 44.5199C461.5 44.6363 466.495 45.596 474.165 48.0449C481.869 50.3774 492.264 54.1134 503.792 57.0895C515.329 60.0667 526.103 60.6235 534.277 60.013C542.405 59.4812 548.031 57.7958 548 57.8962C548.037 57.7947 543.424 57.0313 536.202 54.8677C528.939 52.8068 519.065 49.2704 507.645 45.9463Z" fill="#C3DAEA"/>
<path d="M501.599 23.4033C492.324 30.5399 483.11 36.2353 475.339 39.6929C467.711 43.2327 461.442 44.4525 461.541 44.521C461.449 44.4514 464.674 41.1935 469.629 35.5677C474.684 30.0321 481.736 22.1527 491.652 14.9111C501.549 7.64667 513.176 3.43476 522.498 1.6295C531.778 -0.262483 538.773 0.10156 538.684 0C538.783 0.0981368 533.736 1.87601 526.746 5.93157C519.67 9.90269 510.853 16.245 501.599 23.4033Z" fill="#C3DAEA"/>
<path d="M452.187 61.6322C439.979 58.6368 428.334 58.1335 419.691 59.415C411.051 60.5367 405.55 63.4352 405.572 63.2971C405.561 63.4318 410.826 64.1518 419.147 66.3782C427.47 68.4733 438.855 71.9856 451.162 74.6171C463.477 77.2485 474.36 77.2246 482.307 76.0001C490.229 74.8738 495.331 72.546 495.328 72.6624C495.338 72.5425 490.58 71.9526 482.86 69.9316C475.125 68.0328 464.408 64.6277 452.187 61.6322Z" fill="#C3DAEA"/>
<path d="M440.889 36.0835C433.194 45.1429 425.31 52.3423 418.315 56.8394C411.488 61.4176 405.455 63.2252 405.57 63.2971C405.464 63.2206 407.929 59.3408 411.61 52.5796C415.411 45.9143 420.726 36.3494 429.166 27.0834C437.58 17.7969 448.431 11.7204 457.396 8.64852C466.309 5.47619 473.332 5.15213 473.225 5.04486C473.343 5.14756 468.605 7.81895 462.394 13.3146C456.084 18.7156 448.557 27.0047 440.889 36.0835Z" fill="#C3DAEA"/>
<path d="M400.309 83.0534C387.175 80.527 375.207 80.7712 366.695 82.7693C358.15 84.5939 353.209 88.1428 353.199 87.9888C353.22 88.1371 358.783 88.5628 367.835 90.4479C376.855 92.1893 389.362 95.2988 402.567 97.4419C415.785 99.5838 426.816 98.9447 434.517 97.1361C442.225 95.4403 446.731 92.5487 446.76 92.6788C446.738 92.5464 441.797 92.1539 433.476 90.3601C425.172 88.7043 413.456 85.5776 400.309 83.0534Z" fill="#C3DAEA"/>
<path d="M382.748 55.3149C377.021 66.0723 370.734 74.5897 364.673 80.026C358.806 85.5365 353.063 87.9146 353.198 87.9876C353.071 87.9077 354.657 83.511 356.825 75.7958C359.136 68.1777 362.352 57.1726 368.906 46.0809C375.428 34.9732 385.176 27.1222 393.588 22.8259C401.936 18.4177 408.92 17.401 408.791 17.2903C408.932 17.3953 404.668 20.9225 399.529 27.7521C394.268 34.4848 388.44 44.5427 382.748 55.3149Z" fill="#C3DAEA"/>
<path d="M352.617 109.79C338.469 107.917 326.183 109 317.854 111.732C309.451 114.283 305.161 118.425 305.114 118.259C305.172 118.418 311.04 118.477 320.871 119.875C330.636 121.121 344.352 123.611 358.537 125.081C372.733 126.547 383.936 125.241 391.374 122.862C398.849 120.608 402.699 117.235 402.764 117.373C402.706 117.231 397.549 117.076 388.555 115.626C379.612 114.32 366.78 111.659 352.617 109.79Z" fill="#C3DAEA"/>
<path d="M327.949 80.8499C324.548 93.0383 320.097 102.66 315.115 108.927C310.356 115.256 304.958 118.189 305.115 118.259C304.967 118.181 305.57 113.386 306.011 104.927C306.622 96.5609 307.415 84.4045 311.703 71.7289C315.955 59.0418 324.278 49.542 331.947 44.0783C339.533 38.4902 346.404 36.7762 346.25 36.6644C346.416 36.7671 342.792 41.0954 338.998 49.1232C335.059 57.0517 331.31 68.6513 327.949 80.8499Z" fill="#C3DAEA"/>
<path d="M309.708 141.432C294.506 140.434 281.938 142.473 273.857 145.964C265.659 149.271 262.107 153.946 262.019 153.775C262.115 153.937 268.278 153.552 278.904 154.289C289.422 154.874 304.383 156.487 319.58 157.065C334.788 157.637 346.16 155.582 353.308 152.638C360.528 149.826 363.667 146.056 363.77 146.194C363.673 146.05 358.285 146.185 348.568 145.215C338.944 144.397 324.927 142.423 309.708 141.432Z" fill="#C3DAEA"/>
<path d="M277.282 112.431C276.521 125.741 274.115 136.236 270.344 143.212C266.827 150.234 261.838 153.71 262.02 153.775C261.847 153.701 261.38 148.64 259.92 139.67C258.658 130.788 256.751 117.806 258.426 103.832C260.064 89.8512 266.657 78.853 273.388 72.2915C280.015 65.5965 286.695 63.1762 286.515 63.0667C286.709 63.1636 283.878 68.2222 281.689 77.2805C279.326 86.2418 278.001 99.1171 277.282 112.431Z" fill="#C3DAEA"/>
<path d="M464 43C376.407 66.4452 298.75 111.539 242 173" stroke="#C6C6C5" stroke-width="1.0981" stroke-miterlimit="10" stroke-linecap="round" stroke-linejoin="round"/>
<path d="M3.57846 254.767C17.186 246.527 31.1769 238.915 45.4979 231.941C51.413 229.056 58.2743 228.301 64.2387 229.879C68.0767 230.901 71.8614 232.031 75.5255 233.266C94.3512 239.525 112.092 248.6 124.518 261.656C130.85 268.171 142.001 269.584 149.573 264.536C157.08 259.504 159.034 249.974 153.334 243.028C147.323 235.674 133.791 231.458 123.973 228.567C110.126 224.403 95.1823 222.178 79.8317 221.592C77.6806 221.505 75.5255 221.456 73.3757 221.439C72.0544 221.43 71.7915 220.004 73.0266 219.485C81.138 216.086 89.3397 212.883 97.6237 209.875C103.876 207.602 110.851 207.548 116.586 209.776C119.7 210.98 122.752 212.267 125.71 213.609C142.41 221.166 157.884 231.165 167.921 244.379C173.164 251.184 183.425 253.251 191.338 249.191C199.238 245.125 202.255 236.215 197.581 229.072C192.729 221.627 180.032 216.444 171.025 212.939C158.658 208.039 145.124 204.797 131.106 202.952C129.485 202.742 127.865 202.548 126.237 202.38C124.926 202.241 124.831 200.792 126.118 200.402C134.667 197.815 143.292 195.431 151.98 193.251C158.636 191.577 165.737 192.33 171.259 195.235C173.566 196.445 175.829 197.702 178.011 198.983C191.82 207.078 203.958 216.899 212.093 228.932C218.401 237.999 231.782 243.304 241.088 233.805C250.366 224.54 241.579 215.108 232.329 208.868C218.751 199.619 201.959 193.358 184.337 189.402C183.252 189.161 182.166 188.924 181.07 188.701C179.784 188.442 179.873 186.996 181.201 186.736C190.101 184.997 199.057 183.467 208.061 182.148C214.965 181.134 222.033 182.595 227.191 186.107C228.825 187.213 230.429 188.349 231.989 189.501C244.093 198.476 253.607 208.623 260.122 220.583C265.348 229.901 278.964 234.667 287.945 226.005C296.912 217.514 288.752 208.336 280.455 201.852C268.933 192.748 254.453 185.963 239.086 181.04C238.535 180.866 237.971 180.696 237.418 180.524C236.153 180.135 236.416 178.709 237.773 178.583C246.925 177.723 256.114 177.08 265.33 176.653C272.517 176.315 279.544 178.565 284.294 182.712C285.275 183.561 286.228 184.419 287.164 185.281C296.569 193.975 304.436 203.678 308.683 214.487C312.427 223.648 323.378 231.008 334.239 224.082C357.482 210.08 309.926 183.233 294.869 177.967C294.852 177.961 294.837 177.955 294.821 177.949C293.602 177.439 294.036 176.045 295.423 176.06C298.808 176.092 302.194 176.153 305.583 176.243C316.934 176.58 323.946 177.973 334.493 180.808C342.795 183.122 351.831 187.685 371.767 191.386C387.264 194.335 399.471 189.448 400.657 183.775C401.842 178.147 391.763 168.865 375.038 167.356C353.722 165.536 343.732 168.874 335.092 169.847C324.08 171.195 317.019 171.896 305.556 171.661C302.135 171.6 298.716 171.568 295.302 171.565C293.905 171.568 293.374 170.173 294.583 169.671C294.598 169.665 294.614 169.659 294.629 169.653C307.466 163.058 363.981 144.356 340.009 126.919C327.483 118.153 312.858 124.59 308.691 133.575C303.632 144.12 295.133 153.504 286.118 162.385C285.217 163.264 284.311 164.147 283.384 165.022C278.88 169.296 272.17 171.88 264.929 172.218C255.628 172.648 246.354 173.299 237.117 174.166C235.749 174.297 235.057 172.965 236.191 172.346C236.687 172.074 237.195 171.802 237.692 171.533C251.499 163.899 265.267 155.7 276.986 146.075C285.228 139.218 294.776 130.058 282.913 121.688C270.636 113.151 253.615 119.415 249.938 129.397C245.078 142.083 237.243 153.486 227.915 164.753C226.711 166.201 225.48 167.649 224.235 169.085C220.294 173.631 214.085 176.745 207.129 177.768C198.043 179.098 189.003 180.643 180.021 182.398C178.682 182.661 177.838 181.401 178.876 180.683C179.762 180.07 180.638 179.453 181.516 178.837C195.755 168.767 209.939 158.1 221.583 146.043C229.314 137.932 237.429 126.985 222.84 120.026C207.682 112.966 192.849 122.404 190.338 132.926C186.807 146.791 178.951 159.985 170.485 172.713C169.142 174.724 167.752 176.756 166.341 178.774C162.95 183.611 157.234 187.286 150.529 188.973C141.76 191.173 133.056 193.579 124.427 196.189C123.13 196.582 122.151 195.405 123.093 194.579C124.269 193.559 125.436 192.529 126.608 191.495C136.713 182.521 146.619 173.269 155.639 163.503C162.121 156.391 172.443 146.664 173.867 138.11C175.239 129.89 166.872 122.908 154.862 122.982C142.859 123.045 132.342 130.245 131.67 138.58C130.168 154.699 122.333 170.883 114.356 186.208C112.93 188.922 111.456 191.659 109.945 194.376C107.154 199.389 101.967 203.456 95.6684 205.748C87.3078 208.783 79.0293 212.016 70.8426 215.446C69.598 215.967 68.4902 214.899 69.3296 213.981C70.6961 212.486 72.0653 210.978 73.4264 209.456C83.1685 198.626 92.6793 187.544 101.223 176.024C107.195 167.857 116.729 156.836 117.39 147.664C118.025 138.982 108.678 132.432 96.2038 133.508C83.6533 134.587 73.2662 143.527 73.347 152.318C73.3415 169.796 66.7609 187.927 60.0119 205.195C58.6947 208.567 57.3021 211.962 55.8809 215.338C53.649 220.578 49.021 225.112 43.0593 228.018C28.6056 235.057 14.4859 242.74 0.750977 251.056C1.69302 252.293 2.63641 253.53 3.57846 254.767Z" fill="#F0E5D0"/>
</svg>
