<svg width="554" height="270" viewBox="0 0 554 270" fill="none" xmlns="http://www.w3.org/2000/svg">
<path d="M40.3553 45.9463C51.7658 42.6245 63.1119 41.4423 71.8438 42.0152C80.5414 42.4454 86.5083 44.6386 86.4602 44.5199C86.5 44.6363 81.5052 45.596 73.8346 48.0449C66.131 50.3774 55.7364 54.1134 44.2078 57.0895C32.6709 60.0667 21.8974 60.6235 13.7228 60.013C5.59498 59.4812 -0.031356 57.7958 0.000221759 57.8962C-0.0368478 57.7947 4.57625 57.0313 11.798 54.8677C19.0608 52.8068 28.9351 49.2704 40.3553 45.9463Z" fill="#C3DAEA"/>
<path d="M46.4006 23.4033C55.6762 30.5399 64.89 36.2353 72.6609 39.6929C80.289 43.2327 86.5579 44.4525 86.459 44.521C86.551 44.4514 83.326 41.1935 78.371 35.5677C73.3158 30.0321 66.2644 22.1527 56.3476 14.9111C46.4514 7.64667 34.8239 3.43476 25.5016 1.6295C16.2218 -0.262483 9.22664 0.10156 9.31588 0C9.21703 0.0981368 14.264 1.87601 21.2537 5.93157C28.3298 9.90269 37.1469 16.245 46.4006 23.4033Z" fill="#C3DAEA"/>
<path d="M95.8126 61.6322C108.021 58.6368 119.666 58.1335 128.309 59.415C136.949 60.5367 142.45 63.4352 142.428 63.2971C142.439 63.4318 137.174 64.1518 128.853 66.3782C120.53 68.4733 109.145 71.9856 96.8382 74.6171C84.5229 77.2485 73.6395 77.2246 65.6929 76.0001C57.771 74.8738 52.6691 72.546 52.6719 72.6624C52.6623 72.5425 57.4195 71.9526 65.1396 69.9316C72.8748 68.0328 83.592 64.6277 95.8126 61.6322Z" fill="#C3DAEA"/>
<path d="M107.111 36.0835C114.806 45.1429 122.69 52.3423 129.685 56.8394C136.512 61.4176 142.545 63.2252 142.43 63.2971C142.536 63.2206 140.071 59.3408 136.39 52.5796C132.589 45.9143 127.274 36.3494 118.834 27.0834C110.42 17.7969 99.5692 11.7204 90.6038 8.64852C81.6906 5.47619 74.668 5.15213 74.7751 5.04486C74.657 5.14756 79.3951 7.81895 85.6063 13.3146C91.9164 18.7156 99.4428 27.0047 107.111 36.0835Z" fill="#C3DAEA"/>
<path d="M147.691 83.0534C160.824 80.527 172.792 80.7712 181.305 82.7693C189.85 84.5939 194.791 88.1428 194.801 87.9888C194.78 88.1371 189.217 88.5628 180.165 90.4479C171.145 92.1893 158.637 95.2988 145.432 97.4419C132.215 99.5838 121.183 98.9447 113.482 97.1361C105.775 95.4403 101.269 92.5487 101.24 92.6788C101.262 92.5464 106.203 92.1539 114.523 90.3601C122.828 88.7043 134.543 85.5776 147.691 83.0534Z" fill="#C3DAEA"/>
<path d="M165.252 55.3149C170.979 66.0723 177.266 74.5897 183.327 80.026C189.194 85.5365 194.937 87.9146 194.802 87.9876C194.929 87.9077 193.343 83.511 191.175 75.7958C188.864 68.1777 185.648 57.1726 179.094 46.0809C172.572 34.9732 162.824 27.1222 154.412 22.8259C146.064 18.4177 139.08 17.401 139.209 17.2903C139.068 17.3953 143.332 20.9225 148.471 27.7521C153.732 34.4848 159.56 44.5427 165.252 55.3149Z" fill="#C3DAEA"/>
<path d="M195.383 109.79C209.531 107.917 221.817 109 230.146 111.732C238.549 114.283 242.839 118.425 242.886 118.259C242.828 118.418 236.96 118.477 227.129 119.875C217.364 121.121 203.648 123.611 189.463 125.081C175.267 126.547 164.064 125.241 156.626 122.862C149.151 120.608 145.301 117.235 145.236 117.373C145.294 117.231 150.451 117.076 159.445 115.626C168.388 114.32 181.22 111.659 195.383 109.79Z" fill="#C3DAEA"/>
<path d="M220.051 80.8499C223.451 93.0383 227.902 102.66 232.885 108.927C237.643 115.256 243.042 118.189 242.884 118.259C243.032 118.181 242.43 113.386 241.989 104.927C241.378 96.5609 240.584 84.4045 236.297 71.7289C232.045 59.0418 223.722 49.542 216.053 44.0783C208.467 38.4902 201.595 36.7762 201.749 36.6644C201.583 36.7671 205.208 41.0954 209.001 49.1232C212.94 57.0517 216.69 68.6513 220.051 80.8499Z" fill="#C3DAEA"/>
<path d="M238.292 141.432C253.494 140.434 266.062 142.473 274.143 145.964C282.341 149.271 285.893 153.946 285.981 153.775C285.885 153.937 279.722 153.552 269.096 154.289C258.578 154.874 243.617 156.487 228.42 157.065C213.212 157.637 201.84 155.582 194.692 152.638C187.472 149.826 184.333 146.056 184.23 146.194C184.327 146.05 189.715 146.185 199.432 145.215C209.056 144.397 223.073 142.423 238.292 141.432Z" fill="#C3DAEA"/>
<path d="M270.718 112.431C271.479 125.741 273.885 136.236 277.656 143.212C281.173 150.234 286.162 153.71 285.98 153.775C286.153 153.701 286.62 148.64 288.08 139.67C289.342 130.788 291.249 117.806 289.574 103.832C287.936 89.8512 281.343 78.853 274.612 72.2915C267.985 65.5965 261.305 63.1762 261.485 63.0667C261.291 63.1636 264.122 68.2222 266.311 77.2805C268.674 86.2418 269.999 99.1171 270.718 112.431Z" fill="#C3DAEA"/>
<path d="M84.1099 43.8843C171.66 67.3504 249.278 112.484 306 174" stroke="#C6C6C5" stroke-width="1.0981" stroke-miterlimit="10" stroke-linecap="round" stroke-linejoin="round"/>
<path d="M550.906 250.17C537.157 242.169 523.035 234.803 508.595 228.079C502.63 225.298 495.757 224.663 489.821 226.345C486.001 227.434 482.237 228.63 478.595 229.929C459.881 236.515 442.301 245.898 430.105 259.169C423.888 265.793 412.763 267.401 405.105 262.486C397.51 257.585 395.39 248.091 400.968 241.046C406.85 233.589 420.307 229.138 430.072 226.075C443.845 221.67 458.747 219.185 474.086 218.331C476.235 218.206 478.389 218.12 480.538 218.066C481.859 218.033 482.097 216.603 480.853 216.105C472.683 212.849 464.427 209.789 456.092 206.927C449.801 204.763 442.826 204.831 437.13 207.159C434.038 208.417 431.009 209.757 428.075 211.15C411.509 218.998 396.212 229.265 386.408 242.652C381.284 249.547 371.061 251.793 363.078 247.872C355.108 243.944 351.937 235.089 356.484 227.865C361.206 220.336 373.811 214.932 382.755 211.271C395.035 206.156 408.51 202.678 422.494 200.589C424.111 200.35 425.727 200.128 427.352 199.932C428.66 199.77 428.731 198.319 427.437 197.952C418.843 195.515 410.178 193.281 401.454 191.253C394.77 189.696 387.683 190.573 382.212 193.574C379.927 194.823 377.685 196.12 375.527 197.439C361.862 205.774 349.896 215.805 341.973 227.978C335.824 237.154 322.537 242.692 313.067 233.357C303.629 224.255 312.25 214.671 321.39 208.271C334.804 198.786 351.484 192.233 369.035 187.97C370.115 187.71 371.196 187.454 372.289 187.212C373.57 186.93 373.456 185.487 372.123 185.25C363.194 183.666 354.213 182.293 345.187 181.131C338.267 180.238 331.225 181.822 326.129 185.423C324.515 186.557 322.931 187.721 321.391 188.9C309.446 198.085 300.111 208.397 293.806 220.468C288.743 229.877 275.212 234.88 266.081 226.375C256.967 218.043 264.965 208.724 273.149 202.095C284.51 192.791 298.869 185.755 314.148 180.565C314.695 180.381 315.256 180.201 315.806 180.02C317.065 179.609 316.777 178.188 315.418 178.085C306.252 177.385 297.054 176.902 287.831 176.636C280.639 176.424 273.653 178.797 268.976 183.026C268.01 183.891 267.072 184.766 266.151 185.644C256.899 194.501 249.203 204.34 245.145 215.221C241.562 224.446 230.741 231.996 219.761 225.26C196.277 211.667 243.356 183.993 258.32 178.466C258.336 178.46 258.351 178.454 258.367 178.446C259.577 177.915 259.119 176.529 257.732 176.568C254.348 176.66 250.964 176.78 247.577 176.929C236.234 177.464 229.247 178.979 218.751 181.997C210.491 184.456 201.536 189.176 181.668 193.225C166.224 196.444 153.934 191.77 152.649 186.119C151.366 180.512 161.281 171.056 177.978 169.256C199.259 167.064 209.306 170.227 217.961 171.049C228.995 172.204 236.067 172.782 247.524 172.347C250.943 172.226 254.361 172.134 257.775 172.072C259.172 172.05 259.679 170.646 258.461 170.166C258.446 170.16 258.429 170.155 258.414 170.149C245.464 163.779 188.631 146.066 212.296 128.213C224.667 119.23 239.402 125.41 243.725 134.322C248.967 144.777 257.629 154.011 266.797 162.733C267.714 163.597 268.635 164.464 269.577 165.322C274.155 169.516 280.909 171.983 288.155 172.195C297.462 172.463 306.746 172.951 315.997 173.658C317.367 173.764 318.035 172.42 316.89 171.821C316.39 171.558 315.877 171.295 315.376 171.035C301.437 163.643 287.528 155.686 275.643 146.266C267.283 139.555 257.577 130.562 269.292 121.987C281.418 113.237 298.546 119.202 302.396 129.119C307.477 141.718 315.51 152.982 325.032 164.085C326.262 165.511 327.518 166.938 328.788 168.352C332.807 172.829 339.07 175.834 346.043 176.735C355.151 177.907 364.216 179.294 373.228 180.892C374.571 181.131 375.393 179.857 374.342 179.157C373.446 178.559 372.559 177.958 371.671 177.357C357.258 167.537 342.89 157.12 331.038 145.267C323.166 137.292 314.861 126.489 329.327 119.276C344.359 111.953 359.354 121.131 362.049 131.607C365.821 145.408 373.906 158.464 382.593 171.041C383.971 173.028 385.396 175.036 386.843 177.029C390.317 181.807 396.097 185.381 402.83 186.95C411.636 188.998 420.381 191.251 429.054 193.71C430.357 194.08 431.316 192.887 430.359 192.077C429.166 191.078 427.981 190.068 426.791 189.055C416.531 180.259 406.465 171.181 397.276 161.574C390.671 154.576 380.18 145.031 378.607 136.503C377.092 128.308 385.336 121.181 397.345 121.045C409.348 120.899 419.989 127.915 420.806 136.236C422.59 152.327 430.706 168.371 438.949 183.555C440.422 186.244 441.944 188.954 443.501 191.645C446.38 196.608 451.637 200.584 457.975 202.766C466.387 205.655 474.721 208.743 482.966 212.029C484.22 212.529 485.308 211.441 484.453 210.538C483.061 209.067 481.665 207.583 480.278 206.085C470.348 195.427 460.646 184.513 451.902 173.143C445.789 165.082 436.064 154.229 435.243 145.07C434.456 136.401 443.688 129.688 456.179 130.547C468.746 131.406 479.288 140.163 479.36 148.954C479.671 166.43 486.567 184.444 493.616 201.591C494.992 204.939 496.444 208.309 497.924 211.66C500.247 216.86 504.953 221.313 510.964 224.114C525.539 230.9 539.79 238.335 553.668 246.41C552.748 247.664 551.826 248.917 550.906 250.17Z" fill="#F0E5D0"/>
</svg>
