<svg width="202" height="168" viewBox="0 0 202 168" fill="none" xmlns="http://www.w3.org/2000/svg">
<path d="M57.1014 113.822C57.1429 113.98 60.9566 110.028 68.4254 107.595C75.8296 104.989 86.7497 103.956 99.3259 105.742C111.916 107.525 123.321 110.064 131.271 111.31C139.266 112.693 143.85 112.841 143.901 112.976C143.844 112.845 140.422 116.063 133.777 118.213C127.166 120.483 117.207 121.729 104.588 120.33C91.9791 118.928 79.7873 116.553 71.1078 115.364C62.3686 114.03 57.1526 113.974 57.1014 113.822ZM57.1014 113.822C56.961 113.755 61.7605 110.957 65.9904 104.919C70.4192 98.9403 74.3757 89.7607 77.3987 78.1327C80.3862 66.4949 83.7191 55.4287 87.2204 47.8647C90.5924 40.2059 93.8142 36.0767 93.6666 35.9787C93.8032 36.0854 87.6952 37.7205 80.9525 43.0517C74.1353 48.2642 66.7373 57.3273 62.9577 69.431C59.1464 81.5239 58.441 93.1214 57.8979 101.102C57.5062 109.173 56.9696 113.747 57.1014 113.822ZM18.7944 147.705C18.8725 147.868 22.0296 143.408 29.3166 140.253C36.4999 136.923 47.6714 134.977 61.1849 135.93C74.713 136.875 87.1721 138.758 95.7271 139.539C104.364 140.464 109.154 140.335 109.239 140.473C109.148 140.341 106.358 143.938 99.9399 146.62C93.5865 149.429 83.4779 151.39 69.9596 150.843C56.451 150.292 43.1523 148.753 33.8028 148.196C24.3582 147.492 18.8798 147.859 18.7944 147.705ZM18.7944 147.705C18.6321 147.643 23.0678 144.327 26.1945 137.628C29.5457 130.972 31.6851 120.96 32.3612 108.261C33.0007 95.56 34.1784 83.2766 36.2787 74.7274C38.224 66.0856 40.7404 61.2596 40.5684 61.167C40.7282 61.2716 34.791 63.5806 28.9001 69.9678C22.9165 76.2276 17.0562 86.7201 15.6002 100.058C14.1114 113.39 15.8065 125.775 16.928 134.249C18.2265 142.806 18.6406 147.634 18.7944 147.705ZM198.236 42.8666C120.414 65.2538 51.4195 108.313 1 167M237.129 44.8339C226.986 41.6648 216.901 40.537 209.139 41.0835C201.408 41.4939 196.104 43.5863 196.147 43.4731C196.111 43.5841 200.551 44.4997 207.369 46.836C214.217 49.0612 223.457 52.6255 233.704 55.4647C243.959 58.305 253.536 58.8363 260.802 58.2538C268.027 57.7465 273.028 56.1386 273 56.2344C273.033 56.1375 268.932 55.4092 262.513 53.3451C256.057 51.379 247.28 48.0052 237.129 44.8339ZM231.755 23.3273C223.51 30.1358 215.32 35.5693 208.412 38.868C201.632 42.245 196.06 43.4087 196.147 43.4741C196.066 43.4077 198.932 40.2995 203.337 34.9324C207.83 29.6513 214.098 22.1341 222.913 15.2255C231.71 8.2951 242.045 4.27684 250.332 2.55458C258.581 0.749585 264.799 1.09689 264.719 1C264.807 1.09362 260.321 2.78976 254.108 6.65885C247.818 10.4474 239.981 16.4981 231.755 23.3273ZM187.833 59.7986C176.981 56.9408 166.63 56.4608 158.947 57.6833C151.267 58.7535 146.377 61.5187 146.397 61.387C146.387 61.5154 151.067 62.2023 158.464 64.3263C165.862 66.3251 175.982 69.676 186.921 72.1864C197.868 74.6969 207.542 74.674 214.606 73.5059C221.648 72.4314 226.183 70.2105 226.18 70.3216C226.189 70.2073 221.96 69.6444 215.098 67.7164C208.222 65.9049 198.696 62.6563 187.833 59.7986ZM177.79 35.4245C170.95 44.0674 163.942 50.9357 157.724 55.2261C151.655 59.5939 146.293 61.3183 146.395 61.3869C146.301 61.3139 148.492 57.6125 151.764 51.1622C155.143 44.8033 159.867 35.6781 167.369 26.8382C174.849 17.9787 184.494 12.1816 192.463 9.25091C200.386 6.22444 206.628 5.91527 206.533 5.81293C206.638 5.91091 202.426 8.45948 196.905 13.7025C191.296 18.8551 184.606 26.7631 177.79 35.4245ZM141.719 80.2349C130.045 77.8246 119.407 78.0576 111.84 79.9638C104.244 81.7046 99.8521 85.0903 99.8436 84.9433C99.8619 85.0849 104.807 85.4909 112.853 87.2894C120.871 88.9507 131.989 91.9173 143.727 93.9618C155.475 96.0052 165.281 95.3956 172.127 93.67C178.978 92.0523 182.983 89.2936 183.009 89.4177C182.989 89.2914 178.597 88.9169 171.202 87.2056C163.819 85.6259 153.406 82.643 141.719 80.2349ZM126.109 53.7717C121.019 64.0345 115.431 72.1602 110.042 77.3466C104.828 82.6037 99.7228 84.8725 99.8424 84.9422C99.7301 84.866 101.14 80.6714 103.067 73.3109C105.121 66.043 107.98 55.544 113.805 44.9622C119.603 34.3652 128.268 26.8752 135.745 22.7764C143.165 18.5709 149.373 17.6009 149.259 17.4953C149.384 17.5955 145.594 20.9605 141.026 27.4761C136.349 33.8992 131.169 43.4947 126.109 53.7717Z" stroke="#E7E7E7" stroke-miterlimit="10" stroke-linecap="round"/>
</svg>
