<svg width="307" height="175" viewBox="0 0 307 175" fill="none" xmlns="http://www.w3.org/2000/svg">
<path d="M40.3553 45.9463C51.7658 42.6245 63.1119 41.4423 71.8438 42.0152C80.5414 42.4454 86.5083 44.6386 86.4602 44.5199C86.5 44.6363 81.5052 45.596 73.8346 48.0449C66.131 50.3774 55.7364 54.1134 44.2078 57.0895C32.6709 60.0667 21.8974 60.6235 13.7228 60.013C5.59498 59.4812 -0.031356 57.7958 0.000221759 57.8962C-0.0368478 57.7947 4.57625 57.0313 11.798 54.8677C19.0608 52.8068 28.9351 49.2704 40.3553 45.9463Z" fill="#C3DAEA"/>
<path d="M46.4006 23.4033C55.6762 30.5399 64.89 36.2353 72.6609 39.6929C80.289 43.2327 86.5579 44.4525 86.459 44.521C86.551 44.4514 83.326 41.1935 78.371 35.5677C73.3158 30.0321 66.2644 22.1527 56.3476 14.9111C46.4514 7.64667 34.8239 3.43476 25.5016 1.6295C16.2218 -0.262483 9.22664 0.10156 9.31588 0C9.21703 0.0981368 14.264 1.87601 21.2537 5.93157C28.3298 9.90269 37.1469 16.245 46.4006 23.4033Z" fill="#C3DAEA"/>
<path d="M95.8126 61.6322C108.021 58.6368 119.666 58.1335 128.309 59.415C136.949 60.5367 142.45 63.4352 142.428 63.2971C142.439 63.4318 137.174 64.1518 128.853 66.3782C120.53 68.4733 109.145 71.9856 96.8382 74.6171C84.5229 77.2485 73.6395 77.2246 65.6929 76.0001C57.771 74.8738 52.6691 72.546 52.6719 72.6624C52.6623 72.5425 57.4195 71.9526 65.1396 69.9316C72.8748 68.0328 83.592 64.6277 95.8126 61.6322Z" fill="#C3DAEA"/>
<path d="M107.111 36.0835C114.806 45.1429 122.69 52.3423 129.685 56.8394C136.512 61.4176 142.545 63.2252 142.43 63.2971C142.536 63.2206 140.071 59.3408 136.39 52.5796C132.589 45.9143 127.274 36.3494 118.834 27.0834C110.42 17.7969 99.5692 11.7204 90.6038 8.64852C81.6906 5.47619 74.668 5.15213 74.7751 5.04486C74.657 5.14756 79.3951 7.81895 85.6063 13.3146C91.9164 18.7156 99.4428 27.0047 107.111 36.0835Z" fill="#C3DAEA"/>
<path d="M147.691 83.0534C160.824 80.527 172.792 80.7712 181.305 82.7693C189.85 84.5939 194.791 88.1428 194.801 87.9888C194.78 88.1371 189.217 88.5628 180.165 90.4479C171.145 92.1893 158.637 95.2988 145.432 97.4419C132.215 99.5838 121.183 98.9447 113.482 97.1361C105.775 95.4403 101.269 92.5487 101.24 92.6788C101.262 92.5464 106.203 92.1539 114.523 90.3601C122.828 88.7043 134.543 85.5776 147.691 83.0534Z" fill="#C3DAEA"/>
<path d="M165.252 55.3149C170.979 66.0723 177.266 74.5897 183.327 80.026C189.194 85.5365 194.937 87.9146 194.802 87.9876C194.929 87.9077 193.343 83.511 191.175 75.7958C188.864 68.1777 185.648 57.1726 179.094 46.0809C172.572 34.9732 162.824 27.1222 154.412 22.8259C146.064 18.4177 139.08 17.401 139.209 17.2903C139.068 17.3953 143.332 20.9225 148.471 27.7521C153.732 34.4848 159.56 44.5427 165.252 55.3149Z" fill="#C3DAEA"/>
<path d="M195.383 109.79C209.531 107.917 221.817 109 230.146 111.732C238.549 114.283 242.839 118.425 242.886 118.259C242.828 118.418 236.96 118.477 227.129 119.875C217.364 121.121 203.648 123.611 189.463 125.081C175.267 126.547 164.064 125.241 156.626 122.862C149.151 120.608 145.301 117.235 145.236 117.373C145.294 117.231 150.451 117.076 159.445 115.626C168.388 114.32 181.22 111.659 195.383 109.79Z" fill="#C3DAEA"/>
<path d="M220.051 80.8499C223.451 93.0383 227.902 102.66 232.885 108.927C237.643 115.256 243.042 118.189 242.884 118.259C243.032 118.181 242.43 113.386 241.989 104.927C241.378 96.5609 240.584 84.4045 236.297 71.7289C232.045 59.0418 223.722 49.542 216.053 44.0783C208.467 38.4902 201.595 36.7762 201.749 36.6644C201.583 36.7671 205.208 41.0954 209.001 49.1232C212.94 57.0517 216.69 68.6513 220.051 80.8499Z" fill="#C3DAEA"/>
<path d="M238.292 141.432C253.494 140.434 266.062 142.473 274.143 145.964C282.341 149.271 285.893 153.946 285.981 153.775C285.885 153.937 279.722 153.552 269.096 154.289C258.578 154.874 243.617 156.487 228.42 157.065C213.212 157.637 201.84 155.582 194.692 152.638C187.472 149.826 184.333 146.056 184.23 146.194C184.327 146.05 189.715 146.185 199.432 145.215C209.056 144.397 223.073 142.423 238.292 141.432Z" fill="#C3DAEA"/>
<path d="M270.718 112.431C271.479 125.741 273.885 136.236 277.656 143.212C281.173 150.234 286.162 153.71 285.98 153.775C286.153 153.701 286.62 148.64 288.08 139.67C289.342 130.788 291.249 117.806 289.574 103.832C287.936 89.8512 281.343 78.853 274.612 72.2915C267.985 65.5965 261.305 63.1762 261.485 63.0667C261.291 63.1636 264.122 68.2222 266.311 77.2805C268.674 86.2418 269.999 99.1171 270.718 112.431Z" fill="#C3DAEA"/>
<path d="M84.1099 43.8843C171.66 67.3504 249.278 112.484 306 174" stroke="#C6C6C5" stroke-width="1.0981" stroke-miterlimit="10" stroke-linecap="round" stroke-linejoin="round"/>
</svg>
