<svg width="375" height="462" viewBox="0 0 375 462" fill="none" xmlns="http://www.w3.org/2000/svg">
<path d="M230.101 332.822C230.143 332.98 233.957 329.028 241.425 326.595C248.83 323.989 259.75 322.956 272.326 324.742C284.915 326.525 296.321 329.064 304.271 330.31C312.266 331.693 316.85 331.841 316.901 331.976C316.844 331.845 313.422 335.063 306.776 337.213C300.166 339.483 290.207 340.729 277.588 339.33C264.979 337.928 252.787 335.553 244.108 334.364C235.369 333.03 230.153 332.974 230.101 332.822ZM230.101 332.822C229.961 332.755 234.76 329.957 238.99 323.919C243.419 317.94 247.376 308.761 250.399 297.133C253.386 285.495 256.719 274.429 260.22 266.865C263.592 259.206 266.814 255.077 266.667 254.979C266.803 255.085 260.695 256.721 253.952 262.052C247.135 267.264 239.737 276.327 235.958 288.431C232.146 300.524 231.441 312.121 230.898 320.102C230.506 328.173 229.969 332.747 230.101 332.822ZM191.794 366.705C191.872 366.868 195.03 362.408 202.317 359.253C209.5 355.923 220.671 353.977 234.185 354.93C247.713 355.875 260.172 357.758 268.727 358.539C277.364 359.464 282.154 359.335 282.239 359.473C282.148 359.341 279.358 362.938 272.94 365.62C266.586 368.429 256.478 370.39 242.96 369.843C229.451 369.292 216.152 367.753 206.803 367.196C197.358 366.492 191.88 366.859 191.794 366.705ZM191.794 366.705C191.632 366.643 196.068 363.327 199.194 356.628C202.546 349.972 204.685 339.96 205.361 327.261C206.001 314.56 207.178 302.277 209.279 293.727C211.224 285.086 213.74 280.26 213.568 280.167C213.728 280.272 207.791 282.581 201.9 288.968C195.916 295.228 190.056 305.72 188.6 319.058C187.111 332.39 188.806 344.775 189.928 353.249C191.226 361.806 191.641 366.634 191.794 366.705ZM371.236 261.867C293.413 284.254 224.419 327.313 174 386M410.129 263.834C399.986 260.665 389.901 259.537 382.139 260.083C374.408 260.494 369.104 262.586 369.146 262.473C369.111 262.584 373.551 263.5 380.369 265.836C387.217 268.061 396.457 271.625 406.704 274.465C416.959 277.305 426.536 277.836 433.802 277.254C441.027 276.747 446.028 275.139 446 275.234C446.033 275.137 441.932 274.409 435.513 272.345C429.057 270.379 420.28 267.005 410.129 263.834ZM404.755 242.327C396.51 249.136 388.32 254.569 381.412 257.868C374.632 261.245 369.06 262.409 369.147 262.474C369.066 262.408 371.932 259.3 376.337 253.932C380.83 248.651 387.098 241.134 395.913 234.226C404.71 227.295 415.045 223.277 423.332 221.555C431.581 219.75 437.799 220.097 437.719 220C437.807 220.094 433.321 221.79 427.108 225.659C420.818 229.447 412.98 235.498 404.755 242.327ZM360.833 278.799C349.981 275.941 339.63 275.461 331.947 276.683C324.267 277.753 319.377 280.519 319.397 280.387C319.387 280.515 324.067 281.202 331.464 283.326C338.862 285.325 348.982 288.676 359.921 291.186C370.868 293.697 380.542 293.674 387.606 292.506C394.648 291.431 399.183 289.211 399.18 289.322C399.189 289.207 394.96 288.644 388.098 286.716C381.222 284.905 371.696 281.656 360.833 278.799ZM350.79 254.424C343.95 263.067 336.942 269.936 330.724 274.226C324.655 278.594 319.293 280.318 319.395 280.387C319.301 280.314 321.492 276.612 324.764 270.162C328.143 263.803 332.867 254.678 340.369 245.838C347.849 236.979 357.494 231.182 365.463 228.251C373.386 225.224 379.628 224.915 379.533 224.813C379.638 224.911 375.426 227.459 369.905 232.702C364.296 237.855 357.606 245.763 350.79 254.424ZM314.719 299.235C303.045 296.825 292.407 297.058 284.84 298.964C277.244 300.705 272.852 304.09 272.844 303.943C272.862 304.085 277.807 304.491 285.853 306.289C293.871 307.951 304.989 310.917 316.727 312.962C328.475 315.005 338.281 314.396 345.127 312.67C351.978 311.052 355.983 308.294 356.009 308.418C355.989 308.291 351.597 307.917 344.201 306.206C336.819 304.626 326.406 301.643 314.719 299.235ZM299.109 272.772C294.019 283.034 288.43 291.16 283.042 296.347C277.828 301.604 272.723 303.873 272.842 303.942C272.73 303.866 274.14 299.671 276.067 292.311C278.121 285.043 280.98 274.544 286.805 263.962C292.603 253.365 301.268 245.875 308.745 241.776C316.165 237.571 322.373 236.601 322.259 236.495C322.384 236.595 318.594 239.961 314.026 246.476C309.349 252.899 304.169 262.495 299.109 272.772Z" stroke="#E7E7E7" stroke-miterlimit="10" stroke-linecap="round"/>
<path d="M34.361 451.236C45.7233 444.315 57.4057 437.921 69.3636 432.062C74.3028 429.64 80.032 429.005 85.0123 430.331C88.217 431.189 91.3772 432.139 94.4367 433.176C110.156 438.434 124.97 446.056 135.346 457.024C140.632 462.496 149.944 463.683 156.266 459.443C162.535 455.216 164.167 447.21 159.407 441.376C154.388 435.199 143.088 431.657 134.891 429.229C123.328 425.731 110.85 423.862 98.0324 423.37C96.2363 423.296 94.4367 423.256 92.6417 423.241C91.5384 423.233 91.3188 422.036 92.3501 421.6C99.1231 418.745 105.972 416.054 112.889 413.528C118.109 411.618 123.933 411.573 128.723 413.444C131.322 414.456 133.871 415.537 136.34 416.664C150.286 423.012 163.206 431.411 171.587 442.511C175.964 448.227 184.533 449.963 191.14 446.553C197.737 443.137 200.255 435.653 196.353 429.653C192.301 423.399 181.699 419.045 174.179 416.101C163.852 411.986 152.552 409.262 140.846 407.712C139.493 407.535 138.14 407.373 136.781 407.232C135.686 407.115 135.606 405.898 136.681 405.57C143.82 403.397 151.022 401.394 158.276 399.563C163.834 398.157 169.763 398.79 174.374 401.23C176.301 402.246 178.191 403.302 180.012 404.378C191.542 411.178 201.678 419.427 208.47 429.535C213.737 437.152 224.911 441.608 232.681 433.629C240.428 425.846 233.092 417.923 225.367 412.682C214.03 404.912 200.008 399.653 185.294 396.33C184.388 396.128 183.482 395.929 182.566 395.741C181.492 395.524 181.567 394.309 182.676 394.091C190.107 392.63 197.586 391.345 205.104 390.237C210.869 389.385 216.771 390.612 221.078 393.562C222.442 394.491 223.782 395.445 225.084 396.413C235.191 403.952 243.134 412.476 248.574 422.522C252.938 430.349 264.308 434.353 271.807 427.077C279.294 419.944 272.481 412.235 265.553 406.788C255.932 399.14 243.841 393.441 231.01 389.306C230.55 389.16 230.079 389.017 229.617 388.873C228.561 388.546 228.78 387.348 229.913 387.242C237.555 386.52 245.228 385.979 252.924 385.621C258.925 385.337 264.792 387.227 268.759 390.711C269.577 391.423 270.373 392.145 271.155 392.869C279.008 400.171 285.577 408.322 289.123 417.402C292.249 425.097 301.393 431.279 310.462 425.461C329.87 413.7 290.161 391.148 277.588 386.725C277.575 386.72 277.562 386.715 277.548 386.709C276.531 386.281 276.893 385.11 278.051 385.123C280.878 385.15 283.705 385.201 286.535 385.276C296.013 385.56 301.868 386.729 310.675 389.111C317.607 391.055 325.152 394.887 341.798 397.997C354.738 400.474 364.931 396.369 365.921 391.603C366.911 386.875 358.495 379.079 344.53 377.812C326.731 376.283 318.389 379.087 311.175 379.904C301.98 381.036 296.084 381.625 286.512 381.427C283.656 381.376 280.801 381.349 277.95 381.347C276.784 381.349 276.34 380.177 277.349 379.756C277.362 379.751 277.376 379.746 277.388 379.741C288.107 374.201 335.297 358.492 315.28 343.844C304.821 336.481 292.609 341.888 289.13 349.436C284.906 358.294 277.809 366.176 270.281 373.636C269.529 374.375 268.772 375.116 267.998 375.851C264.238 379.441 258.634 381.611 252.589 381.895C244.822 382.257 237.078 382.803 229.365 383.532C228.223 383.641 227.646 382.523 228.593 382.003C229.006 381.775 229.431 381.546 229.846 381.32C241.375 374.907 252.871 368.021 262.657 359.935C269.538 354.176 277.511 346.481 267.605 339.45C257.354 332.279 243.141 337.541 240.072 345.926C236.013 356.582 229.471 366.16 221.682 375.625C220.676 376.841 219.648 378.057 218.609 379.264C215.319 383.083 210.134 385.698 204.326 386.557C196.739 387.675 189.19 388.972 181.69 390.447C180.572 390.667 179.868 389.61 180.734 389.006C181.474 388.491 182.206 387.973 182.939 387.456C194.828 378.997 206.672 370.036 216.395 359.908C222.85 353.095 229.626 343.9 217.444 338.054C204.788 332.124 192.402 340.052 190.305 348.89C187.357 360.537 180.797 371.62 173.728 382.311C172.607 384 171.446 385.708 170.267 387.402C167.436 391.466 162.663 394.553 157.064 395.969C149.742 397.818 142.474 399.839 135.269 402.031C134.186 402.361 133.369 401.373 134.156 400.679C135.138 399.822 136.112 398.957 137.09 398.089C145.528 390.55 153.8 382.778 161.331 374.575C166.744 368.601 175.363 360.43 176.552 353.245C177.698 346.34 170.711 340.475 160.683 340.537C150.661 340.59 141.879 346.639 141.317 353.639C140.063 367.18 133.521 380.774 126.86 393.647C125.67 395.927 124.439 398.226 123.177 400.509C120.846 404.719 116.515 408.136 111.256 410.061C104.275 412.61 97.3624 415.326 90.5265 418.207C89.4872 418.645 88.5623 417.748 89.2632 416.976C90.4042 415.72 91.5475 414.454 92.684 413.176C100.819 404.078 108.76 394.769 115.895 385.093C120.881 378.232 128.841 368.975 129.394 361.27C129.924 353.978 122.119 348.476 111.703 349.379C101.223 350.285 92.5502 357.795 92.6177 365.179C92.6131 379.861 87.1183 395.091 81.4828 409.597C80.383 412.428 79.2202 415.28 78.0334 418.116C76.1699 422.518 72.3055 426.326 67.3275 428.768C55.2586 434.681 43.4687 441.134 32 448.119C32.7866 449.159 33.5743 450.198 34.361 451.236Z" fill="#F0E5D0"/>
<path d="M83.7476 320.201C77.9754 306.103 71.5468 292.369 64.4986 279.032C61.5892 273.52 56.7284 269.415 51.2211 267.82C47.6734 266.8 44.1049 265.902 40.5693 265.157C22.4531 261.253 3.55855 260.38 -13.5194 265.688C-22.1418 268.27 -31.5566 263.931 -34.5029 255.678C-37.4087 247.471 -33.449 238.073 -25.066 234.793C-16.2095 231.309 -3.34966 234.365 5.88394 236.73C18.9571 239.99 31.7638 245.512 43.9441 252.686C45.654 253.687 47.3446 254.724 49.0132 255.786C50.038 256.44 51.0589 255.312 50.4038 254.234C46.095 247.167 41.6043 240.228 36.938 233.421C33.4182 228.28 28.0675 224.737 22.3636 223.832C19.2705 223.335 16.1774 222.942 13.1256 222.646C-4.09581 220.954 -21.7711 222.033 -37.0959 228.678C-45.0448 232.062 -54.148 228.746 -57.9245 221.195C-61.6875 213.644 -58.9036 204.262 -51.2 200.294C-43.1844 196.148 -30.4144 197.931 -21.4543 199.348C-9.1013 201.217 3.20097 205.134 15.0756 210.528C16.4473 211.154 17.8081 211.795 19.1606 212.462C20.2516 212.996 21.1568 211.764 20.3876 210.774C15.2746 204.206 9.98801 197.777 4.53526 191.498C0.359804 186.685 -5.55093 183.792 -11.4783 183.591C-13.9524 183.504 -16.4198 183.48 -18.8377 183.519C-34.1368 183.751 -49.1361 186.344 -62.316 192.899C-72.385 197.748 -85.7533 195.729 -87.4837 182.675C-89.327 169.841 -77.1365 165.911 -66.4194 165.035C-50.6373 163.667 -34.0886 166.55 -18.2223 171.885C-17.2476 172.216 -16.2738 172.551 -15.2994 172.903C-14.1588 173.319 -13.3982 171.997 -14.2737 171.102C-20.1431 165.106 -26.176 159.267 -32.3667 153.59C-37.1118 149.235 -43.4032 146.984 -49.3975 147.501C-51.2924 147.66 -53.1824 147.859 -55.0466 148.096C-69.5349 149.959 -82.6965 154.156 -94.5843 161.457C-103.963 167.07 -117.203 164.458 -119.163 152.306C-121.21 140.312 -109.65 136.293 -99.5273 134.722C-85.4141 132.453 -70.3494 133.714 -55.6685 137.065C-55.1441 137.188 -54.6111 137.32 -54.0859 137.446C-52.8865 137.736 -52.2713 136.344 -53.2456 135.553C-59.8139 130.207 -66.5348 125.035 -73.401 120.039C-78.753 116.14 -85.4657 114.607 -91.5097 115.89C-92.7527 116.148 -93.9806 116.429 -95.1978 116.722C-107.442 119.689 -119.078 124.319 -128.556 131.74C-136.7 137.956 -149.372 138.971 -153.779 127.41C-163.68 103.395 -111.585 103.506 -96.9464 106.4C-96.9305 106.403 -96.9155 106.405 -96.8989 106.407C-95.6661 106.567 -95.2014 105.119 -96.2802 104.437C-98.9103 102.769 -101.558 101.127 -104.224 99.5078C-113.176 94.1181 -119.385 91.8349 -129.149 89.0543C-136.883 86.9393 -146.472 86.4423 -163.978 79.7228C-177.627 74.5627 -184.241 64.129 -181.902 58.5232C-179.588 52.9571 -166.486 49.8082 -152.716 56.8557C-135.225 65.9292 -129.432 73.8834 -123.323 79.0718C-115.6 85.7799 -110.554 89.9373 -101.574 95.4738C-98.9004 97.1337 -96.2439 98.8184 -93.6077 100.527C-92.5314 101.229 -91.3212 100.263 -91.9662 99.2141C-91.9745 99.2014 -91.9839 99.1881 -91.9922 99.1755C-98.1132 86.9174 -130.99 42.0778 -102.49 38.6857C-87.7964 37.2184 -80.2046 50.2322 -82.1446 60.2579C-84.2906 72.1086 -83.1164 84.6568 -81.2554 97.0193C-81.0647 98.2476 -80.8718 99.4816 -80.6583 100.719C-79.6353 106.751 -75.9399 112.396 -70.5473 116.323C-63.6176 121.364 -56.8352 126.585 -50.206 131.98C-49.2252 132.78 -47.9277 131.95 -48.4473 130.835C-48.6739 130.347 -48.91 129.852 -49.139 129.365C-55.4128 115.703 -61.3324 101.562 -64.8527 87.1862C-67.2783 76.9998 -69.3898 64.1233 -55.4348 62.6736C-41.065 61.2837 -31.5252 75.3456 -34.4153 86.0062C-37.9426 99.6486 -38.439 113.647 -37.7059 128.274C-37.6069 130.157 -37.4878 132.053 -37.3515 133.945C-36.9191 139.936 -33.9141 145.798 -29.1342 150.187C-22.8867 155.915 -16.7979 161.809 -10.8744 167.861C-9.99171 168.764 -8.61857 168.074 -9.00735 166.919C-9.33896 165.934 -9.66117 164.949 -9.98512 163.966C-15.1945 147.935 -20.0189 131.405 -22.086 114.919C-23.3977 103.88 -23.3794 90.1431 -8.13048 91.306C7.61498 92.6641 13.6454 108.434 9.54652 118.987C4.31726 133.005 2.80864 148.597 2.03929 164.083C1.92216 166.532 1.82841 169.024 1.76014 171.514C1.60076 177.486 3.90322 183.597 8.10946 188.446C13.6127 194.784 18.9487 201.27 24.109 207.9C24.8843 208.897 26.3146 208.348 26.0618 207.146C25.7393 205.656 25.4301 204.161 25.1187 202.661C22.4703 189.67 20.1348 176.532 18.7784 163.386C17.857 153.855 15.4723 140.09 19.2809 131.82C22.9382 123.871 33.3997 121.896 42.6238 127.978C51.8485 134.049 55.8325 145.679 51.5701 153.379C43.4816 168.371 40.2423 186.593 37.6055 204.129C37.1483 207.241 36.716 210.397 36.3223 213.555C35.6009 219.382 37.2693 225.574 40.8145 230.754C45.5241 237.625 50.0568 244.629 54.4058 251.761C55.0671 252.845 56.5345 252.457 56.4138 251.225C56.2172 249.219 56.0257 247.201 55.8485 245.175C54.545 230.726 53.564 216.171 53.5805 201.713C53.6587 191.506 52.6247 176.993 57.3764 168.559C61.8668 160.571 72.8371 159.469 81.8442 166.67C90.9092 173.911 93.7951 187.013 88.6894 194.738C78.6664 210.182 73.3422 229.496 68.6432 248.132C67.7255 251.771 66.852 255.468 66.012 259.162C64.7278 264.91 65.6977 271.234 68.6304 276.788C75.7442 290.249 82.2311 304.111 88.058 318.339C86.6214 318.96 85.1836 319.581 83.7476 320.201Z" fill="#EDE8DD"/>
</svg>
