<svg width="32" height="32" viewBox="0 0 32 32" fill="none" xmlns="http://www.w3.org/2000/svg">
<path d="M13.3333 16H6.66659C6.31296 16 5.97383 15.8595 5.72378 15.6095C5.47373 15.3594 5.33325 15.0203 5.33325 14.6667V10C5.33325 9.6464 5.47373 9.30726 5.72378 9.05721C5.97383 8.80716 6.31296 8.66669 6.66659 8.66669H11.9999C12.3535 8.66669 12.6927 8.80716 12.9427 9.05721C13.1928 9.30726 13.3333 9.6464 13.3333 10V16ZM13.3333 16C13.3333 19.3334 11.9999 21.3334 7.99992 23.3334M26.6666 16H19.9999C19.6463 16 19.3072 15.8595 19.0571 15.6095C18.8071 15.3594 18.6666 15.0203 18.6666 14.6667V10C18.6666 9.6464 18.8071 9.30726 19.0571 9.05721C19.3072 8.80716 19.6463 8.66669 19.9999 8.66669H25.3333C25.6869 8.66669 26.026 8.80716 26.2761 9.05721C26.5261 9.30726 26.6666 9.6464 26.6666 10V16ZM26.6666 16C26.6666 19.3334 25.3333 21.3334 21.3333 23.3334" stroke="#5B5B5B" stroke-width="2" stroke-linecap="round"/>
</svg>
