<!-- Generated by IcoMoon.io -->
<svg version="1.1" xmlns="http://www.w3.org/2000/svg" width="32" height="32" viewBox="0 0 32 32">
<path d="M26.24 3.2h-20.48c-1.408 0-2.547 1.26-2.547 2.8l-0.013 16.8c0 1.54 1.152 2.8 2.56 2.8h20.48c1.408 0 2.56-1.26 2.56-2.8v-16.8c0-1.54-1.152-2.8-2.56-2.8zM25.728 9.15l-9.050 6.188c-0.41 0.28-0.947 0.28-1.357 0l-9.050-6.188c-0.128-0.079-0.241-0.185-0.33-0.313s-0.155-0.274-0.191-0.43c-0.036-0.156-0.044-0.318-0.021-0.478s0.074-0.311 0.152-0.448c0.078-0.136 0.181-0.254 0.301-0.346s0.257-0.156 0.402-0.189c0.144-0.032 0.293-0.033 0.437-0s0.281 0.096 0.402 0.188l8.576 5.866 8.576-5.866c0.121-0.092 0.258-0.155 0.402-0.188s0.293-0.032 0.437 0 0.281 0.097 0.402 0.189c0.121 0.092 0.223 0.21 0.301 0.346s0.13 0.289 0.152 0.448 0.015 0.322-0.021 0.477c-0.036 0.156-0.101 0.302-0.191 0.43s-0.202 0.234-0.33 0.313z"></path>
</svg>
