<!-- Generated by IcoMoon.io -->
<svg version="1.1" xmlns="http://www.w3.org/2000/svg" width="32" height="32" viewBox="0 0 32 32">
<path d="M16 14c1.105 0 2-0.895 2-2s-0.895-2-2-2c-1.105 0-2 0.895-2 2s0.895 2 2 2z"></path>
<path d="M16 3.2c-5.293 0-9.6 3.923-9.6 8.743 0 2.296 1.099 5.348 3.265 9.073 1.74 2.991 3.753 5.696 4.8 7.041 0.177 0.23 0.408 0.417 0.675 0.546s0.562 0.196 0.861 0.196c0.299 0 0.594-0.067 0.861-0.196s0.498-0.316 0.675-0.546c1.045-1.346 3.060-4.050 4.8-7.041 2.163-3.724 3.262-6.777 3.262-9.073 0-4.82-4.307-8.743-9.6-8.743zM16 16c-0.759 0-1.502-0.214-2.133-0.616s-1.124-0.973-1.414-1.641c-0.291-0.668-0.367-1.404-0.219-2.113s0.514-1.361 1.051-1.873c0.537-0.511 1.221-0.86 1.966-1.001s1.517-0.069 2.219 0.208c0.702 0.277 1.301 0.746 1.723 1.347s0.647 1.309 0.647 2.032c-0.001 0.97-0.406 1.899-1.126 2.585s-1.696 1.071-2.714 1.072z"></path>
</svg>
