<!-- Generated by IcoMoon.io -->
<svg version="1.1" xmlns="http://www.w3.org/2000/svg" width="32" height="32" viewBox="0 0 32 32">
<path d="M26.292 20.657l-3.62-0.413c-0.426-0.050-0.857-0.003-1.262 0.138s-0.772 0.371-1.075 0.674l-2.622 2.622c-4.045-2.058-7.333-5.346-9.391-9.391l2.636-2.636c0.613-0.613 0.912-1.468 0.812-2.337l-0.413-3.591c-0.081-0.695-0.414-1.337-0.937-1.802s-1.199-0.722-1.899-0.721h-2.465c-1.61 0-2.95 1.34-2.85 2.95 0.755 12.17 10.489 21.89 22.645 22.645 1.61 0.1 2.95-1.24 2.95-2.85v-2.465c0.014-1.439-1.069-2.651-2.508-2.822z"></path>
</svg>
